<svg xmlns="http://www.w3.org/2000/svg" xmlns:xlink="http://www.w3.org/1999/xlink" width="200" zoomAndPan="magnify" viewBox="0 0 150 149.999998" height="200" preserveAspectRatio="xMidYMid meet" version="1.0"><defs><clipPath id="3d1be7d611"><path d="M 0 6.84375 L 150 6.84375 L 150 35 L 0 35 Z M 0 6.84375 " clip-rule="nonzero"/></clipPath><clipPath id="77809de3c2"><path d="M 0 116 L 150 116 L 150 143.34375 L 0 143.34375 Z M 0 116 " clip-rule="nonzero"/></clipPath></defs><g clip-path="url(#3d1be7d611)"><path fill="#faebd7" d="M 13.660156 34.144531 L 136.339844 34.144531 C 137.234375 34.144531 138.121094 34.054688 139 33.882812 C 139.878906 33.707031 140.730469 33.449219 141.558594 33.105469 C 142.382812 32.761719 143.167969 32.339844 143.914062 31.84375 C 144.65625 31.34375 145.347656 30.78125 145.980469 30.144531 C 146.613281 29.511719 147.175781 28.824219 147.675781 28.078125 C 148.171875 27.332031 148.589844 26.546875 148.933594 25.71875 C 149.277344 24.890625 149.535156 24.035156 149.710938 23.15625 C 149.882812 22.277344 149.972656 21.390625 149.972656 20.492188 C 149.972656 19.597656 149.882812 18.710938 149.710938 17.832031 C 149.535156 16.953125 149.277344 16.097656 148.933594 15.269531 C 148.589844 14.441406 148.171875 13.65625 147.675781 12.910156 C 147.175781 12.164062 146.613281 11.476562 145.980469 10.839844 C 145.347656 10.207031 144.65625 9.640625 143.914062 9.144531 C 143.167969 8.644531 142.382812 8.226562 141.558594 7.882812 C 140.730469 7.539062 139.878906 7.28125 139 7.105469 C 138.121094 6.929688 137.234375 6.84375 136.339844 6.84375 L 13.660156 6.84375 C 12.765625 6.84375 11.878906 6.929688 11 7.105469 C 10.121094 7.28125 9.269531 7.539062 8.441406 7.882812 C 7.617188 8.226562 6.832031 8.644531 6.085938 9.144531 C 5.34375 9.640625 4.652344 10.207031 4.019531 10.839844 C 3.386719 11.476562 2.824219 12.164062 2.324219 12.910156 C 1.828125 13.65625 1.410156 14.441406 1.066406 15.269531 C 0.722656 16.097656 0.464844 16.953125 0.289062 17.832031 C 0.117188 18.710938 0.0273438 19.597656 0.0273438 20.492188 C 0.0273438 21.390625 0.117188 22.277344 0.289062 23.15625 C 0.464844 24.035156 0.722656 24.890625 1.066406 25.71875 C 1.410156 26.546875 1.828125 27.332031 2.324219 28.078125 C 2.824219 28.824219 3.386719 29.511719 4.019531 30.144531 C 4.652344 30.78125 5.34375 31.34375 6.085938 31.84375 C 6.832031 32.339844 7.617188 32.761719 8.441406 33.105469 C 9.269531 33.449219 10.121094 33.707031 11 33.882812 C 11.878906 34.054688 12.765625 34.144531 13.660156 34.144531 Z M 13.660156 34.144531 " fill-opacity="1" fill-rule="nonzero"/></g><path fill="#faebd7" d="M 136.339844 61.445312 L 13.660156 61.445312 C 12.765625 61.445312 11.878906 61.53125 11 61.707031 C 10.121094 61.882812 9.269531 62.140625 8.441406 62.484375 C 7.617188 62.824219 6.832031 63.246094 6.085938 63.746094 C 5.34375 64.242188 4.652344 64.808594 4.019531 65.441406 C 3.386719 66.074219 2.824219 66.765625 2.324219 67.511719 C 1.828125 68.253906 1.410156 69.042969 1.066406 69.871094 C 0.722656 70.699219 0.464844 71.550781 0.289062 72.429688 C 0.117188 73.308594 0.0273438 74.199219 0.0273438 75.09375 C 0.0273438 75.988281 0.117188 76.878906 0.289062 77.757812 C 0.464844 78.636719 0.722656 79.488281 1.066406 80.316406 C 1.410156 81.144531 1.828125 81.933594 2.324219 82.675781 C 2.824219 83.421875 3.386719 84.113281 4.019531 84.746094 C 4.652344 85.378906 5.34375 85.945312 6.085938 86.441406 C 6.832031 86.941406 7.617188 87.363281 8.441406 87.703125 C 9.269531 88.046875 10.121094 88.304688 11 88.480469 C 11.878906 88.65625 12.765625 88.742188 13.660156 88.742188 L 136.339844 88.742188 C 137.234375 88.742188 138.121094 88.65625 139 88.480469 C 139.878906 88.304688 140.730469 88.046875 141.558594 87.703125 C 142.382812 87.363281 143.167969 86.941406 143.914062 86.441406 C 144.65625 85.945312 145.347656 85.378906 145.980469 84.746094 C 146.613281 84.113281 147.175781 83.421875 147.675781 82.675781 C 148.171875 81.933594 148.589844 81.144531 148.933594 80.316406 C 149.277344 79.488281 149.535156 78.636719 149.710938 77.757812 C 149.882812 76.878906 149.972656 75.988281 149.972656 75.09375 C 149.972656 74.199219 149.882812 73.308594 149.710938 72.429688 C 149.535156 71.550781 149.277344 70.699219 148.933594 69.871094 C 148.589844 69.042969 148.171875 68.253906 147.675781 67.511719 C 147.175781 66.765625 146.613281 66.074219 145.980469 65.441406 C 145.347656 64.808594 144.65625 64.242188 143.914062 63.746094 C 143.167969 63.246094 142.382812 62.824219 141.558594 62.484375 C 140.730469 62.140625 139.878906 61.882812 139 61.707031 C 138.121094 61.53125 137.234375 61.445312 136.339844 61.445312 Z M 136.339844 61.445312 " fill-opacity="1" fill-rule="nonzero"/><g clip-path="url(#77809de3c2)"><path fill="#faebd7" d="M 136.339844 116.042969 L 13.660156 116.042969 C 12.765625 116.042969 11.878906 116.132812 11 116.304688 C 10.121094 116.480469 9.269531 116.738281 8.441406 117.082031 C 7.617188 117.425781 6.832031 117.847656 6.085938 118.34375 C 5.34375 118.84375 4.652344 119.40625 4.019531 120.042969 C 3.386719 120.675781 2.824219 121.363281 2.324219 122.109375 C 1.828125 122.855469 1.410156 123.640625 1.066406 124.46875 C 0.722656 125.296875 0.464844 126.152344 0.289062 127.03125 C 0.117188 127.910156 0.0273438 128.796875 0.0273438 129.695312 C 0.0273438 130.589844 0.117188 131.476562 0.289062 132.355469 C 0.464844 133.234375 0.722656 134.089844 1.066406 134.917969 C 1.410156 135.746094 1.828125 136.53125 2.324219 137.277344 C 2.824219 138.023438 3.386719 138.710938 4.019531 139.347656 C 4.652344 139.980469 5.34375 140.546875 6.085938 141.042969 C 6.832031 141.542969 7.617188 141.960938 8.441406 142.304688 C 9.269531 142.648438 10.121094 142.90625 11 143.082031 C 11.878906 143.257812 12.765625 143.34375 13.660156 143.34375 L 136.339844 143.34375 C 137.234375 143.34375 138.121094 143.257812 139 143.082031 C 139.878906 142.90625 140.730469 142.648438 141.558594 142.304688 C 142.382812 141.960938 143.167969 141.542969 143.914062 141.042969 C 144.65625 140.546875 145.347656 139.980469 145.980469 139.347656 C 146.613281 138.710938 147.175781 138.023438 147.675781 137.277344 C 148.171875 136.53125 148.589844 135.746094 148.933594 134.917969 C 149.277344 134.089844 149.535156 133.234375 149.710938 132.355469 C 149.882812 131.476562 149.972656 130.589844 149.972656 129.695312 C 149.972656 128.796875 149.882812 127.910156 149.710938 127.03125 C 149.535156 126.152344 149.277344 125.296875 148.933594 124.46875 C 148.589844 123.640625 148.171875 122.855469 147.675781 122.109375 C 147.175781 121.363281 146.613281 120.675781 145.980469 120.042969 C 145.347656 119.40625 144.65625 118.84375 143.914062 118.34375 C 143.167969 117.847656 142.382812 117.425781 141.558594 117.082031 C 140.730469 116.738281 139.878906 116.480469 139 116.304688 C 138.121094 116.132812 137.234375 116.042969 136.339844 116.042969 Z M 136.339844 116.042969 " fill-opacity="1" fill-rule="nonzero"/></g></svg>