<svg xmlns="http://www.w3.org/2000/svg" xmlns:xlink="http://www.w3.org/1999/xlink" width="200" zoomAndPan="magnify" viewBox="0 0 150 149.999998" height="200" preserveAspectRatio="xMidYMid meet" version="1.0"><path fill="#000000" d="M 145.699219 130.28125 C 149.953125 134.535156 149.953125 141.445312 145.699219 145.699219 C 141.445312 149.953125 134.535156 149.953125 130.28125 145.699219 L 74.960938 90.375 L 19.640625 145.699219 C 15.382812 149.953125 8.476562 149.953125 4.222656 145.699219 C -0.03125 141.445312 -0.03125 134.535156 4.222656 130.28125 L 59.542969 74.960938 L 4.222656 19.640625 C -0.03125 15.382812 -0.03125 8.476562 4.222656 4.222656 C 8.476562 -0.03125 15.382812 -0.03125 19.640625 4.222656 L 74.960938 59.542969 L 130.28125 4.222656 C 134.535156 -0.03125 141.445312 -0.03125 145.699219 4.222656 C 149.953125 8.476562 149.953125 15.382812 145.699219 19.640625 L 90.375 74.960938 Z M 145.699219 130.28125 " fill-opacity="1" fill-rule="nonzero"/></svg>