<svg xmlns="http://www.w3.org/2000/svg" xmlns:xlink="http://www.w3.org/1999/xlink" width="200" zoomAndPan="magnify" viewBox="0 0 150 149.999998" height="200" preserveAspectRatio="xMidYMid meet" version="1.0"><defs><clipPath id="4c97e3366b"><path d="M 43 24.605469 L 107 24.605469 L 107 104 L 43 104 Z M 43 24.605469 " clip-rule="nonzero"/></clipPath><clipPath id="aedefa8bf3"><path d="M 24.289062 113 L 125.539062 113 L 125.539062 125.105469 L 24.289062 125.105469 Z M 24.289062 113 " clip-rule="nonzero"/></clipPath></defs><g clip-path="url(#4c97e3366b)"><path fill="#faebd7" d="M 104.285156 67.761719 C 101.828125 65.308594 97.824219 65.308594 95.371094 67.761719 L 81.222656 81.890625 L 81.222656 30.898438 C 81.222656 27.421875 78.40625 24.605469 74.925781 24.605469 C 71.441406 24.605469 68.605469 27.421875 68.605469 30.898438 L 68.605469 81.550781 L 54.457031 67.417969 C 52.003906 64.96875 48 64.96875 45.542969 67.417969 C 43.089844 69.871094 43.089844 73.871094 45.542969 76.324219 L 70.617188 101.386719 C 71.84375 102.613281 73.457031 103.238281 75.085938 103.238281 C 76.695312 103.238281 78.304688 102.613281 79.554688 101.386719 L 104.304688 76.664062 C 106.761719 74.214844 106.761719 70.214844 104.285156 67.761719 Z M 104.285156 67.761719 " fill-opacity="1" fill-rule="nonzero"/></g><g clip-path="url(#aedefa8bf3)"><path fill="#faebd7" d="M 119.902344 113.929688 L 29.929688 113.929688 C 26.828125 113.929688 24.332031 116.421875 24.332031 119.519531 C 24.332031 122.613281 26.828125 125.105469 29.929688 125.105469 L 119.902344 125.105469 C 123 125.105469 125.496094 122.59375 125.496094 119.519531 C 125.496094 116.441406 123 113.929688 119.902344 113.929688 Z M 119.902344 113.929688 " fill-opacity="1" fill-rule="nonzero"/></g></svg>