<svg xmlns="http://www.w3.org/2000/svg" xmlns:xlink="http://www.w3.org/1999/xlink" width="200" zoomAndPan="magnify" viewBox="0 0 150 149.999998" height="200" preserveAspectRatio="xMidYMid meet" version="1.0"><defs><clipPath id="99f8fc53d0"><path d="M 23.25 23.25 L 126.75 23.25 L 126.75 126.75 L 23.25 126.75 Z M 23.25 23.25 " clip-rule="nonzero"/></clipPath></defs><g clip-path="url(#99f8fc53d0)"><path fill="#faebd7" d="M 126.75 126.75 L 106.046875 126.75 L 106.046875 90.53125 C 106.046875 80.59375 101.664062 75.050781 93.804688 75.050781 C 85.25 75.050781 80.171875 80.828125 80.171875 90.53125 L 80.171875 126.75 L 59.472656 126.75 L 59.472656 59.476562 L 80.171875 59.476562 L 80.171875 67.039062 C 80.171875 67.039062 86.667969 55.644531 101.304688 55.644531 C 115.941406 55.644531 126.75 64.578125 126.75 83.0625 Z M 35.886719 48.714844 C 28.90625 48.714844 23.25 43.011719 23.25 35.980469 C 23.25 28.953125 28.90625 23.25 35.886719 23.25 C 42.863281 23.25 48.519531 28.953125 48.519531 35.980469 C 48.523438 43.011719 42.863281 48.714844 35.886719 48.714844 Z M 23.25 126.75 L 49.125 126.75 L 49.125 59.476562 L 23.25 59.476562 Z M 23.25 126.75 " fill-opacity="1" fill-rule="evenodd"/></g></svg>