<svg xmlns="http://www.w3.org/2000/svg" xmlns:xlink="http://www.w3.org/1999/xlink" width="200" zoomAndPan="magnify" viewBox="0 0 150 149.999998" height="200" preserveAspectRatio="xMidYMid meet" version="1.0"><defs><clipPath id="36e2a6e353"><path d="M 0 126.746094 L 10.5 126.746094 L 10.5 137.222656 L 0 137.222656 Z M 0 126.746094 " clip-rule="nonzero"/></clipPath><clipPath id="7b4ec3691e"><path d="M 139.5 116.859375 L 150 116.859375 L 150 137.222656 L 139.5 137.222656 Z M 139.5 116.859375 " clip-rule="nonzero"/></clipPath></defs><path fill="#4d4d4d" d="M 0.164062 27.285156 L 10.308594 27.285156 L 10.308594 37.582031 L 0 37.582031 L 0 27.285156 Z M 9.976562 27.617188 L 0.332031 27.617188 L 0.332031 37.25 L 9.976562 37.25 L 9.976562 27.617188 " fill-opacity="1" fill-rule="evenodd"/><path fill="#4d4d4d" d="M 19.957031 67.308594 L 19.957031 57.175781 L 40.246094 57.175781 L 40.246094 67.472656 L 19.957031 67.472656 Z M 20.289062 57.507812 L 20.289062 67.140625 L 39.910156 67.140625 L 39.910156 57.507812 L 20.289062 57.507812 " fill-opacity="1" fill-rule="evenodd"/><path fill="#4d4d4d" d="M 10.144531 37.25 L 20.289062 37.25 L 20.289062 57.507812 L 9.976562 57.507812 L 9.976562 37.25 Z M 19.957031 37.582031 L 10.308594 37.582031 L 10.308594 57.175781 L 19.957031 57.175781 L 19.957031 37.582031 " fill-opacity="1" fill-rule="evenodd"/><path fill="#4d4d4d" d="M 10.144531 7.355469 L 20.289062 7.355469 L 20.289062 17.652344 L 9.976562 17.652344 L 9.976562 7.355469 Z M 19.957031 7.6875 L 10.308594 7.6875 L 10.308594 17.320312 L 19.957031 17.320312 L 19.957031 7.6875 " fill-opacity="1" fill-rule="evenodd"/><path fill="#4d4d4d" d="M 20.121094 17.320312 L 30.265625 17.320312 L 30.265625 37.582031 L 19.957031 37.582031 L 19.957031 17.320312 Z M 29.933594 17.652344 L 20.289062 17.652344 L 20.289062 37.25 L 29.933594 37.25 L 29.933594 17.652344 " fill-opacity="1" fill-rule="evenodd"/><path fill="#4d4d4d" d="M 40.078125 27.285156 L 50.222656 27.285156 L 50.222656 37.582031 L 39.910156 37.582031 L 39.910156 27.285156 Z M 49.890625 27.617188 L 40.246094 27.617188 L 40.246094 37.25 L 49.890625 37.25 L 49.890625 27.617188 " fill-opacity="1" fill-rule="evenodd"/><path fill="#4d4d4d" d="M 40.078125 47.210938 L 50.222656 47.210938 L 50.222656 57.507812 L 39.910156 57.507812 L 39.910156 47.210938 Z M 49.890625 47.542969 L 40.246094 47.542969 L 40.246094 57.175781 L 49.890625 57.175781 L 49.890625 47.542969 " fill-opacity="1" fill-rule="evenodd"/><path fill="#4d4d4d" d="M 50.054688 57.175781 L 60.199219 57.175781 L 60.199219 67.472656 L 49.890625 67.472656 L 49.890625 57.175781 Z M 59.867188 57.507812 L 50.222656 57.507812 L 50.222656 67.140625 L 59.867188 67.140625 L 59.867188 57.507812 " fill-opacity="1" fill-rule="evenodd"/><path fill="#4d4d4d" d="M 60.03125 37.25 L 70.175781 37.25 L 70.175781 57.507812 L 59.867188 57.507812 L 59.867188 37.25 Z M 69.84375 37.582031 L 60.199219 37.582031 L 60.199219 57.175781 L 69.84375 57.175781 L 69.84375 37.582031 " fill-opacity="1" fill-rule="evenodd"/><path fill="#4d4d4d" d="M 59.867188 77.273438 L 59.867188 67.140625 L 80.15625 67.140625 L 80.15625 77.4375 L 59.867188 77.4375 Z M 60.199219 67.472656 L 60.199219 77.105469 L 79.820312 77.105469 L 79.820312 67.472656 L 60.199219 67.472656 " fill-opacity="1" fill-rule="evenodd"/><path fill="#4d4d4d" d="M 0.164062 67.140625 L 10.308594 67.140625 L 10.308594 77.4375 L 0 77.4375 L 0 67.140625 Z M 9.976562 67.472656 L 0.332031 67.472656 L 0.332031 77.105469 L 9.976562 77.105469 L 9.976562 67.472656 " fill-opacity="1" fill-rule="evenodd"/><path fill="#4d4d4d" d="M 10.144531 77.105469 L 20.289062 77.105469 L 20.289062 87.402344 L 9.976562 87.402344 L 9.976562 77.105469 Z M 19.957031 77.4375 L 10.308594 77.4375 L 10.308594 87.070312 L 19.957031 87.070312 L 19.957031 77.4375 " fill-opacity="1" fill-rule="evenodd"/><path fill="#4d4d4d" d="M 20.121094 87.070312 L 30.265625 87.070312 L 30.265625 107.332031 L 19.957031 107.332031 L 19.957031 87.070312 Z M 29.933594 87.402344 L 20.289062 87.402344 L 20.289062 107 L 29.933594 107 L 29.933594 87.402344 " fill-opacity="1" fill-rule="evenodd"/><path fill="#4d4d4d" d="M 29.933594 87.234375 L 29.933594 77.105469 L 50.222656 77.105469 L 50.222656 87.402344 L 29.933594 87.402344 Z M 30.265625 77.4375 L 30.265625 87.070312 L 49.890625 87.070312 L 49.890625 77.4375 L 30.265625 77.4375 " fill-opacity="1" fill-rule="evenodd"/><path fill="#4d4d4d" d="M 50.054688 87.070312 L 60.199219 87.070312 L 60.199219 97.367188 L 49.890625 97.367188 L 49.890625 87.070312 Z M 59.867188 87.402344 L 50.222656 87.402344 L 50.222656 97.035156 L 59.867188 97.035156 L 59.867188 87.402344 " fill-opacity="1" fill-rule="evenodd"/><path fill="#4d4d4d" d="M 40.078125 97.035156 L 50.222656 97.035156 L 50.222656 117.292969 L 39.910156 117.292969 L 39.910156 97.035156 Z M 49.890625 97.367188 L 40.246094 97.367188 L 40.246094 116.964844 L 49.890625 116.964844 L 49.890625 97.367188 " fill-opacity="1" fill-rule="evenodd"/><path fill="#4d4d4d" d="M 60.03125 107 L 70.175781 107 L 70.175781 117.292969 L 59.867188 117.292969 L 59.867188 107 Z M 69.84375 107.332031 L 60.199219 107.332031 L 60.199219 116.964844 L 69.84375 116.964844 L 69.84375 107.332031 " fill-opacity="1" fill-rule="evenodd"/><path fill="#4d4d4d" d="M 10.144531 107 L 20.289062 107 L 20.289062 117.292969 L 9.976562 117.292969 L 9.976562 107 Z M 19.957031 107.332031 L 10.308594 107.332031 L 10.308594 116.964844 L 19.957031 116.964844 L 19.957031 107.332031 " fill-opacity="1" fill-rule="evenodd"/><path fill="#4d4d4d" d="M 20.121094 116.964844 L 30.265625 116.964844 L 30.265625 127.257812 L 19.957031 127.257812 L 19.957031 116.964844 Z M 29.933594 117.292969 L 20.289062 117.292969 L 20.289062 126.925781 L 29.933594 126.925781 L 29.933594 117.292969 " fill-opacity="1" fill-rule="evenodd"/><g clip-path="url(#36e2a6e353)"><path fill="#4d4d4d" d="M 0.164062 126.925781 L 10.308594 126.925781 L 10.308594 137.222656 L 0 137.222656 L 0 126.925781 Z M 9.976562 127.257812 L 0.332031 127.257812 L 0.332031 136.890625 L 9.976562 136.890625 L 9.976562 127.257812 " fill-opacity="1" fill-rule="evenodd"/></g><path fill="#4d4d4d" d="M 89.800781 107.164062 L 89.800781 97.035156 L 110.089844 97.035156 L 110.089844 107.332031 L 89.800781 107.332031 Z M 90.132812 97.367188 L 90.132812 107 L 109.753906 107 L 109.753906 97.367188 L 90.132812 97.367188 " fill-opacity="1" fill-rule="evenodd"/><path fill="#4d4d4d" d="M 99.945312 57.175781 L 110.089844 57.175781 L 110.089844 77.4375 L 99.777344 77.4375 L 99.777344 57.175781 Z M 109.753906 57.507812 L 100.109375 57.507812 L 100.109375 77.105469 L 109.753906 77.105469 L 109.753906 57.507812 " fill-opacity="1" fill-rule="evenodd"/><path fill="#4d4d4d" d="M 129.878906 107 L 140.023438 107 L 140.023438 117.292969 L 129.710938 117.292969 L 129.710938 107 Z M 139.691406 107.332031 L 130.042969 107.332031 L 130.042969 116.964844 L 139.691406 116.964844 L 139.691406 107.332031 " fill-opacity="1" fill-rule="evenodd"/><path fill="#4d4d4d" d="M 109.921875 77.105469 L 120.066406 77.105469 L 120.066406 87.402344 L 109.753906 87.402344 L 109.753906 77.105469 Z M 119.734375 77.4375 L 110.089844 77.4375 L 110.089844 87.070312 L 119.734375 87.070312 L 119.734375 77.4375 " fill-opacity="1" fill-rule="evenodd"/><path fill="#4d4d4d" d="M 119.734375 97.199219 L 119.734375 87.070312 L 140.023438 87.070312 L 140.023438 97.367188 L 119.734375 97.367188 Z M 120.066406 87.402344 L 120.066406 97.035156 L 139.691406 97.035156 L 139.691406 87.402344 L 120.066406 87.402344 " fill-opacity="1" fill-rule="evenodd"/><path fill="#4d4d4d" d="M 109.921875 107 L 120.066406 107 L 120.066406 117.292969 L 109.753906 117.292969 L 109.753906 107 Z M 119.734375 107.332031 L 110.089844 107.332031 L 110.089844 116.964844 L 119.734375 116.964844 L 119.734375 107.332031 " fill-opacity="1" fill-rule="evenodd"/><g clip-path="url(#7b4ec3691e)"><path fill="#4d4d4d" d="M 139.855469 116.964844 L 150 116.964844 L 150 137.222656 L 139.691406 137.222656 L 139.691406 116.964844 Z M 149.667969 117.292969 L 140.023438 117.292969 L 140.023438 136.890625 L 149.667969 136.890625 L 149.667969 117.292969 " fill-opacity="1" fill-rule="evenodd"/></g><path fill="#4d4d4d" d="M 119.898438 57.175781 L 130.042969 57.175781 L 130.042969 67.472656 L 119.734375 67.472656 L 119.734375 57.175781 Z M 129.710938 57.507812 L 120.066406 57.507812 L 120.066406 67.140625 L 129.710938 67.140625 L 129.710938 57.507812 " fill-opacity="1" fill-rule="evenodd"/><path fill="#4d4d4d" d="M 129.878906 67.140625 L 140.023438 67.140625 L 140.023438 77.4375 L 129.710938 77.4375 L 129.710938 67.140625 Z M 139.691406 67.472656 L 130.042969 67.472656 L 130.042969 77.105469 L 139.691406 77.105469 L 139.691406 67.472656 " fill-opacity="1" fill-rule="evenodd"/><path fill="#4d4d4d" d="M 139.855469 47.210938 L 150 47.210938 L 150 57.507812 L 139.691406 57.507812 L 139.691406 47.210938 Z M 149.667969 47.542969 L 140.023438 47.542969 L 140.023438 57.175781 L 149.667969 57.175781 L 149.667969 47.542969 " fill-opacity="1" fill-rule="evenodd"/><path fill="#4d4d4d" d="M 79.988281 77.105469 L 90.132812 77.105469 L 90.132812 87.402344 L 79.820312 87.402344 L 79.820312 77.105469 Z M 89.800781 77.4375 L 80.15625 77.4375 L 80.15625 87.070312 L 89.800781 87.070312 L 89.800781 77.4375 " fill-opacity="1" fill-rule="evenodd"/><path fill="#4d4d4d" d="M 70.011719 87.070312 L 80.15625 87.070312 L 80.15625 97.367188 L 69.84375 97.367188 L 69.84375 87.070312 Z M 79.820312 87.402344 L 70.175781 87.402344 L 70.175781 97.035156 L 79.820312 97.035156 L 79.820312 87.402344 " fill-opacity="1" fill-rule="evenodd"/><path fill="#4d4d4d" d="M 2.460938 89.363281 L 8.011719 89.363281 L 8.011719 95.070312 L 2.296875 95.070312 L 2.296875 89.363281 Z M 7.683594 89.695312 L 2.628906 89.695312 L 2.628906 94.742188 L 7.683594 94.742188 L 7.683594 89.695312 " fill-opacity="1" fill-rule="evenodd"/><path fill="#4d4d4d" d="M 13.5625 120.378906 L 16.871094 120.378906 L 16.871094 123.84375 L 13.398438 123.84375 L 13.398438 120.378906 Z M 16.539062 120.707031 L 13.730469 120.707031 L 13.730469 123.511719 L 16.539062 123.511719 L 16.539062 120.707031 " fill-opacity="1" fill-rule="evenodd"/><path fill="#4d4d4d" d="M 23.160156 70.175781 L 27.226562 70.175781 L 27.226562 74.40625 L 22.992188 74.40625 L 22.992188 70.175781 Z M 26.894531 70.507812 L 23.324219 70.507812 L 23.324219 74.074219 L 26.894531 74.074219 L 26.894531 70.507812 " fill-opacity="1" fill-rule="evenodd"/><path fill="#4d4d4d" d="M 33.640625 90.605469 L 36.703125 90.605469 L 36.703125 93.832031 L 33.472656 93.832031 L 33.472656 90.605469 Z M 36.371094 90.9375 L 33.808594 90.9375 L 33.808594 93.496094 L 36.371094 93.496094 L 36.371094 90.9375 " fill-opacity="1" fill-rule="evenodd"/><path fill="#4d4d4d" d="M 3.363281 40.441406 L 7.113281 40.441406 L 7.113281 44.351562 L 3.199219 44.351562 L 3.199219 40.441406 Z M 6.78125 40.773438 L 3.53125 40.773438 L 3.53125 44.019531 L 6.78125 44.019531 L 6.78125 40.773438 " fill-opacity="1" fill-rule="evenodd"/><path fill="#4d4d4d" d="M 32.855469 40.003906 L 37.484375 40.003906 L 37.484375 44.792969 L 32.691406 44.792969 L 32.691406 40.003906 Z M 37.152344 40.335938 L 33.023438 40.335938 L 33.023438 44.457031 L 37.152344 44.457031 L 37.152344 40.335938 " fill-opacity="1" fill-rule="evenodd"/><path fill="#4d4d4d" d="M 2.796875 0.015625 L 7.683594 0.015625 L 7.683594 5.0625 L 2.628906 5.0625 L 2.628906 0.015625 Z M 7.347656 0.351562 L 2.960938 0.351562 L 2.960938 4.730469 L 7.347656 4.730469 L 7.347656 0.351562 " fill-opacity="1" fill-rule="evenodd"/><path fill="#4d4d4d" d="M 53.554688 20.816406 L 56.699219 20.816406 L 56.699219 24.121094 L 53.390625 24.121094 L 53.390625 20.816406 Z M 56.367188 21.148438 L 53.722656 21.148438 L 53.722656 23.789062 L 56.367188 23.789062 L 56.367188 21.148438 " fill-opacity="1" fill-rule="evenodd"/><path fill="#4d4d4d" d="M 81.929688 59.117188 L 88.191406 59.117188 L 88.191406 65.53125 L 81.765625 65.53125 L 81.765625 59.117188 Z M 87.859375 59.449219 L 82.097656 59.449219 L 82.097656 65.203125 L 87.859375 65.203125 L 87.859375 59.449219 " fill-opacity="1" fill-rule="evenodd"/><path fill="#4d4d4d" d="M 73.609375 50.804688 L 76.558594 50.804688 L 76.558594 53.917969 L 73.441406 53.917969 L 73.441406 50.804688 Z M 76.226562 51.136719 L 73.773438 51.136719 L 73.773438 53.585938 L 76.226562 53.585938 L 76.226562 51.136719 " fill-opacity="1" fill-rule="evenodd"/><path fill="#4d4d4d" d="M 103.410156 90.53125 L 106.621094 90.53125 L 106.621094 93.902344 L 103.246094 93.902344 L 103.246094 90.53125 Z M 106.289062 90.863281 L 103.578125 90.863281 L 103.578125 93.570312 L 106.289062 93.570312 L 106.289062 90.863281 " fill-opacity="1" fill-rule="evenodd"/><path fill="#4d4d4d" d="M 113.777344 51.058594 L 116.210938 51.058594 L 116.210938 53.660156 L 113.609375 53.660156 L 113.609375 51.058594 Z M 115.878906 51.394531 L 113.941406 51.394531 L 113.941406 53.328125 L 115.878906 53.328125 L 115.878906 51.394531 " fill-opacity="1" fill-rule="evenodd"/><path fill="#4d4d4d" d="M 132.5625 39.929688 L 137.335938 39.929688 L 137.335938 44.863281 L 132.394531 44.863281 L 132.394531 39.929688 Z M 137.007812 40.261719 L 132.730469 40.261719 L 132.730469 44.53125 L 137.007812 44.53125 L 137.007812 40.261719 " fill-opacity="1" fill-rule="evenodd"/><path fill="#4d4d4d" d="M 142.558594 79.800781 L 147.296875 79.800781 L 147.296875 84.703125 L 142.390625 84.703125 L 142.390625 79.800781 Z M 146.964844 80.136719 L 142.722656 80.136719 L 142.722656 84.371094 L 146.964844 84.371094 L 146.964844 80.136719 " fill-opacity="1" fill-rule="evenodd"/><path fill="#4d4d4d" d="M 143.511719 60.828125 L 146.347656 60.828125 L 146.347656 63.824219 L 143.34375 63.824219 L 143.34375 60.828125 Z M 146.011719 61.160156 L 143.675781 61.160156 L 143.675781 63.492188 L 146.011719 63.492188 L 146.011719 61.160156 " fill-opacity="1" fill-rule="evenodd"/><path fill="#4d4d4d" d="M 143.464844 100.640625 L 146.390625 100.640625 L 146.390625 103.726562 L 143.300781 103.726562 L 143.300781 100.640625 Z M 146.054688 100.972656 L 143.632812 100.972656 L 143.632812 103.394531 L 146.054688 103.394531 L 146.054688 100.972656 " fill-opacity="1" fill-rule="evenodd"/><path fill="#4d4d4d" d="M 123.78125 71.015625 L 126.164062 71.015625 L 126.164062 73.5625 L 123.613281 73.5625 L 123.613281 71.015625 Z M 125.832031 71.347656 L 123.945312 71.347656 L 123.945312 73.230469 L 125.832031 73.230469 L 125.832031 71.347656 " fill-opacity="1" fill-rule="evenodd"/><path fill="#4d4d4d" d="M 122.402344 119.460938 L 127.542969 119.460938 L 127.542969 124.761719 L 122.234375 124.761719 L 122.234375 119.460938 Z M 127.210938 119.792969 L 122.566406 119.792969 L 122.566406 124.429688 L 127.210938 124.429688 L 127.210938 119.792969 " fill-opacity="1" fill-rule="evenodd"/></svg>