<svg xmlns="http://www.w3.org/2000/svg" xmlns:xlink="http://www.w3.org/1999/xlink" width="200" zoomAndPan="magnify" viewBox="0 0 150 149.999998" height="200" preserveAspectRatio="xMidYMid meet" version="1.0"><defs><clipPath id="7425471890"><path d="M 6.496094 0 L 16.972656 0 L 16.972656 10.5 L 6.496094 10.5 Z M 6.496094 0 " clip-rule="nonzero"/></clipPath><clipPath id="190431924e"><path d="M 6.496094 139.5 L 26.859375 139.5 L 26.859375 150 L 6.496094 150 Z M 6.496094 139.5 " clip-rule="nonzero"/></clipPath><clipPath id="ebf42e47cd"><path d="M 138 2 L 143.71875 2 L 143.71875 8 L 138 8 Z M 138 2 " clip-rule="nonzero"/></clipPath></defs><path fill="#4d4d4d" d="M 116.433594 0.164062 L 116.433594 10.308594 L 106.136719 10.308594 L 106.136719 0 L 116.433594 0 Z M 116.101562 9.976562 L 116.101562 0.332031 L 106.46875 0.332031 L 106.46875 9.976562 L 116.101562 9.976562 " fill-opacity="1" fill-rule="evenodd"/><path fill="#4d4d4d" d="M 76.410156 19.957031 L 86.542969 19.957031 L 86.542969 40.246094 L 76.246094 40.246094 L 76.246094 19.957031 Z M 86.210938 20.289062 L 76.578125 20.289062 L 76.578125 39.910156 L 86.210938 39.910156 L 86.210938 20.289062 " fill-opacity="1" fill-rule="evenodd"/><path fill="#4d4d4d" d="M 106.46875 10.144531 L 106.46875 20.289062 L 86.210938 20.289062 L 86.210938 9.976562 L 106.46875 9.976562 Z M 106.136719 19.957031 L 106.136719 10.308594 L 86.542969 10.308594 L 86.542969 19.957031 L 106.136719 19.957031 " fill-opacity="1" fill-rule="evenodd"/><path fill="#4d4d4d" d="M 136.363281 10.144531 L 136.363281 20.289062 L 126.066406 20.289062 L 126.066406 9.976562 L 136.363281 9.976562 Z M 136.03125 19.957031 L 136.03125 10.308594 L 126.398438 10.308594 L 126.398438 19.957031 L 136.03125 19.957031 " fill-opacity="1" fill-rule="evenodd"/><path fill="#4d4d4d" d="M 126.398438 20.121094 L 126.398438 30.265625 L 106.136719 30.265625 L 106.136719 19.957031 L 126.398438 19.957031 Z M 126.066406 29.933594 L 126.066406 20.289062 L 106.46875 20.289062 L 106.46875 29.933594 L 126.066406 29.933594 " fill-opacity="1" fill-rule="evenodd"/><path fill="#4d4d4d" d="M 116.433594 40.078125 L 116.433594 50.222656 L 106.136719 50.222656 L 106.136719 39.910156 L 116.433594 39.910156 Z M 116.101562 49.890625 L 116.101562 40.246094 L 106.46875 40.246094 L 106.46875 49.890625 L 116.101562 49.890625 " fill-opacity="1" fill-rule="evenodd"/><path fill="#4d4d4d" d="M 96.507812 40.078125 L 96.507812 50.222656 L 86.210938 50.222656 L 86.210938 39.910156 L 96.507812 39.910156 Z M 96.175781 49.890625 L 96.175781 40.246094 L 86.542969 40.246094 L 86.542969 49.890625 L 96.175781 49.890625 " fill-opacity="1" fill-rule="evenodd"/><path fill="#4d4d4d" d="M 86.542969 50.054688 L 86.542969 60.199219 L 76.246094 60.199219 L 76.246094 49.890625 L 86.542969 49.890625 Z M 86.210938 59.867188 L 86.210938 50.222656 L 76.578125 50.222656 L 76.578125 59.867188 L 86.210938 59.867188 " fill-opacity="1" fill-rule="evenodd"/><path fill="#4d4d4d" d="M 106.46875 60.03125 L 106.46875 70.175781 L 86.210938 70.175781 L 86.210938 59.867188 L 106.46875 59.867188 Z M 106.136719 69.84375 L 106.136719 60.199219 L 86.542969 60.199219 L 86.542969 69.84375 L 106.136719 69.84375 " fill-opacity="1" fill-rule="evenodd"/><path fill="#4d4d4d" d="M 66.445312 59.867188 L 76.578125 59.867188 L 76.578125 80.15625 L 66.28125 80.15625 L 66.28125 59.867188 Z M 76.246094 60.199219 L 66.613281 60.199219 L 66.613281 79.820312 L 76.246094 79.820312 L 76.246094 60.199219 " fill-opacity="1" fill-rule="evenodd"/><path fill="#4d4d4d" d="M 76.578125 0.164062 L 76.578125 10.308594 L 66.28125 10.308594 L 66.28125 0 L 76.578125 0 Z M 76.246094 9.976562 L 76.246094 0.332031 L 66.613281 0.332031 L 66.613281 9.976562 L 76.246094 9.976562 " fill-opacity="1" fill-rule="evenodd"/><path fill="#4d4d4d" d="M 66.613281 10.144531 L 66.613281 20.289062 L 56.316406 20.289062 L 56.316406 9.976562 L 66.613281 9.976562 Z M 66.28125 19.957031 L 66.28125 10.308594 L 56.648438 10.308594 L 56.648438 19.957031 L 66.28125 19.957031 " fill-opacity="1" fill-rule="evenodd"/><path fill="#4d4d4d" d="M 56.648438 20.121094 L 56.648438 30.265625 L 36.386719 30.265625 L 36.386719 19.957031 L 56.648438 19.957031 Z M 56.316406 29.933594 L 56.316406 20.289062 L 36.71875 20.289062 L 36.71875 29.933594 L 56.316406 29.933594 " fill-opacity="1" fill-rule="evenodd"/><path fill="#4d4d4d" d="M 56.484375 29.933594 L 66.613281 29.933594 L 66.613281 50.222656 L 56.316406 50.222656 L 56.316406 29.933594 Z M 66.28125 30.265625 L 56.648438 30.265625 L 56.648438 49.890625 L 66.28125 49.890625 L 66.28125 30.265625 " fill-opacity="1" fill-rule="evenodd"/><path fill="#4d4d4d" d="M 56.648438 50.054688 L 56.648438 60.199219 L 46.351562 60.199219 L 46.351562 49.890625 L 56.648438 49.890625 Z M 56.316406 59.867188 L 56.316406 50.222656 L 46.683594 50.222656 L 46.683594 59.867188 L 56.316406 59.867188 " fill-opacity="1" fill-rule="evenodd"/><path fill="#4d4d4d" d="M 46.683594 40.078125 L 46.683594 50.222656 L 26.425781 50.222656 L 26.425781 39.910156 L 46.683594 39.910156 Z M 46.351562 49.890625 L 46.351562 40.246094 L 26.753906 40.246094 L 26.753906 49.890625 L 46.351562 49.890625 " fill-opacity="1" fill-rule="evenodd"/><path fill="#4d4d4d" d="M 36.71875 60.03125 L 36.71875 70.175781 L 26.425781 70.175781 L 26.425781 59.867188 L 36.71875 59.867188 Z M 36.386719 69.84375 L 36.386719 60.199219 L 26.753906 60.199219 L 26.753906 69.84375 L 36.386719 69.84375 " fill-opacity="1" fill-rule="evenodd"/><path fill="#4d4d4d" d="M 36.71875 10.144531 L 36.71875 20.289062 L 26.425781 20.289062 L 26.425781 9.976562 L 36.71875 9.976562 Z M 36.386719 19.957031 L 36.386719 10.308594 L 26.753906 10.308594 L 26.753906 19.957031 L 36.386719 19.957031 " fill-opacity="1" fill-rule="evenodd"/><path fill="#4d4d4d" d="M 26.753906 20.121094 L 26.753906 30.265625 L 16.460938 30.265625 L 16.460938 19.957031 L 26.753906 19.957031 Z M 26.425781 29.933594 L 26.425781 20.289062 L 16.792969 20.289062 L 16.792969 29.933594 L 26.425781 29.933594 " fill-opacity="1" fill-rule="evenodd"/><g clip-path="url(#7425471890)"><path fill="#4d4d4d" d="M 16.792969 0.164062 L 16.792969 10.308594 L 6.496094 10.308594 L 6.496094 0 L 16.792969 0 Z M 16.460938 9.976562 L 16.460938 0.332031 L 6.828125 0.332031 L 6.828125 9.976562 L 16.460938 9.976562 " fill-opacity="1" fill-rule="evenodd"/></g><path fill="#4d4d4d" d="M 36.554688 89.800781 L 46.683594 89.800781 L 46.683594 110.089844 L 36.386719 110.089844 L 36.386719 89.800781 Z M 46.351562 90.132812 L 36.71875 90.132812 L 36.71875 109.753906 L 46.351562 109.753906 L 46.351562 90.132812 " fill-opacity="1" fill-rule="evenodd"/><path fill="#4d4d4d" d="M 86.542969 99.945312 L 86.542969 110.089844 L 66.28125 110.089844 L 66.28125 99.777344 L 86.542969 99.777344 Z M 86.210938 109.753906 L 86.210938 100.109375 L 66.613281 100.109375 L 66.613281 109.753906 L 86.210938 109.753906 " fill-opacity="1" fill-rule="evenodd"/><path fill="#4d4d4d" d="M 36.71875 129.878906 L 36.71875 140.023438 L 26.425781 140.023438 L 26.425781 129.710938 L 36.71875 129.710938 Z M 36.386719 139.691406 L 36.386719 130.042969 L 26.753906 130.042969 L 26.753906 139.691406 L 36.386719 139.691406 " fill-opacity="1" fill-rule="evenodd"/><path fill="#4d4d4d" d="M 66.613281 109.921875 L 66.613281 120.066406 L 56.316406 120.066406 L 56.316406 109.753906 L 66.613281 109.753906 Z M 66.28125 119.734375 L 66.28125 110.089844 L 56.648438 110.089844 L 56.648438 119.734375 L 66.28125 119.734375 " fill-opacity="1" fill-rule="evenodd"/><path fill="#4d4d4d" d="M 46.519531 119.734375 L 56.648438 119.734375 L 56.648438 140.023438 L 46.351562 140.023438 L 46.351562 119.734375 Z M 56.316406 120.066406 L 46.683594 120.066406 L 46.683594 139.691406 L 56.316406 139.691406 L 56.316406 120.066406 " fill-opacity="1" fill-rule="evenodd"/><path fill="#4d4d4d" d="M 36.71875 109.921875 L 36.71875 120.066406 L 26.425781 120.066406 L 26.425781 109.753906 L 36.71875 109.753906 Z M 36.386719 119.734375 L 36.386719 110.089844 L 26.753906 110.089844 L 26.753906 119.734375 L 36.386719 119.734375 " fill-opacity="1" fill-rule="evenodd"/><g clip-path="url(#190431924e)"><path fill="#4d4d4d" d="M 26.753906 139.855469 L 26.753906 150 L 6.496094 150 L 6.496094 139.691406 L 26.753906 139.691406 Z M 26.425781 149.667969 L 26.425781 140.023438 L 6.828125 140.023438 L 6.828125 149.667969 L 26.425781 149.667969 " fill-opacity="1" fill-rule="evenodd"/></g><path fill="#4d4d4d" d="M 86.542969 119.898438 L 86.542969 130.042969 L 76.246094 130.042969 L 76.246094 119.734375 L 86.542969 119.734375 Z M 86.210938 129.710938 L 86.210938 120.066406 L 76.578125 120.066406 L 76.578125 129.710938 L 86.210938 129.710938 " fill-opacity="1" fill-rule="evenodd"/><path fill="#4d4d4d" d="M 76.578125 129.878906 L 76.578125 140.023438 L 66.28125 140.023438 L 66.28125 129.710938 L 76.578125 129.710938 Z M 76.246094 139.691406 L 76.246094 130.042969 L 66.613281 130.042969 L 66.613281 139.691406 L 76.246094 139.691406 " fill-opacity="1" fill-rule="evenodd"/><path fill="#4d4d4d" d="M 96.507812 139.855469 L 96.507812 150 L 86.210938 150 L 86.210938 139.691406 L 96.507812 139.691406 Z M 96.175781 149.667969 L 96.175781 140.023438 L 86.542969 140.023438 L 86.542969 149.667969 L 96.175781 149.667969 " fill-opacity="1" fill-rule="evenodd"/><path fill="#4d4d4d" d="M 66.613281 79.988281 L 66.613281 90.132812 L 56.316406 90.132812 L 56.316406 79.820312 L 66.613281 79.820312 Z M 66.28125 89.800781 L 66.28125 80.15625 L 56.648438 80.15625 L 56.648438 89.800781 L 66.28125 89.800781 " fill-opacity="1" fill-rule="evenodd"/><path fill="#4d4d4d" d="M 56.648438 70.011719 L 56.648438 80.15625 L 46.351562 80.15625 L 46.351562 69.84375 L 56.648438 69.84375 Z M 56.316406 79.820312 L 56.316406 70.175781 L 46.683594 70.175781 L 46.683594 79.820312 L 56.316406 79.820312 " fill-opacity="1" fill-rule="evenodd"/><path fill="#4d4d4d" d="M 54.355469 2.460938 L 54.355469 8.011719 L 48.648438 8.011719 L 48.648438 2.296875 L 54.355469 2.296875 Z M 54.023438 7.683594 L 54.023438 2.628906 L 48.976562 2.628906 L 48.976562 7.683594 L 54.023438 7.683594 " fill-opacity="1" fill-rule="evenodd"/><path fill="#4d4d4d" d="M 23.339844 13.5625 L 23.339844 16.871094 L 19.875 16.871094 L 19.875 13.398438 L 23.339844 13.398438 Z M 23.011719 16.539062 L 23.011719 13.730469 L 20.207031 13.730469 L 20.207031 16.539062 L 23.011719 16.539062 " fill-opacity="1" fill-rule="evenodd"/><path fill="#4d4d4d" d="M 73.542969 23.160156 L 73.542969 27.230469 L 69.3125 27.230469 L 69.3125 22.992188 L 73.542969 22.992188 Z M 73.210938 26.894531 L 73.210938 23.328125 L 69.644531 23.328125 L 69.644531 26.894531 L 73.210938 26.894531 " fill-opacity="1" fill-rule="evenodd"/><path fill="#4d4d4d" d="M 53.113281 33.640625 L 53.113281 36.703125 L 49.886719 36.703125 L 49.886719 33.472656 L 53.113281 33.472656 Z M 52.78125 36.371094 L 52.78125 33.808594 L 50.222656 33.808594 L 50.222656 36.371094 L 52.78125 36.371094 " fill-opacity="1" fill-rule="evenodd"/><path fill="#4d4d4d" d="M 103.277344 3.363281 L 103.277344 7.113281 L 99.367188 7.113281 L 99.367188 3.199219 L 103.277344 3.199219 Z M 102.945312 6.78125 L 102.945312 3.53125 L 99.699219 3.53125 L 99.699219 6.78125 L 102.945312 6.78125 " fill-opacity="1" fill-rule="evenodd"/><path fill="#4d4d4d" d="M 103.714844 32.855469 L 103.714844 37.484375 L 98.925781 37.484375 L 98.925781 32.691406 L 103.714844 32.691406 Z M 103.382812 37.152344 L 103.382812 33.023438 L 99.261719 33.023438 L 99.261719 37.152344 L 103.382812 37.152344 " fill-opacity="1" fill-rule="evenodd"/><g clip-path="url(#ebf42e47cd)"><path fill="#4d4d4d" d="M 143.703125 2.796875 L 143.703125 7.683594 L 138.65625 7.683594 L 138.65625 2.628906 L 143.703125 2.628906 Z M 143.367188 7.347656 L 143.367188 2.960938 L 138.988281 2.960938 L 138.988281 7.347656 L 143.367188 7.347656 " fill-opacity="1" fill-rule="evenodd"/></g><path fill="#4d4d4d" d="M 122.902344 53.554688 L 122.902344 56.699219 L 119.597656 56.699219 L 119.597656 53.390625 L 122.902344 53.390625 Z M 122.570312 56.367188 L 122.570312 53.722656 L 119.929688 53.722656 L 119.929688 56.367188 L 122.570312 56.367188 " fill-opacity="1" fill-rule="evenodd"/><path fill="#4d4d4d" d="M 84.601562 81.929688 L 84.601562 88.191406 L 78.1875 88.191406 L 78.1875 81.765625 L 84.601562 81.765625 Z M 84.269531 87.859375 L 84.269531 82.097656 L 78.515625 82.097656 L 78.515625 87.859375 L 84.269531 87.859375 " fill-opacity="1" fill-rule="evenodd"/><path fill="#4d4d4d" d="M 92.914062 73.609375 L 92.914062 76.558594 L 89.800781 76.558594 L 89.800781 73.441406 L 92.914062 73.441406 Z M 92.582031 76.226562 L 92.582031 73.773438 L 90.132812 73.773438 L 90.132812 76.226562 L 92.582031 76.226562 " fill-opacity="1" fill-rule="evenodd"/><path fill="#4d4d4d" d="M 53.1875 103.410156 L 53.1875 106.621094 L 49.816406 106.621094 L 49.816406 103.246094 L 53.1875 103.246094 Z M 52.855469 106.289062 L 52.855469 103.578125 L 50.148438 103.578125 L 50.148438 106.289062 L 52.855469 106.289062 " fill-opacity="1" fill-rule="evenodd"/><path fill="#4d4d4d" d="M 92.660156 113.777344 L 92.660156 116.210938 L 90.058594 116.210938 L 90.058594 113.609375 L 92.660156 113.609375 Z M 92.324219 115.878906 L 92.324219 113.941406 L 90.390625 113.941406 L 90.390625 115.878906 L 92.324219 115.878906 " fill-opacity="1" fill-rule="evenodd"/><path fill="#4d4d4d" d="M 103.789062 132.5625 L 103.789062 137.335938 L 98.855469 137.335938 L 98.855469 132.394531 L 103.789062 132.394531 Z M 103.457031 137.007812 L 103.457031 132.730469 L 99.1875 132.730469 L 99.1875 137.007812 L 103.457031 137.007812 " fill-opacity="1" fill-rule="evenodd"/><path fill="#4d4d4d" d="M 63.917969 142.558594 L 63.917969 147.296875 L 59.015625 147.296875 L 59.015625 142.390625 L 63.917969 142.390625 Z M 63.582031 146.964844 L 63.582031 142.722656 L 59.347656 142.722656 L 59.347656 146.964844 L 63.582031 146.964844 " fill-opacity="1" fill-rule="evenodd"/><path fill="#4d4d4d" d="M 82.890625 143.511719 L 82.890625 146.347656 L 79.894531 146.347656 L 79.894531 143.34375 L 82.890625 143.34375 Z M 82.558594 146.011719 L 82.558594 143.675781 L 80.226562 143.675781 L 80.226562 146.011719 L 82.558594 146.011719 " fill-opacity="1" fill-rule="evenodd"/><path fill="#4d4d4d" d="M 43.078125 143.464844 L 43.078125 146.390625 L 39.992188 146.390625 L 39.992188 143.300781 L 43.078125 143.300781 Z M 42.746094 146.054688 L 42.746094 143.632812 L 40.324219 143.632812 L 40.324219 146.054688 L 42.746094 146.054688 " fill-opacity="1" fill-rule="evenodd"/><path fill="#4d4d4d" d="M 72.703125 123.78125 L 72.703125 126.164062 L 70.15625 126.164062 L 70.15625 123.613281 L 72.703125 123.613281 Z M 72.371094 125.832031 L 72.371094 123.945312 L 70.488281 123.945312 L 70.488281 125.832031 L 72.371094 125.832031 " fill-opacity="1" fill-rule="evenodd"/><path fill="#4d4d4d" d="M 24.257812 122.402344 L 24.257812 127.542969 L 18.957031 127.542969 L 18.957031 122.234375 L 24.257812 122.234375 Z M 23.925781 127.210938 L 23.925781 122.566406 L 19.289062 122.566406 L 19.289062 127.210938 L 23.925781 127.210938 " fill-opacity="1" fill-rule="evenodd"/></svg>