<svg xmlns="http://www.w3.org/2000/svg" xmlns:xlink="http://www.w3.org/1999/xlink" width="300" zoomAndPan="magnify" viewBox="0 0 224.87999 225" height="300" preserveAspectRatio="xMidYMid meet" version="1.0"><defs><filter x="0%" y="0%" width="100%" height="100%" id="153a014e52"><feColorMatrix values="0 0 0 0 1 0 0 0 0 1 0 0 0 0 1 0 0 0 1 0" color-interpolation-filters="sRGB"/></filter><mask id="957f8cc0f2"><g filter="url(#153a014e52)"><rect x="-22.487999" width="269.855988" fill="#000000" y="-22.5" height="270" fill-opacity="0.8392"/></g></mask><clipPath id="29d2a27216"><path d="M 0.34375 0.40625 L 158.210938 0.40625 L 158.210938 158.269531 L 0.34375 158.269531 Z M 0.34375 0.40625 " clip-rule="nonzero"/></clipPath><clipPath id="9dae085e06"><rect x="0" width="159" y="0" height="159"/></clipPath><mask id="aad83c9123"><g filter="url(#153a014e52)"><rect x="-22.487999" width="269.855988" fill="#000000" y="-22.5" height="270" fill-opacity="0.3373"/></g></mask><clipPath id="f4ea96c12c"><path d="M 70.132812 133 L 75.640625 133 L 75.640625 138.316406 L 70.132812 138.316406 Z M 70.132812 133 " clip-rule="nonzero"/></clipPath><clipPath id="00799ce0f4"><path d="M 62 133 L 68 133 L 68 138.324219 L 62 138.324219 Z M 62 133 " clip-rule="nonzero"/></clipPath><clipPath id="22486caa5b"><path d="M 0.523438 69 L 4 69 L 4 74 L 0.523438 74 Z M 0.523438 69 " clip-rule="nonzero"/></clipPath><clipPath id="faba2bfda0"><path d="M 0.523438 62 L 5 62 L 5 66 L 0.523438 66 Z M 0.523438 62 " clip-rule="nonzero"/></clipPath><clipPath id="2588bfe8c8"><path d="M 66 0.609375 L 68 0.609375 L 68 3 L 66 3 Z M 66 0.609375 " clip-rule="nonzero"/></clipPath><clipPath id="b577ed68ba"><path d="M 74 0.609375 L 76 0.609375 L 76 3 L 74 3 Z M 74 0.609375 " clip-rule="nonzero"/></clipPath><clipPath id="4495495281"><path d="M 132 44 L 132.359375 44 L 132.359375 45 L 132 45 Z M 132 44 " clip-rule="nonzero"/></clipPath><clipPath id="0d39ff56c4"><rect x="0" width="133" y="0" height="139"/></clipPath></defs><g mask="url(#957f8cc0f2)"><g transform="matrix(1, 0, 0, 1, 33, 33)"><g clip-path="url(#9dae085e06)"><g clip-path="url(#29d2a27216)"><path fill="#1b75bb" d="M 14.152344 121.226562 C 15.460938 123.285156 16.921875 125.304688 18.417969 127.214844 L 17.257812 128.148438 C 15.722656 126.203125 14.226562 124.144531 12.878906 122.050781 Z M 1.84375 79.394531 L 0.34375 79.394531 C 0.34375 81.902344 0.457031 84.410156 0.71875 86.878906 L 2.214844 86.726562 C 1.953125 84.332031 1.84375 81.828125 1.84375 79.394531 Z M 1.765625 94.324219 C 2.253906 96.757812 2.851562 99.226562 3.527344 101.621094 L 4.949219 101.210938 C 4.273438 98.851562 3.675781 96.457031 3.226562 94.0625 Z M 33.535156 143.640625 C 35.554688 145.101562 37.6875 146.445312 39.859375 147.71875 L 40.605469 146.410156 C 38.472656 145.175781 36.417969 143.828125 34.394531 142.445312 Z M 46.519531 151.125 C 48.800781 152.171875 51.121094 153.109375 53.480469 153.929688 L 53.964844 152.507812 C 51.644531 151.722656 49.363281 150.789062 47.117188 149.777344 Z M 60.738281 156.027344 C 63.171875 156.625 65.640625 157.074219 68.109375 157.449219 L 68.332031 155.953125 C 65.902344 155.613281 63.46875 155.128906 61.113281 154.566406 Z M 23.28125 132.789062 L 22.199219 133.835938 C 23.917969 135.632812 25.753906 137.390625 27.625 139 L 28.597656 137.878906 C 26.761719 136.269531 24.964844 134.546875 23.28125 132.789062 Z M 60.886719 4.035156 L 60.550781 2.574219 C 58.117188 3.175781 55.6875 3.886719 53.328125 4.707031 L 53.816406 6.128906 C 56.136719 5.34375 58.53125 4.632812 60.886719 4.035156 Z M 67.921875 1.191406 L 68.148438 2.6875 C 70.578125 2.351562 73.046875 2.089844 75.480469 1.976562 L 75.40625 0.480469 C 72.898438 0.59375 70.390625 0.816406 67.921875 1.191406 Z M 47.003906 8.898438 L 46.371094 7.550781 C 44.085938 8.601562 41.878906 9.761719 39.710938 10.996094 L 40.457031 12.304688 C 42.589844 11.03125 44.761719 9.910156 47.003906 8.898438 Z M 157.835938 71.613281 C 157.613281 69.140625 157.238281 66.636719 156.75 64.164062 L 155.292969 64.464844 C 155.742188 66.859375 156.117188 69.328125 156.339844 71.761719 Z M 3.226562 64.726562 L 1.765625 64.464844 C 1.320312 66.898438 0.945312 69.402344 0.71875 71.910156 L 2.214844 72.0625 C 2.402344 69.589844 2.742188 67.121094 3.226562 64.726562 Z M 34.285156 16.269531 L 33.421875 15.035156 C 31.402344 16.496094 29.417969 18.066406 27.511719 19.675781 L 28.484375 20.796875 C 30.316406 19.226562 32.261719 17.691406 34.285156 16.269531 Z M 7.34375 50.621094 L 5.957031 50.058594 C 5.023438 52.378906 4.199219 54.773438 3.527344 57.167969 L 4.949219 57.578125 C 5.621094 55.222656 6.40625 52.867188 7.34375 50.621094 Z M 23.171875 25.925781 L 22.085938 24.875 C 20.363281 26.671875 18.71875 28.582031 17.183594 30.5625 L 18.34375 31.5 C 19.839844 29.589844 21.488281 27.71875 23.171875 25.925781 Z M 14.078125 37.523438 L 12.804688 36.699219 C 11.457031 38.796875 10.1875 41.003906 9.0625 43.210938 L 10.410156 43.886719 C 11.496094 41.714844 12.730469 39.582031 14.078125 37.523438 Z M 5.996094 108.730469 C 6.929688 111.050781 7.980469 113.332031 9.140625 115.539062 L 10.484375 114.867188 C 9.363281 112.695312 8.316406 110.453125 7.417969 108.167969 Z M 130 137.804688 L 130.972656 138.925781 C 132.84375 137.28125 134.675781 135.558594 136.398438 133.726562 L 135.3125 132.675781 C 133.664062 134.472656 131.867188 136.195312 130 137.804688 Z M 145.601562 36.476562 L 144.328125 37.300781 C 145.675781 39.359375 146.910156 41.492188 148.035156 43.660156 L 149.378906 42.988281 C 148.21875 40.78125 146.949219 38.570312 145.601562 36.476562 Z M 136.285156 24.726562 L 135.199219 25.773438 C 136.882812 27.535156 138.53125 29.40625 140.027344 31.351562 L 141.1875 30.414062 C 139.6875 28.429688 138.042969 26.523438 136.285156 24.726562 Z M 148.144531 114.753906 L 149.492188 115.429688 C 150.652344 113.21875 151.699219 110.898438 152.597656 108.582031 L 151.214844 108.019531 C 150.277344 110.339844 149.269531 112.585938 148.144531 114.753906 Z M 140.175781 127.140625 L 141.335938 128.074219 C 142.871094 126.128906 144.328125 124.070312 145.714844 121.976562 L 144.441406 121.152344 C 143.132812 123.210938 141.671875 125.230469 140.175781 127.140625 Z M 156.714844 79.132812 L 156.714844 79.320312 C 156.714844 81.789062 156.601562 84.257812 156.378906 86.691406 L 157.875 86.839844 C 158.097656 84.371094 158.210938 81.828125 158.210938 79.355469 L 158.210938 79.171875 L 156.714844 79.171875 Z M 153.609375 101.097656 L 155.03125 101.507812 C 155.742188 99.113281 156.339844 96.644531 156.789062 94.210938 L 155.328125 93.914062 C 154.882812 96.34375 154.28125 98.777344 153.609375 101.097656 Z M 152.523438 49.796875 L 151.140625 50.359375 C 152.039062 52.640625 152.859375 54.960938 153.570312 57.316406 L 154.992188 56.90625 C 154.28125 54.511719 153.460938 52.117188 152.523438 49.796875 Z M 75.628906 156.664062 L 75.554688 158.160156 C 76.789062 158.234375 78.023438 158.234375 79.257812 158.234375 C 80.53125 158.234375 81.804688 158.195312 83.078125 158.160156 L 83 156.664062 C 80.570312 156.773438 78.101562 156.773438 75.628906 156.664062 Z M 97.742188 2.539062 L 97.40625 3.996094 C 99.800781 4.558594 102.160156 5.269531 104.480469 6.054688 L 104.964844 4.632812 C 102.609375 3.8125 100.175781 3.101562 97.742188 2.539062 Z M 90.335938 155.953125 L 90.558594 157.449219 C 93.03125 157.109375 95.5 156.625 97.929688 156.027344 L 97.59375 154.566406 C 95.199219 155.128906 92.765625 155.613281 90.335938 155.953125 Z M 124.945312 14.886719 L 124.085938 16.121094 C 126.070312 17.542969 128.015625 19.078125 129.886719 20.6875 L 130.859375 19.5625 C 128.949219 17.917969 126.96875 16.34375 124.945312 14.886719 Z M 82.890625 0.441406 L 82.8125 1.941406 C 85.246094 2.050781 87.714844 2.277344 90.148438 2.613281 L 90.371094 1.117188 C 87.902344 0.78125 85.394531 0.554688 82.890625 0.441406 Z M 118.023438 146.371094 L 118.773438 147.683594 C 120.941406 146.445312 123.039062 145.0625 125.097656 143.601562 L 124.234375 142.367188 C 122.214844 143.789062 120.15625 145.136719 118.023438 146.371094 Z M 104.628906 152.472656 L 105.117188 153.894531 C 107.472656 153.070312 109.828125 152.132812 112.074219 151.085938 L 111.476562 149.738281 C 109.269531 150.75 106.949219 151.6875 104.628906 152.472656 Z M 111.925781 7.402344 L 111.289062 8.75 C 113.496094 9.761719 115.703125 10.882812 117.835938 12.117188 L 118.585938 10.808594 C 116.453125 9.609375 114.207031 8.449219 111.925781 7.402344 Z M 111.925781 7.402344 " fill-opacity="1" fill-rule="nonzero"/></g></g></g></g><g mask="url(#aad83c9123)"><g transform="matrix(1, 0, 0, 1, 46, 43)"><g clip-path="url(#0d39ff56c4)"><path fill="#26a9e0" d="M 72.804688 19.128906 C 73.441406 20.230469 73.0625 21.640625 71.960938 22.277344 C 70.859375 22.910156 69.449219 22.535156 68.8125 21.433594 C 68.175781 20.332031 68.554688 18.921875 69.65625 18.285156 C 70.757812 17.648438 72.167969 18.027344 72.804688 19.128906 " fill-opacity="1" fill-rule="nonzero"/><path fill="#26a9e0" d="M 78.179688 19.96875 C 78.804688 21.046875 78.433594 22.429688 77.355469 23.050781 C 76.277344 23.671875 74.894531 23.304688 74.273438 22.226562 C 73.648438 21.144531 74.019531 19.765625 75.097656 19.144531 C 76.175781 18.519531 77.558594 18.890625 78.179688 19.96875 " fill-opacity="1" fill-rule="nonzero"/><path fill="#26a9e0" d="M 83.429688 21.410156 C 84.042969 22.46875 83.679688 23.816406 82.625 24.425781 C 81.566406 25.035156 80.214844 24.675781 79.605469 23.621094 C 78.996094 22.5625 79.359375 21.214844 80.414062 20.605469 C 81.46875 19.996094 82.820312 20.355469 83.429688 21.410156 " fill-opacity="1" fill-rule="nonzero"/><path fill="#26a9e0" d="M 88.488281 23.4375 C 89.085938 24.46875 88.734375 25.789062 87.699219 26.386719 C 86.664062 26.984375 85.34375 26.628906 84.746094 25.597656 C 84.152344 24.5625 84.503906 23.242188 85.539062 22.648438 C 86.570312 22.050781 87.894531 22.40625 88.488281 23.4375 " fill-opacity="1" fill-rule="nonzero"/><path fill="#26a9e0" d="M 93.289062 26.023438 C 93.875 27.03125 93.527344 28.324219 92.519531 28.90625 C 91.507812 29.488281 90.214844 29.144531 89.632812 28.132812 C 89.046875 27.125 89.394531 25.832031 90.40625 25.25 C 91.414062 24.667969 92.707031 25.011719 93.289062 26.023438 " fill-opacity="1" fill-rule="nonzero"/><path fill="#26a9e0" d="M 97.773438 29.136719 C 98.34375 30.125 98.003906 31.386719 97.015625 31.957031 C 96.027344 32.527344 94.765625 32.1875 94.195312 31.203125 C 93.625 30.214844 93.964844 28.953125 94.953125 28.382812 C 95.9375 27.8125 97.203125 28.152344 97.773438 29.136719 " fill-opacity="1" fill-rule="nonzero"/><path fill="#26a9e0" d="M 101.871094 32.746094 C 102.429688 33.710938 102.097656 34.941406 101.132812 35.5 C 100.167969 36.054688 98.9375 35.726562 98.378906 34.761719 C 97.824219 33.796875 98.152344 32.5625 99.117188 32.007812 C 100.082031 31.449219 101.316406 31.78125 101.871094 32.746094 " fill-opacity="1" fill-rule="nonzero"/><path fill="#26a9e0" d="M 105.539062 36.800781 C 106.085938 37.738281 105.761719 38.945312 104.820312 39.488281 C 103.878906 40.03125 102.675781 39.707031 102.128906 38.765625 C 101.585938 37.824219 101.910156 36.621094 102.851562 36.078125 C 103.792969 35.535156 104.996094 35.859375 105.539062 36.800781 " fill-opacity="1" fill-rule="nonzero"/><path fill="#26a9e0" d="M 108.730469 41.246094 C 109.261719 42.164062 108.945312 43.339844 108.027344 43.867188 C 107.109375 44.398438 105.933594 44.082031 105.402344 43.164062 C 104.871094 42.246094 105.1875 41.074219 106.105469 40.542969 C 107.023438 40.011719 108.199219 40.328125 108.730469 41.246094 " fill-opacity="1" fill-rule="nonzero"/><path fill="#26a9e0" d="M 111.40625 46.023438 C 111.921875 46.921875 111.617188 48.066406 110.71875 48.582031 C 109.824219 49.097656 108.679688 48.792969 108.164062 47.898438 C 107.644531 47 107.953125 45.855469 108.847656 45.339844 C 109.742188 44.824219 110.886719 45.128906 111.40625 46.023438 " fill-opacity="1" fill-rule="nonzero"/><path fill="#26a9e0" d="M 113.535156 51.078125 C 114.039062 51.949219 113.738281 53.0625 112.867188 53.566406 C 111.992188 54.070312 110.878906 53.773438 110.375 52.898438 C 109.871094 52.027344 110.167969 50.914062 111.042969 50.410156 C 111.914062 49.90625 113.03125 50.203125 113.535156 51.078125 " fill-opacity="1" fill-rule="nonzero"/><path fill="#26a9e0" d="M 115.082031 56.339844 C 115.570312 57.191406 115.28125 58.277344 114.429688 58.765625 C 113.582031 59.257812 112.492188 58.964844 112.003906 58.117188 C 111.511719 57.269531 111.804688 56.183594 112.652344 55.691406 C 113.503906 55.199219 114.589844 55.492188 115.082031 56.339844 " fill-opacity="1" fill-rule="nonzero"/><path fill="#26a9e0" d="M 116.023438 61.753906 C 116.5 62.578125 116.214844 63.636719 115.390625 64.113281 C 114.5625 64.589844 113.503906 64.304688 113.027344 63.480469 C 112.550781 62.652344 112.832031 61.597656 113.660156 61.121094 C 114.488281 60.644531 115.542969 60.925781 116.023438 61.753906 " fill-opacity="1" fill-rule="nonzero"/><path fill="#26a9e0" d="M 116.347656 67.238281 C 116.808594 68.042969 116.535156 69.070312 115.730469 69.535156 C 114.925781 69.996094 113.898438 69.722656 113.433594 68.917969 C 112.972656 68.117188 113.246094 67.089844 114.050781 66.625 C 114.855469 66.160156 115.882812 66.4375 116.347656 67.238281 " fill-opacity="1" fill-rule="nonzero"/><path fill="#26a9e0" d="M 116.050781 72.734375 C 116.5 73.515625 116.234375 74.511719 115.453125 74.960938 C 114.671875 75.414062 113.675781 75.144531 113.222656 74.363281 C 112.773438 73.585938 113.039062 72.585938 113.820312 72.136719 C 114.601562 71.6875 115.601562 71.953125 116.050781 72.734375 " fill-opacity="1" fill-rule="nonzero"/><path fill="#26a9e0" d="M 115.144531 78.164062 C 115.582031 78.921875 115.320312 79.890625 114.5625 80.328125 C 113.804688 80.765625 112.835938 80.503906 112.398438 79.75 C 111.960938 78.992188 112.222656 78.023438 112.980469 77.585938 C 113.738281 77.148438 114.707031 77.40625 115.144531 78.164062 " fill-opacity="1" fill-rule="nonzero"/><path fill="#26a9e0" d="M 113.636719 83.464844 C 114.058594 84.199219 113.808594 85.136719 113.074219 85.5625 C 112.339844 85.988281 111.398438 85.734375 110.972656 85 C 110.550781 84.265625 110.800781 83.328125 111.535156 82.902344 C 112.269531 82.480469 113.210938 82.730469 113.636719 83.464844 " fill-opacity="1" fill-rule="nonzero"/><path fill="#26a9e0" d="M 111.546875 88.566406 C 111.957031 89.277344 111.710938 90.1875 111 90.597656 C 110.289062 91.011719 109.378906 90.765625 108.96875 90.054688 C 108.554688 89.34375 108.800781 88.433594 109.511719 88.023438 C 110.222656 87.613281 111.132812 87.855469 111.546875 88.566406 " fill-opacity="1" fill-rule="nonzero"/><path fill="#26a9e0" d="M 108.898438 93.40625 C 109.296875 94.097656 109.058594 94.976562 108.371094 95.375 C 107.679688 95.773438 106.800781 95.535156 106.402344 94.847656 C 106.003906 94.160156 106.242188 93.277344 106.929688 92.878906 C 107.617188 92.484375 108.5 92.71875 108.898438 93.40625 " fill-opacity="1" fill-rule="nonzero"/><path fill="#26a9e0" d="M 105.722656 97.921875 C 106.105469 98.589844 105.878906 99.441406 105.210938 99.824219 C 104.546875 100.207031 103.695312 99.980469 103.308594 99.316406 C 102.925781 98.648438 103.152344 97.796875 103.820312 97.414062 C 104.484375 97.03125 105.335938 97.257812 105.722656 97.921875 " fill-opacity="1" fill-rule="nonzero"/><path fill="#26a9e0" d="M 102.058594 102.054688 C 102.429688 102.699219 102.207031 103.519531 101.566406 103.890625 C 100.921875 104.261719 100.101562 104.039062 99.730469 103.398438 C 99.359375 102.753906 99.578125 101.933594 100.222656 101.5625 C 100.863281 101.191406 101.6875 101.410156 102.058594 102.054688 " fill-opacity="1" fill-rule="nonzero"/><path fill="#26a9e0" d="M 97.949219 105.75 C 98.308594 106.367188 98.09375 107.160156 97.476562 107.519531 C 96.855469 107.878906 96.0625 107.664062 95.703125 107.046875 C 95.347656 106.425781 95.558594 105.632812 96.179688 105.273438 C 96.800781 104.917969 97.59375 105.128906 97.949219 105.75 " fill-opacity="1" fill-rule="nonzero"/><path fill="#26a9e0" d="M 93.453125 108.960938 C 93.800781 109.558594 93.59375 110.320312 92.996094 110.667969 C 92.402344 111.011719 91.636719 110.804688 91.292969 110.210938 C 90.949219 109.613281 91.152344 108.851562 91.75 108.503906 C 92.347656 108.160156 93.109375 108.363281 93.453125 108.960938 " fill-opacity="1" fill-rule="nonzero"/><path fill="#26a9e0" d="M 88.632812 111.660156 C 88.960938 112.234375 88.765625 112.96875 88.191406 113.296875 C 87.617188 113.628906 86.882812 113.433594 86.550781 112.859375 C 86.21875 112.285156 86.417969 111.550781 86.992188 111.21875 C 87.566406 110.890625 88.300781 111.085938 88.632812 111.660156 " fill-opacity="1" fill-rule="nonzero"/><path fill="#26a9e0" d="M 83.539062 113.808594 C 83.859375 114.359375 83.667969 115.0625 83.117188 115.378906 C 82.566406 115.699219 81.863281 115.507812 81.542969 114.957031 C 81.226562 114.40625 81.414062 113.703125 81.964844 113.386719 C 82.515625 113.066406 83.222656 113.257812 83.539062 113.808594 " fill-opacity="1" fill-rule="nonzero"/><path fill="#26a9e0" d="M 78.238281 115.371094 C 78.542969 115.898438 78.363281 116.574219 77.835938 116.878906 C 77.308594 117.183594 76.632812 117.003906 76.328125 116.472656 C 76.023438 115.945312 76.203125 115.269531 76.730469 114.964844 C 77.257812 114.660156 77.933594 114.84375 78.238281 115.371094 " fill-opacity="1" fill-rule="nonzero"/><path fill="#26a9e0" d="M 72.800781 116.328125 C 73.089844 116.832031 72.917969 117.476562 72.414062 117.769531 C 71.90625 118.0625 71.261719 117.886719 70.96875 117.382812 C 70.679688 116.878906 70.851562 116.234375 71.355469 115.941406 C 71.863281 115.648438 72.507812 115.824219 72.800781 116.328125 " fill-opacity="1" fill-rule="nonzero"/><path fill="#26a9e0" d="M 67.289062 116.667969 C 67.566406 117.148438 67.402344 117.765625 66.917969 118.042969 C 66.4375 118.324219 65.820312 118.15625 65.542969 117.675781 C 65.265625 117.195312 65.429688 116.578125 65.910156 116.296875 C 66.394531 116.019531 67.011719 116.183594 67.289062 116.667969 " fill-opacity="1" fill-rule="nonzero"/><path fill="#26a9e0" d="M 61.777344 116.390625 C 62.042969 116.847656 61.882812 117.433594 61.425781 117.699219 C 60.964844 117.964844 60.378906 117.808594 60.113281 117.347656 C 59.847656 116.890625 60.003906 116.304688 60.464844 116.039062 C 60.921875 115.773438 61.511719 115.929688 61.777344 116.390625 " fill-opacity="1" fill-rule="nonzero"/><path fill="#26a9e0" d="M 56.332031 115.5 C 56.585938 115.933594 56.433594 116.492188 56 116.746094 C 55.5625 116.996094 55.003906 116.847656 54.753906 116.410156 C 54.5 115.976562 54.648438 115.417969 55.085938 115.164062 C 55.523438 114.914062 56.082031 115.0625 56.332031 115.5 " fill-opacity="1" fill-rule="nonzero"/><path fill="#26a9e0" d="M 51.027344 114.011719 C 51.265625 114.421875 51.121094 114.953125 50.707031 115.191406 C 50.296875 115.429688 49.765625 115.289062 49.527344 114.875 C 49.289062 114.460938 49.429688 113.933594 49.84375 113.695312 C 50.257812 113.457031 50.785156 113.597656 51.027344 114.011719 " fill-opacity="1" fill-rule="nonzero"/><path fill="#26a9e0" d="M 45.921875 111.941406 C 46.148438 112.332031 46.011719 112.832031 45.621094 113.054688 C 45.230469 113.28125 44.734375 113.148438 44.507812 112.757812 C 44.28125 112.367188 44.414062 111.867188 44.804688 111.644531 C 45.195312 111.417969 45.695312 111.550781 45.921875 111.941406 " fill-opacity="1" fill-rule="nonzero"/><path fill="#26a9e0" d="M 41.085938 109.316406 C 41.296875 109.683594 41.171875 110.152344 40.800781 110.367188 C 40.433594 110.578125 39.964844 110.453125 39.753906 110.085938 C 39.542969 109.71875 39.667969 109.25 40.035156 109.035156 C 40.402344 108.824219 40.871094 108.949219 41.085938 109.316406 " fill-opacity="1" fill-rule="nonzero"/><path fill="#26a9e0" d="M 36.578125 106.167969 C 36.777344 106.511719 36.65625 106.953125 36.3125 107.152344 C 35.96875 107.351562 35.527344 107.234375 35.328125 106.890625 C 35.128906 106.542969 35.25 106.105469 35.59375 105.90625 C 35.9375 105.707031 36.378906 105.824219 36.578125 106.167969 " fill-opacity="1" fill-rule="nonzero"/><path fill="#26a9e0" d="M 32.457031 102.535156 C 32.644531 102.855469 32.535156 103.265625 32.210938 103.453125 C 31.890625 103.636719 31.480469 103.527344 31.292969 103.207031 C 31.109375 102.886719 31.21875 102.472656 31.539062 102.289062 C 31.863281 102.101562 32.273438 102.214844 32.457031 102.535156 " fill-opacity="1" fill-rule="nonzero"/><path fill="#26a9e0" d="M 28.78125 98.460938 C 28.953125 98.761719 28.851562 99.140625 28.550781 99.3125 C 28.253906 99.484375 27.871094 99.382812 27.699219 99.085938 C 27.527344 98.789062 27.628906 98.40625 27.929688 98.234375 C 28.226562 98.0625 28.609375 98.164062 28.78125 98.460938 " fill-opacity="1" fill-rule="nonzero"/><path fill="#26a9e0" d="M 25.589844 94.003906 C 25.75 94.28125 25.652344 94.632812 25.378906 94.792969 C 25.101562 94.953125 24.75 94.855469 24.589844 94.582031 C 24.433594 94.304688 24.527344 93.953125 24.800781 93.792969 C 25.078125 93.636719 25.429688 93.730469 25.589844 94.003906 " fill-opacity="1" fill-rule="nonzero"/><path fill="#26a9e0" d="M 22.914062 89.226562 C 23.0625 89.480469 22.972656 89.800781 22.722656 89.949219 C 22.46875 90.09375 22.144531 90.007812 22 89.753906 C 21.855469 89.503906 21.941406 89.179688 22.195312 89.035156 C 22.445312 88.886719 22.769531 88.976562 22.914062 89.226562 " fill-opacity="1" fill-rule="nonzero"/><path fill="#26a9e0" d="M 20.792969 84.183594 C 20.925781 84.414062 20.847656 84.707031 20.617188 84.839844 C 20.390625 84.972656 20.09375 84.894531 19.964844 84.664062 C 19.828125 84.433594 19.910156 84.140625 20.136719 84.007812 C 20.367188 83.875 20.660156 83.957031 20.792969 84.183594 " fill-opacity="1" fill-rule="nonzero"/><path fill="#26a9e0" d="M 19.261719 78.941406 C 19.378906 79.148438 19.308594 79.410156 19.101562 79.53125 C 18.894531 79.648438 18.632812 79.578125 18.511719 79.371094 C 18.390625 79.164062 18.464844 78.902344 18.671875 78.78125 C 18.875 78.664062 19.140625 78.734375 19.261719 78.941406 " fill-opacity="1" fill-rule="nonzero"/><path fill="#26a9e0" d="M 18.335938 73.558594 C 18.441406 73.742188 18.378906 73.976562 18.195312 74.085938 C 18.007812 74.191406 17.773438 74.128906 17.667969 73.945312 C 17.5625 73.761719 17.625 73.527344 17.808594 73.417969 C 17.992188 73.3125 18.226562 73.375 18.335938 73.558594 " fill-opacity="1" fill-rule="nonzero"/><path fill="#26a9e0" d="M 18.027344 68.113281 C 18.117188 68.273438 18.0625 68.480469 17.902344 68.574219 C 17.742188 68.667969 17.535156 68.613281 17.445312 68.449219 C 17.351562 68.289062 17.40625 68.085938 17.566406 67.992188 C 17.726562 67.898438 17.933594 67.953125 18.027344 68.113281 " fill-opacity="1" fill-rule="nonzero"/><path fill="#26a9e0" d="M 18.335938 62.675781 C 18.417969 62.8125 18.367188 62.988281 18.230469 63.066406 C 18.09375 63.148438 17.917969 63.101562 17.835938 62.960938 C 17.757812 62.824219 17.804688 62.648438 17.941406 62.570312 C 18.082031 62.488281 18.257812 62.535156 18.335938 62.675781 " fill-opacity="1" fill-rule="nonzero"/><path fill="#26a9e0" d="M 19.257812 57.308594 C 19.324219 57.421875 19.285156 57.570312 19.171875 57.636719 C 19.054688 57.703125 18.910156 57.664062 18.84375 57.546875 C 18.777344 57.433594 18.816406 57.285156 18.929688 57.21875 C 19.046875 57.152344 19.191406 57.191406 19.257812 57.308594 " fill-opacity="1" fill-rule="nonzero"/><path fill="#26a9e0" d="M 20.777344 52.082031 C 20.832031 52.175781 20.796875 52.292969 20.707031 52.34375 C 20.613281 52.398438 20.496094 52.367188 20.445312 52.273438 C 20.390625 52.183594 20.421875 52.066406 20.515625 52.011719 C 20.605469 51.960938 20.722656 51.992188 20.777344 52.082031 " fill-opacity="1" fill-rule="nonzero"/><path fill="#26a9e0" d="M 22.875 47.066406 C 22.914062 47.136719 22.890625 47.222656 22.824219 47.261719 C 22.753906 47.304688 22.664062 47.277344 22.625 47.210938 C 22.585938 47.140625 22.609375 47.054688 22.679688 47.011719 C 22.746094 46.972656 22.835938 46.996094 22.875 47.066406 " fill-opacity="1" fill-rule="nonzero"/><path fill="#26a9e0" d="M 25.527344 42.320312 C 25.554688 42.367188 25.539062 42.425781 25.492188 42.453125 C 25.445312 42.480469 25.386719 42.464844 25.359375 42.417969 C 25.332031 42.371094 25.347656 42.3125 25.394531 42.285156 C 25.441406 42.261719 25.5 42.277344 25.527344 42.320312 " fill-opacity="1" fill-rule="nonzero"/><path fill="#26a9e0" d="M 28.699219 37.914062 C 28.710938 37.933594 28.707031 37.964844 28.683594 37.976562 C 28.660156 37.992188 28.628906 37.984375 28.617188 37.960938 C 28.601562 37.9375 28.613281 37.90625 28.632812 37.894531 C 28.65625 37.882812 28.6875 37.890625 28.699219 37.914062 " fill-opacity="1" fill-rule="nonzero"/><path fill="#5ce1e6" d="M 13.15625 93.726562 C 13.902344 92.429688 15.5625 91.984375 16.859375 92.734375 C 18.15625 93.484375 18.601562 95.140625 17.851562 96.4375 C 17.101562 97.734375 15.445312 98.175781 14.148438 97.429688 C 12.851562 96.679688 12.40625 95.023438 13.15625 93.726562 " fill-opacity="1" fill-rule="nonzero"/><path fill="#5ce1e6" d="M 10.847656 87.757812 C 11.582031 86.488281 13.207031 86.054688 14.476562 86.785156 C 15.746094 87.519531 16.179688 89.140625 15.449219 90.410156 C 14.714844 91.679688 13.089844 92.113281 11.820312 91.382812 C 10.550781 90.648438 10.117188 89.027344 10.847656 87.757812 " fill-opacity="1" fill-rule="nonzero"/><path fill="#5ce1e6" d="M 9.230469 81.5625 C 9.949219 80.320312 11.539062 79.894531 12.78125 80.613281 C 14.023438 81.328125 14.449219 82.917969 13.730469 84.160156 C 13.015625 85.402344 11.425781 85.828125 10.183594 85.109375 C 8.9375 84.394531 8.511719 82.804688 9.230469 81.5625 " fill-opacity="1" fill-rule="nonzero"/><path fill="#5ce1e6" d="M 8.320312 75.222656 C 9.023438 74.003906 10.578125 73.589844 11.792969 74.289062 C 13.007812 74.992188 13.425781 76.546875 12.722656 77.761719 C 12.023438 78.976562 10.46875 79.394531 9.25 78.691406 C 8.035156 77.988281 7.617188 76.4375 8.320312 75.222656 " fill-opacity="1" fill-rule="nonzero"/><path fill="#5ce1e6" d="M 8.132812 68.8125 C 8.820312 67.625 10.339844 67.214844 11.527344 67.902344 C 12.714844 68.589844 13.125 70.109375 12.4375 71.296875 C 11.75 72.484375 10.230469 72.890625 9.042969 72.203125 C 7.851562 71.519531 7.445312 70 8.132812 68.8125 " fill-opacity="1" fill-rule="nonzero"/><path fill="#5ce1e6" d="M 8.671875 62.417969 C 9.34375 61.253906 10.828125 60.855469 11.988281 61.527344 C 13.152344 62.199219 13.550781 63.683594 12.878906 64.84375 C 12.207031 66.003906 10.722656 66.402344 9.5625 65.730469 C 8.398438 65.0625 8 63.578125 8.671875 62.417969 " fill-opacity="1" fill-rule="nonzero"/><path fill="#5ce1e6" d="M 9.9375 56.117188 C 10.59375 54.984375 12.042969 54.59375 13.179688 55.25 C 14.3125 55.90625 14.703125 57.355469 14.046875 58.488281 C 13.390625 59.625 11.941406 60.011719 10.804688 59.355469 C 9.671875 58.703125 9.28125 57.253906 9.9375 56.117188 " fill-opacity="1" fill-rule="nonzero"/><path fill="#5ce1e6" d="M 11.914062 50 C 12.550781 48.890625 13.96875 48.511719 15.074219 49.152344 C 16.183594 49.789062 16.5625 51.207031 15.921875 52.3125 C 15.285156 53.421875 13.867188 53.800781 12.761719 53.160156 C 11.652344 52.523438 11.273438 51.105469 11.914062 50 " fill-opacity="1" fill-rule="nonzero"/><path fill="#5ce1e6" d="M 14.570312 44.136719 C 15.195312 43.054688 16.574219 42.6875 17.65625 43.308594 C 18.738281 43.933594 19.105469 45.3125 18.484375 46.394531 C 17.859375 47.472656 16.476562 47.84375 15.398438 47.21875 C 14.316406 46.597656 13.945312 45.214844 14.570312 44.136719 " fill-opacity="1" fill-rule="nonzero"/><path fill="#5ce1e6" d="M 17.867188 38.601562 C 18.476562 37.546875 19.824219 37.1875 20.875 37.792969 C 21.929688 38.402344 22.292969 39.75 21.683594 40.800781 C 21.074219 41.855469 19.726562 42.214844 18.671875 41.609375 C 17.621094 41 17.257812 39.652344 17.867188 38.601562 " fill-opacity="1" fill-rule="nonzero"/><path fill="#5ce1e6" d="M 21.765625 33.460938 C 22.359375 32.433594 23.671875 32.082031 24.699219 32.675781 C 25.722656 33.269531 26.078125 34.578125 25.484375 35.605469 C 24.890625 36.632812 23.578125 36.984375 22.550781 36.390625 C 21.523438 35.800781 21.171875 34.488281 21.765625 33.460938 " fill-opacity="1" fill-rule="nonzero"/><path fill="#5ce1e6" d="M 26.222656 28.789062 C 26.800781 27.789062 28.078125 27.449219 29.078125 28.023438 C 30.078125 28.601562 30.421875 29.878906 29.84375 30.878906 C 29.265625 31.878906 27.988281 32.21875 26.988281 31.644531 C 25.988281 31.066406 25.644531 29.789062 26.222656 28.789062 " fill-opacity="1" fill-rule="nonzero"/><path fill="#5ce1e6" d="M 31.183594 24.648438 C 31.746094 23.675781 32.992188 23.34375 33.964844 23.902344 C 34.9375 24.464844 35.269531 25.707031 34.707031 26.679688 C 34.144531 27.652344 32.902344 27.984375 31.929688 27.425781 C 30.957031 26.863281 30.625 25.621094 31.183594 24.648438 " fill-opacity="1" fill-rule="nonzero"/><path fill="#5ce1e6" d="M 36.589844 21.089844 C 37.132812 20.144531 38.34375 19.820312 39.289062 20.367188 C 40.234375 20.914062 40.558594 22.121094 40.011719 23.066406 C 39.46875 24.011719 38.257812 24.335938 37.3125 23.789062 C 36.367188 23.242188 36.042969 22.035156 36.589844 21.089844 " fill-opacity="1" fill-rule="nonzero"/><path fill="#5ce1e6" d="M 42.363281 18.160156 C 42.894531 17.242188 44.066406 16.925781 44.984375 17.457031 C 45.90625 17.984375 46.21875 19.160156 45.691406 20.078125 C 45.160156 20.996094 43.984375 21.308594 43.066406 20.78125 C 42.148438 20.25 41.832031 19.078125 42.363281 18.160156 " fill-opacity="1" fill-rule="nonzero"/><path fill="#5ce1e6" d="M 48.433594 15.886719 C 48.949219 14.996094 50.089844 14.691406 50.980469 15.207031 C 51.871094 15.71875 52.175781 16.859375 51.660156 17.75 C 51.148438 18.640625 50.007812 18.945312 49.113281 18.433594 C 48.222656 17.917969 47.917969 16.777344 48.433594 15.886719 " fill-opacity="1" fill-rule="nonzero"/><path fill="#5ce1e6" d="M 54.722656 14.304688 C 55.222656 13.441406 56.328125 13.144531 57.191406 13.644531 C 58.058594 14.144531 58.351562 15.25 57.855469 16.113281 C 57.355469 16.976562 56.25 17.273438 55.382812 16.773438 C 54.519531 16.273438 54.222656 15.167969 54.722656 14.304688 " fill-opacity="1" fill-rule="nonzero"/><path fill="#5ce1e6" d="M 61.15625 13.433594 C 61.636719 12.59375 62.707031 12.308594 63.546875 12.792969 C 64.382812 13.277344 64.671875 14.34375 64.1875 15.183594 C 63.703125 16.019531 62.632812 16.308594 61.796875 15.824219 C 60.957031 15.339844 60.671875 14.269531 61.15625 13.433594 " fill-opacity="1" fill-rule="nonzero"/><path fill="#5ce1e6" d="M 67.648438 13.28125 C 68.113281 12.472656 69.152344 12.195312 69.960938 12.660156 C 70.773438 13.128906 71.050781 14.164062 70.582031 14.976562 C 70.113281 15.785156 69.078125 16.0625 68.265625 15.59375 C 67.457031 15.128906 67.179688 14.089844 67.648438 13.28125 " fill-opacity="1" fill-rule="nonzero"/><path fill="#5ce1e6" d="M 74.117188 13.859375 C 74.570312 13.074219 75.570312 12.808594 76.355469 13.257812 C 77.140625 13.710938 77.40625 14.710938 76.957031 15.496094 C 76.503906 16.277344 75.5 16.546875 74.71875 16.09375 C 73.933594 15.644531 73.664062 14.640625 74.117188 13.859375 " fill-opacity="1" fill-rule="nonzero"/><path fill="#5ce1e6" d="M 80.484375 15.160156 C 80.921875 14.402344 81.890625 14.144531 82.644531 14.582031 C 83.402344 15.019531 83.660156 15.984375 83.226562 16.742188 C 82.789062 17.496094 81.820312 17.757812 81.0625 17.320312 C 80.308594 16.882812 80.046875 15.914062 80.484375 15.160156 " fill-opacity="1" fill-rule="nonzero"/><path fill="#5ce1e6" d="M 86.667969 17.167969 C 87.089844 16.441406 88.023438 16.191406 88.75 16.609375 C 89.480469 17.03125 89.730469 17.964844 89.308594 18.695312 C 88.886719 19.421875 87.957031 19.671875 87.226562 19.25 C 86.496094 18.832031 86.246094 17.898438 86.667969 17.167969 " fill-opacity="1" fill-rule="nonzero"/><path fill="#5ce1e6" d="M 92.585938 19.855469 C 92.992188 19.15625 93.890625 18.914062 94.59375 19.320312 C 95.296875 19.726562 95.539062 20.625 95.132812 21.324219 C 94.726562 22.027344 93.828125 22.269531 93.125 21.863281 C 92.421875 21.457031 92.183594 20.558594 92.585938 19.855469 " fill-opacity="1" fill-rule="nonzero"/><path fill="#5ce1e6" d="M 98.175781 23.183594 C 98.566406 22.507812 99.429688 22.273438 100.105469 22.664062 C 100.777344 23.054688 101.011719 23.917969 100.621094 24.59375 C 100.230469 25.269531 99.367188 25.5 98.691406 25.109375 C 98.015625 24.71875 97.785156 23.855469 98.175781 23.183594 " fill-opacity="1" fill-rule="nonzero"/><path fill="#5ce1e6" d="M 103.359375 27.101562 C 103.734375 26.457031 104.5625 26.234375 105.210938 26.605469 C 105.859375 26.980469 106.082031 27.808594 105.707031 28.457031 C 105.332031 29.105469 104.503906 29.328125 103.855469 28.953125 C 103.207031 28.578125 102.984375 27.75 103.359375 27.101562 " fill-opacity="1" fill-rule="nonzero"/><path fill="#5ce1e6" d="M 108.070312 31.578125 C 108.429688 30.960938 109.222656 30.746094 109.84375 31.105469 C 110.464844 31.460938 110.679688 32.257812 110.320312 32.878906 C 109.960938 33.5 109.167969 33.710938 108.546875 33.355469 C 107.925781 32.996094 107.710938 32.199219 108.070312 31.578125 " fill-opacity="1" fill-rule="nonzero"/><path fill="#5ce1e6" d="M 112.246094 36.558594 C 112.589844 35.960938 113.347656 35.757812 113.945312 36.101562 C 114.539062 36.445312 114.742188 37.203125 114.398438 37.796875 C 114.054688 38.394531 113.296875 38.597656 112.703125 38.253906 C 112.105469 37.910156 111.902344 37.152344 112.246094 36.558594 " fill-opacity="1" fill-rule="nonzero"/><path fill="#5ce1e6" d="M 115.835938 41.96875 C 116.160156 41.402344 116.886719 41.207031 117.457031 41.535156 C 118.023438 41.863281 118.21875 42.585938 117.890625 43.152344 C 117.5625 43.71875 116.835938 43.914062 116.269531 43.585938 C 115.703125 43.261719 115.507812 42.535156 115.835938 41.96875 " fill-opacity="1" fill-rule="nonzero"/><path fill="#5ce1e6" d="M 118.792969 47.746094 C 119.105469 47.203125 119.796875 47.019531 120.335938 47.332031 C 120.878906 47.644531 121.0625 48.335938 120.75 48.875 C 120.4375 49.414062 119.746094 49.597656 119.207031 49.289062 C 118.667969 48.976562 118.480469 48.285156 118.792969 47.746094 " fill-opacity="1" fill-rule="nonzero"/><path fill="#5ce1e6" d="M 121.089844 53.8125 C 121.382812 53.296875 122.039062 53.121094 122.554688 53.417969 C 123.066406 53.714844 123.242188 54.371094 122.945312 54.882812 C 122.652344 55.398438 121.996094 55.574219 121.480469 55.277344 C 120.96875 54.980469 120.792969 54.324219 121.089844 53.8125 " fill-opacity="1" fill-rule="nonzero"/><path fill="#5ce1e6" d="M 122.691406 60.089844 C 122.972656 59.605469 123.59375 59.4375 124.082031 59.71875 C 124.566406 60 124.734375 60.621094 124.453125 61.109375 C 124.171875 61.59375 123.550781 61.761719 123.0625 61.480469 C 122.578125 61.199219 122.410156 60.578125 122.691406 60.089844 " fill-opacity="1" fill-rule="nonzero"/><path fill="#5ce1e6" d="M 123.585938 66.507812 C 123.851562 66.046875 124.4375 65.890625 124.898438 66.15625 C 125.355469 66.421875 125.515625 67.007812 125.25 67.464844 C 124.984375 67.925781 124.394531 68.082031 123.9375 67.816406 C 123.476562 67.550781 123.320312 66.964844 123.585938 66.507812 " fill-opacity="1" fill-rule="nonzero"/><path fill="#5ce1e6" d="M 123.753906 72.976562 C 124.003906 72.542969 124.558594 72.394531 124.992188 72.644531 C 125.421875 72.894531 125.570312 73.445312 125.320312 73.878906 C 125.070312 74.3125 124.519531 74.457031 124.085938 74.210938 C 123.65625 73.960938 123.507812 73.40625 123.753906 72.976562 " fill-opacity="1" fill-rule="nonzero"/><path fill="#5ce1e6" d="M 123.199219 79.417969 C 123.429688 79.011719 123.949219 78.875 124.355469 79.105469 C 124.761719 79.339844 124.898438 79.859375 124.664062 80.261719 C 124.429688 80.667969 123.914062 80.808594 123.507812 80.574219 C 123.101562 80.339844 122.960938 79.820312 123.199219 79.417969 " fill-opacity="1" fill-rule="nonzero"/><path fill="#5ce1e6" d="M 121.914062 85.75 C 122.132812 85.371094 122.617188 85.242188 122.996094 85.457031 C 123.375 85.675781 123.503906 86.160156 123.285156 86.539062 C 123.066406 86.917969 122.582031 87.046875 122.203125 86.828125 C 121.824219 86.609375 121.695312 86.125 121.914062 85.75 " fill-opacity="1" fill-rule="nonzero"/><path fill="#5ce1e6" d="M 119.925781 91.886719 C 120.128906 91.535156 120.578125 91.417969 120.929688 91.621094 C 121.28125 91.820312 121.402344 92.269531 121.199219 92.621094 C 120.996094 92.972656 120.546875 93.09375 120.195312 92.890625 C 119.84375 92.6875 119.722656 92.238281 119.925781 91.886719 " fill-opacity="1" fill-rule="nonzero"/><path fill="#5ce1e6" d="M 117.261719 97.757812 C 117.449219 97.4375 117.863281 97.324219 118.1875 97.511719 C 118.511719 97.699219 118.621094 98.113281 118.4375 98.4375 C 118.25 98.761719 117.832031 98.871094 117.507812 98.683594 C 117.183594 98.496094 117.074219 98.085938 117.261719 97.757812 " fill-opacity="1" fill-rule="nonzero"/><path fill="#5ce1e6" d="M 113.960938 103.292969 C 114.132812 102.996094 114.515625 102.894531 114.8125 103.066406 C 115.109375 103.238281 115.210938 103.617188 115.039062 103.914062 C 114.867188 104.210938 114.488281 104.3125 114.191406 104.140625 C 113.894531 103.96875 113.792969 103.589844 113.960938 103.292969 " fill-opacity="1" fill-rule="nonzero"/><path fill="#5ce1e6" d="M 110.070312 108.417969 C 110.226562 108.148438 110.570312 108.054688 110.839844 108.210938 C 111.113281 108.367188 111.203125 108.714844 111.046875 108.984375 C 110.890625 109.253906 110.546875 109.347656 110.277344 109.191406 C 110.007812 109.035156 109.914062 108.6875 110.070312 108.417969 " fill-opacity="1" fill-rule="nonzero"/><path fill="#5ce1e6" d="M 105.625 113.066406 C 105.765625 112.824219 106.078125 112.738281 106.320312 112.878906 C 106.5625 113.019531 106.648438 113.332031 106.507812 113.574219 C 106.367188 113.816406 106.054688 113.902344 105.8125 113.761719 C 105.566406 113.621094 105.484375 113.308594 105.625 113.066406 " fill-opacity="1" fill-rule="nonzero"/><path fill="#5ce1e6" d="M 100.6875 117.175781 C 100.808594 116.957031 101.085938 116.882812 101.304688 117.007812 C 101.519531 117.132812 101.59375 117.410156 101.46875 117.625 C 101.34375 117.839844 101.066406 117.914062 100.851562 117.789062 C 100.632812 117.667969 100.5625 117.390625 100.6875 117.175781 " fill-opacity="1" fill-rule="nonzero"/><path fill="#5ce1e6" d="M 95.316406 120.691406 C 95.425781 120.503906 95.667969 120.4375 95.855469 120.546875 C 96.042969 120.65625 96.109375 120.898438 96 121.085938 C 95.890625 121.277344 95.648438 121.339844 95.460938 121.230469 C 95.273438 121.121094 95.207031 120.878906 95.316406 120.691406 " fill-opacity="1" fill-rule="nonzero"/><path fill="#5ce1e6" d="M 89.585938 123.574219 C 89.679688 123.414062 89.886719 123.359375 90.050781 123.453125 C 90.210938 123.542969 90.265625 123.753906 90.175781 123.914062 C 90.082031 124.074219 89.875 124.132812 89.710938 124.039062 C 89.546875 123.945312 89.492188 123.738281 89.585938 123.574219 " fill-opacity="1" fill-rule="nonzero"/><path fill="#5ce1e6" d="M 83.574219 125.792969 C 83.652344 125.660156 83.824219 125.613281 83.960938 125.691406 C 84.09375 125.769531 84.140625 125.941406 84.0625 126.074219 C 83.984375 126.210938 83.8125 126.257812 83.679688 126.179688 C 83.542969 126.101562 83.496094 125.929688 83.574219 125.792969 " fill-opacity="1" fill-rule="nonzero"/><path fill="#5ce1e6" d="M 77.355469 127.320312 C 77.417969 127.210938 77.554688 127.175781 77.664062 127.238281 C 77.769531 127.300781 77.808594 127.4375 77.746094 127.546875 C 77.683594 127.652344 77.542969 127.691406 77.4375 127.628906 C 77.328125 127.566406 77.292969 127.425781 77.355469 127.320312 " fill-opacity="1" fill-rule="nonzero"/><path fill="#5ce1e6" d="M 71.003906 128.132812 C 71.050781 128.054688 71.15625 128.027344 71.238281 128.074219 C 71.316406 128.121094 71.34375 128.222656 71.296875 128.304688 C 71.253906 128.386719 71.148438 128.414062 71.066406 128.367188 C 70.984375 128.320312 70.957031 128.214844 71.003906 128.132812 " fill-opacity="1" fill-rule="nonzero"/><path fill="#5ce1e6" d="M 64.609375 128.226562 C 64.640625 128.171875 64.710938 128.152344 64.761719 128.183594 C 64.816406 128.214844 64.835938 128.285156 64.804688 128.339844 C 64.773438 128.394531 64.703125 128.410156 64.648438 128.378906 C 64.597656 128.347656 64.578125 128.28125 64.609375 128.226562 " fill-opacity="1" fill-rule="nonzero"/><path fill="#5ce1e6" d="M 58.246094 127.589844 C 58.261719 127.5625 58.296875 127.550781 58.324219 127.566406 C 58.351562 127.582031 58.359375 127.617188 58.34375 127.644531 C 58.328125 127.671875 58.292969 127.679688 58.269531 127.664062 C 58.242188 127.648438 58.230469 127.617188 58.246094 127.589844 " fill-opacity="1" fill-rule="nonzero"/><path fill="#26a9e0" d="M 124.289062 110.585938 C 122.527344 110.585938 121.101562 109.160156 121.101562 107.398438 C 121.101562 105.636719 122.527344 104.210938 124.289062 104.210938 C 126.050781 104.210938 127.480469 105.636719 127.480469 107.398438 C 127.480469 109.160156 126.050781 110.585938 124.289062 110.585938 " fill-opacity="1" fill-rule="nonzero"/><path fill="#26a9e0" d="M 119.5625 116.445312 C 117.835938 116.445312 116.4375 115.046875 116.4375 113.324219 C 116.4375 111.597656 117.835938 110.199219 119.5625 110.199219 C 121.285156 110.199219 122.683594 111.597656 122.683594 113.324219 C 122.683594 115.046875 121.285156 116.445312 119.5625 116.445312 " fill-opacity="1" fill-rule="nonzero"/><path fill="#26a9e0" d="M 114.199219 121.734375 C 112.511719 121.734375 111.140625 120.367188 111.140625 118.679688 C 111.140625 116.992188 112.511719 115.625 114.199219 115.625 C 115.886719 115.625 117.253906 116.992188 117.253906 118.679688 C 117.253906 120.367188 115.886719 121.734375 114.199219 121.734375 " fill-opacity="1" fill-rule="nonzero"/><path fill="#26a9e0" d="M 108.269531 126.394531 C 106.617188 126.394531 105.277344 125.054688 105.277344 123.40625 C 105.277344 121.753906 106.617188 120.417969 108.269531 120.417969 C 109.921875 120.417969 111.257812 121.753906 111.257812 123.40625 C 111.257812 125.054688 109.921875 126.394531 108.269531 126.394531 " fill-opacity="1" fill-rule="nonzero"/><path fill="#26a9e0" d="M 101.847656 130.355469 C 100.230469 130.355469 98.921875 129.046875 98.921875 127.433594 C 98.921875 125.820312 100.230469 124.511719 101.847656 124.511719 C 103.460938 124.511719 104.769531 125.820312 104.769531 127.433594 C 104.769531 129.046875 103.460938 130.355469 101.847656 130.355469 " fill-opacity="1" fill-rule="nonzero"/><path fill="#26a9e0" d="M 95.007812 133.566406 C 93.429688 133.566406 92.152344 132.289062 92.152344 130.710938 C 92.152344 129.136719 93.429688 127.855469 95.007812 127.855469 C 96.585938 127.855469 97.867188 129.136719 97.867188 130.710938 C 97.867188 132.289062 96.585938 133.566406 95.007812 133.566406 " fill-opacity="1" fill-rule="nonzero"/><path fill="#26a9e0" d="M 87.84375 135.984375 C 86.300781 135.984375 85.054688 134.734375 85.054688 133.195312 C 85.054688 131.65625 86.300781 130.40625 87.84375 130.40625 C 89.386719 130.40625 90.636719 131.65625 90.636719 133.195312 C 90.636719 134.734375 89.386719 135.984375 87.84375 135.984375 " fill-opacity="1" fill-rule="nonzero"/><path fill="#26a9e0" d="M 80.445312 137.574219 C 78.9375 137.574219 77.71875 136.355469 77.71875 134.851562 C 77.71875 133.347656 78.9375 132.125 80.445312 132.125 C 81.949219 132.125 83.167969 133.347656 83.167969 134.851562 C 83.167969 136.355469 81.949219 137.574219 80.445312 137.574219 " fill-opacity="1" fill-rule="nonzero"/><g clip-path="url(#f4ea96c12c)"><path fill="#26a9e0" d="M 72.902344 138.316406 C 71.4375 138.316406 70.246094 137.125 70.246094 135.660156 C 70.246094 134.191406 71.4375 133.003906 72.902344 133.003906 C 74.371094 133.003906 75.5625 134.191406 75.5625 135.660156 C 75.5625 137.125 74.371094 138.316406 72.902344 138.316406 " fill-opacity="1" fill-rule="nonzero"/></g><g clip-path="url(#00799ce0f4)"><path fill="#26a9e0" d="M 65.320312 138.214844 C 63.890625 138.214844 62.726562 137.054688 62.726562 135.625 C 62.726562 134.191406 63.890625 133.035156 65.320312 133.035156 C 66.75 133.035156 67.914062 134.191406 67.914062 135.625 C 67.914062 137.054688 66.75 138.214844 65.320312 138.214844 " fill-opacity="1" fill-rule="nonzero"/></g><path fill="#26a9e0" d="M 57.789062 137.269531 C 56.394531 137.269531 55.261719 136.136719 55.261719 134.746094 C 55.261719 133.351562 56.394531 132.21875 57.789062 132.21875 C 59.183594 132.21875 60.3125 133.351562 60.3125 134.746094 C 60.3125 136.136719 59.183594 137.269531 57.789062 137.269531 " fill-opacity="1" fill-rule="nonzero"/><path fill="#26a9e0" d="M 50.402344 135.476562 C 49.046875 135.476562 47.945312 134.378906 47.945312 133.019531 C 47.945312 131.664062 49.046875 130.5625 50.402344 130.5625 C 51.761719 130.5625 52.863281 131.664062 52.863281 133.019531 C 52.863281 134.378906 51.761719 135.476562 50.402344 135.476562 " fill-opacity="1" fill-rule="nonzero"/><path fill="#26a9e0" d="M 43.261719 132.859375 C 41.941406 132.859375 40.871094 131.789062 40.871094 130.46875 C 40.871094 129.148438 41.941406 128.078125 43.261719 128.078125 C 44.585938 128.078125 45.65625 129.148438 45.65625 130.46875 C 45.65625 131.789062 44.585938 132.859375 43.261719 132.859375 " fill-opacity="1" fill-rule="nonzero"/><path fill="#26a9e0" d="M 36.457031 129.453125 C 35.171875 129.453125 34.132812 128.410156 34.132812 127.125 C 34.132812 125.84375 35.171875 124.800781 36.457031 124.800781 C 37.742188 124.800781 38.785156 125.84375 38.785156 127.125 C 38.785156 128.410156 37.742188 129.453125 36.457031 129.453125 " fill-opacity="1" fill-rule="nonzero"/><path fill="#26a9e0" d="M 30.074219 125.296875 C 28.824219 125.296875 27.8125 124.285156 27.8125 123.039062 C 27.8125 121.789062 28.824219 120.78125 30.074219 120.78125 C 31.320312 120.78125 32.332031 121.789062 32.332031 123.039062 C 32.332031 124.285156 31.320312 125.296875 30.074219 125.296875 " fill-opacity="1" fill-rule="nonzero"/><path fill="#26a9e0" d="M 24.1875 120.449219 C 22.976562 120.449219 21.996094 119.46875 21.996094 118.257812 C 21.996094 117.046875 22.976562 116.066406 24.1875 116.066406 C 25.398438 116.066406 26.378906 117.046875 26.378906 118.257812 C 26.378906 119.46875 25.398438 120.449219 24.1875 120.449219 " fill-opacity="1" fill-rule="nonzero"/><path fill="#26a9e0" d="M 18.875 114.976562 C 17.699219 114.976562 16.746094 114.023438 16.746094 112.851562 C 16.746094 111.675781 17.699219 110.726562 18.875 110.726562 C 20.046875 110.726562 21 111.675781 21 112.851562 C 21 114.023438 20.046875 114.976562 18.875 114.976562 " fill-opacity="1" fill-rule="nonzero"/><path fill="#26a9e0" d="M 14.199219 108.941406 C 13.0625 108.941406 12.140625 108.019531 12.140625 106.882812 C 12.140625 105.746094 13.0625 104.824219 14.199219 104.824219 C 15.339844 104.824219 16.261719 105.746094 16.261719 106.882812 C 16.261719 108.019531 15.339844 108.941406 14.199219 108.941406 " fill-opacity="1" fill-rule="nonzero"/><path fill="#26a9e0" d="M 10.226562 102.417969 C 9.125 102.417969 8.234375 101.527344 8.234375 100.425781 C 8.234375 99.324219 9.125 98.433594 10.226562 98.433594 C 11.328125 98.433594 12.222656 99.324219 12.222656 100.425781 C 12.222656 101.527344 11.328125 102.417969 10.226562 102.417969 " fill-opacity="1" fill-rule="nonzero"/><path fill="#26a9e0" d="M 7.007812 95.492188 C 5.945312 95.492188 5.082031 94.628906 5.082031 93.5625 C 5.082031 92.5 5.945312 91.636719 7.007812 91.636719 C 8.074219 91.636719 8.9375 92.5 8.9375 93.5625 C 8.9375 94.628906 8.074219 95.492188 7.007812 95.492188 " fill-opacity="1" fill-rule="nonzero"/><path fill="#26a9e0" d="M 4.589844 88.242188 C 3.5625 88.242188 2.730469 87.410156 2.730469 86.382812 C 2.730469 85.355469 3.5625 84.523438 4.589844 84.523438 C 5.617188 84.523438 6.453125 85.355469 6.453125 86.382812 C 6.453125 87.410156 5.617188 88.242188 4.589844 88.242188 " fill-opacity="1" fill-rule="nonzero"/><path fill="#26a9e0" d="M 3.003906 80.765625 C 2.011719 80.765625 1.207031 79.960938 1.207031 78.96875 C 1.207031 77.980469 2.011719 77.175781 3.003906 77.175781 C 3.992188 77.175781 4.796875 77.980469 4.796875 78.96875 C 4.796875 79.960938 3.992188 80.765625 3.003906 80.765625 " fill-opacity="1" fill-rule="nonzero"/><g clip-path="url(#22486caa5b)"><path fill="#26a9e0" d="M 2.261719 73.15625 C 1.304688 73.15625 0.53125 72.382812 0.53125 71.425781 C 0.53125 70.472656 1.304688 69.699219 2.261719 69.699219 C 3.214844 69.699219 3.988281 70.472656 3.988281 71.425781 C 3.988281 72.382812 3.214844 73.15625 2.261719 73.15625 " fill-opacity="1" fill-rule="nonzero"/></g><g clip-path="url(#faba2bfda0)"><path fill="#26a9e0" d="M 2.363281 65.511719 C 1.445312 65.511719 0.699219 64.765625 0.699219 63.847656 C 0.699219 62.933594 1.445312 62.1875 2.363281 62.1875 C 3.28125 62.1875 4.023438 62.933594 4.023438 63.847656 C 4.023438 64.765625 3.28125 65.511719 2.363281 65.511719 " fill-opacity="1" fill-rule="nonzero"/></g><path fill="#26a9e0" d="M 3.3125 57.921875 C 2.429688 57.921875 1.714844 57.210938 1.714844 56.328125 C 1.714844 55.449219 2.429688 54.734375 3.3125 54.734375 C 4.191406 54.734375 4.90625 55.449219 4.90625 56.328125 C 4.90625 57.210938 4.191406 57.921875 3.3125 57.921875 " fill-opacity="1" fill-rule="nonzero"/><path fill="#26a9e0" d="M 5.105469 50.492188 C 4.257812 50.492188 3.574219 49.808594 3.574219 48.964844 C 3.574219 48.121094 4.257812 47.4375 5.105469 47.4375 C 5.949219 47.4375 6.632812 48.121094 6.632812 48.964844 C 6.632812 49.808594 5.949219 50.492188 5.105469 50.492188 " fill-opacity="1" fill-rule="nonzero"/><path fill="#26a9e0" d="M 7.71875 43.3125 C 6.914062 43.3125 6.257812 42.660156 6.257812 41.851562 C 6.257812 41.046875 6.914062 40.390625 7.71875 40.390625 C 8.527344 40.390625 9.183594 41.046875 9.183594 41.851562 C 9.183594 42.660156 8.527344 43.3125 7.71875 43.3125 " fill-opacity="1" fill-rule="nonzero"/><path fill="#26a9e0" d="M 11.125 36.476562 C 10.355469 36.476562 9.730469 35.851562 9.730469 35.082031 C 9.730469 34.3125 10.355469 33.6875 11.125 33.6875 C 11.898438 33.6875 12.523438 34.3125 12.523438 35.082031 C 12.523438 35.851562 11.898438 36.476562 11.125 36.476562 " fill-opacity="1" fill-rule="nonzero"/><path fill="#26a9e0" d="M 15.273438 30.066406 C 14.539062 30.066406 13.945312 29.46875 13.945312 28.738281 C 13.945312 28.003906 14.539062 27.410156 15.273438 27.410156 C 16.007812 27.410156 16.605469 28.003906 16.605469 28.738281 C 16.605469 29.46875 16.007812 30.066406 15.273438 30.066406 " fill-opacity="1" fill-rule="nonzero"/><path fill="#26a9e0" d="M 20.109375 24.160156 C 19.414062 24.160156 18.847656 23.59375 18.847656 22.898438 C 18.847656 22.203125 19.414062 21.636719 20.109375 21.636719 C 20.808594 21.636719 21.371094 22.203125 21.371094 22.898438 C 21.371094 23.59375 20.808594 24.160156 20.109375 24.160156 " fill-opacity="1" fill-rule="nonzero"/><path fill="#26a9e0" d="M 25.566406 18.832031 C 24.90625 18.832031 24.371094 18.296875 24.371094 17.636719 C 24.371094 16.976562 24.90625 16.441406 25.566406 16.441406 C 26.230469 16.441406 26.765625 16.976562 26.765625 17.636719 C 26.765625 18.296875 26.230469 18.832031 25.566406 18.832031 " fill-opacity="1" fill-rule="nonzero"/><path fill="#26a9e0" d="M 31.582031 14.148438 C 30.957031 14.148438 30.453125 13.644531 30.453125 13.019531 C 30.453125 12.394531 30.957031 11.890625 31.582031 11.890625 C 32.207031 11.890625 32.710938 12.394531 32.710938 13.019531 C 32.710938 13.644531 32.207031 14.148438 31.582031 14.148438 " fill-opacity="1" fill-rule="nonzero"/><path fill="#26a9e0" d="M 38.078125 10.171875 C 37.488281 10.171875 37.011719 9.695312 37.011719 9.109375 C 37.011719 8.523438 37.488281 8.046875 38.078125 8.046875 C 38.664062 8.046875 39.140625 8.523438 39.140625 9.109375 C 39.140625 9.695312 38.664062 10.171875 38.078125 10.171875 " fill-opacity="1" fill-rule="nonzero"/><path fill="#26a9e0" d="M 44.972656 6.949219 C 44.421875 6.949219 43.976562 6.503906 43.976562 5.953125 C 43.976562 5.402344 44.421875 4.957031 44.972656 4.957031 C 45.523438 4.957031 45.96875 5.402344 45.96875 5.953125 C 45.96875 6.503906 45.523438 6.949219 44.972656 6.949219 " fill-opacity="1" fill-rule="nonzero"/><path fill="#26a9e0" d="M 52.179688 4.53125 C 51.667969 4.53125 51.25 4.117188 51.25 3.601562 C 51.25 3.089844 51.667969 2.671875 52.179688 2.671875 C 52.695312 2.671875 53.109375 3.089844 53.109375 3.601562 C 53.109375 4.117188 52.695312 4.53125 52.179688 4.53125 " fill-opacity="1" fill-rule="nonzero"/><path fill="#26a9e0" d="M 59.609375 2.945312 C 59.132812 2.945312 58.746094 2.558594 58.746094 2.082031 C 58.746094 1.605469 59.132812 1.21875 59.609375 1.21875 C 60.085938 1.21875 60.472656 1.605469 60.472656 2.082031 C 60.472656 2.558594 60.085938 2.945312 59.609375 2.945312 " fill-opacity="1" fill-rule="nonzero"/><g clip-path="url(#2588bfe8c8)"><path fill="#26a9e0" d="M 67.164062 2.203125 C 66.722656 2.203125 66.367188 1.847656 66.367188 1.40625 C 66.367188 0.96875 66.722656 0.609375 67.164062 0.609375 C 67.605469 0.609375 67.960938 0.96875 67.960938 1.40625 C 67.960938 1.847656 67.605469 2.203125 67.164062 2.203125 " fill-opacity="1" fill-rule="nonzero"/></g><g clip-path="url(#b577ed68ba)"><path fill="#26a9e0" d="M 74.746094 2.308594 C 74.339844 2.308594 74.015625 1.980469 74.015625 1.578125 C 74.015625 1.175781 74.339844 0.847656 74.746094 0.847656 C 75.148438 0.847656 75.476562 1.175781 75.476562 1.578125 C 75.476562 1.980469 75.148438 2.308594 74.746094 2.308594 " fill-opacity="1" fill-rule="nonzero"/></g><path fill="#26a9e0" d="M 82.261719 3.257812 C 81.894531 3.257812 81.59375 2.960938 81.59375 2.59375 C 81.59375 2.226562 81.894531 1.929688 82.261719 1.929688 C 82.628906 1.929688 82.925781 2.226562 82.925781 2.59375 C 82.925781 2.960938 82.628906 3.257812 82.261719 3.257812 " fill-opacity="1" fill-rule="nonzero"/><path fill="#26a9e0" d="M 89.613281 5.050781 C 89.28125 5.050781 89.015625 4.78125 89.015625 4.453125 C 89.015625 4.121094 89.28125 3.855469 89.613281 3.855469 C 89.941406 3.855469 90.210938 4.121094 90.210938 4.453125 C 90.210938 4.78125 89.941406 5.050781 89.613281 5.050781 " fill-opacity="1" fill-rule="nonzero"/><path fill="#26a9e0" d="M 96.707031 7.664062 C 96.410156 7.664062 96.171875 7.425781 96.171875 7.132812 C 96.171875 6.839844 96.410156 6.601562 96.707031 6.601562 C 97 6.601562 97.238281 6.839844 97.238281 7.132812 C 97.238281 7.425781 97 7.664062 96.707031 7.664062 " fill-opacity="1" fill-rule="nonzero"/><path fill="#26a9e0" d="M 103.449219 11.0625 C 103.191406 11.0625 102.984375 10.855469 102.984375 10.597656 C 102.984375 10.339844 103.191406 10.132812 103.449219 10.132812 C 103.707031 10.132812 103.914062 10.339844 103.914062 10.597656 C 103.914062 10.855469 103.707031 11.0625 103.449219 11.0625 " fill-opacity="1" fill-rule="nonzero"/><path fill="#26a9e0" d="M 109.761719 15.199219 C 109.539062 15.199219 109.359375 15.019531 109.359375 14.800781 C 109.359375 14.582031 109.539062 14.402344 109.761719 14.402344 C 109.980469 14.402344 110.160156 14.582031 110.160156 14.800781 C 110.160156 15.019531 109.980469 15.199219 109.761719 15.199219 " fill-opacity="1" fill-rule="nonzero"/><path fill="#26a9e0" d="M 115.558594 20.015625 C 115.375 20.015625 115.226562 19.867188 115.226562 19.683594 C 115.226562 19.5 115.375 19.351562 115.558594 19.351562 C 115.742188 19.351562 115.890625 19.5 115.890625 19.683594 C 115.890625 19.867188 115.742188 20.015625 115.558594 20.015625 " fill-opacity="1" fill-rule="nonzero"/><path fill="#26a9e0" d="M 120.773438 25.453125 C 120.625 25.453125 120.507812 25.335938 120.507812 25.1875 C 120.507812 25.039062 120.625 24.921875 120.773438 24.921875 C 120.917969 24.921875 121.039062 25.039062 121.039062 25.1875 C 121.039062 25.335938 120.917969 25.453125 120.773438 25.453125 " fill-opacity="1" fill-rule="nonzero"/><path fill="#26a9e0" d="M 125.339844 31.4375 C 125.226562 31.4375 125.140625 31.347656 125.140625 31.238281 C 125.140625 31.128906 125.226562 31.039062 125.339844 31.039062 C 125.449219 31.039062 125.539062 31.128906 125.539062 31.238281 C 125.539062 31.347656 125.449219 31.4375 125.339844 31.4375 " fill-opacity="1" fill-rule="nonzero"/><path fill="#26a9e0" d="M 129.191406 37.898438 C 129.121094 37.898438 129.058594 37.839844 129.058594 37.765625 C 129.058594 37.691406 129.121094 37.632812 129.191406 37.632812 C 129.265625 37.632812 129.328125 37.691406 129.328125 37.765625 C 129.328125 37.839844 129.265625 37.898438 129.191406 37.898438 " fill-opacity="1" fill-rule="nonzero"/><g clip-path="url(#4495495281)"><path fill="#26a9e0" d="M 132.285156 44.75 C 132.25 44.75 132.21875 44.722656 132.21875 44.683594 C 132.21875 44.648438 132.25 44.617188 132.285156 44.617188 C 132.324219 44.617188 132.351562 44.648438 132.351562 44.683594 C 132.351562 44.722656 132.324219 44.75 132.285156 44.75 " fill-opacity="1" fill-rule="nonzero"/></g></g></g></g></svg>