<svg xmlns="http://www.w3.org/2000/svg" xmlns:xlink="http://www.w3.org/1999/xlink" width="500" zoomAndPan="magnify" viewBox="0 0 375 374.999991" height="500" preserveAspectRatio="xMidYMid meet" version="1.0"><defs><g/></defs><rect x="-37.5" width="450" fill="#ffffff" y="-37.499999" height="449.999989" fill-opacity="1"/><rect x="-37.5" width="450" fill="#ffffff" y="-37.499999" height="449.999989" fill-opacity="1"/><rect x="-37.5" width="450" fill="#ffffff" y="-37.499999" height="449.999989" fill-opacity="1"/><path fill="#1b8c9f" d="M 359.53125 193.03125 L 358.050781 215.039062 C 351.03125 259.375 330.5 294.839844 296.449219 321.421875 C 262.164062 347.984375 221.792969 358.753906 175.332031 353.734375 C 130.992188 346.71875 95.527344 326.183594 68.941406 292.136719 C 60.425781 281.132812 53.410156 269.136719 47.894531 256.160156 L 40.941406 236.144531 C 37.121094 222.375 35.191406 208 35.148438 193.03125 C 36.308594 147.085938 52.144531 108.855469 82.652344 78.347656 C 113.164062 47.839844 151.390625 32.003906 197.339844 30.84375 C 243.285156 32.003906 281.515625 47.839844 312.027344 78.347656 C 342.535156 108.855469 358.371094 147.085938 359.53125 193.03125 " fill-opacity="1" fill-rule="nonzero"/><path fill="#1b8c9f" d="M 88.039062 287.519531 L 88.714844 288.386719 L 90.050781 290.058594 C 89.164062 289.082031 89.175781 289.140625 90.082031 290.226562 C 91.238281 291.648438 92.417969 293.050781 93.621094 294.433594 C 96.289062 297.457031 98.539062 299.871094 100.363281 301.679688 C 104.5 305.84375 108.863281 309.761719 113.449219 313.425781 C 122.328125 320.621094 132.582031 326.988281 144.207031 332.527344 C 137.851562 329.980469 131.578125 326.941406 125.382812 323.410156 C 123.71875 322.464844 122.058594 321.46875 120.402344 320.425781 C 118.265625 318.957031 115.601562 316.957031 112.40625 314.433594 C 106.039062 309.332031 100.117188 303.765625 94.632812 297.734375 C 91.398438 294.074219 89.203125 290.667969 88.039062 287.519531 M 268.613281 336.078125 L 267.589844 336.5 C 264.695312 337.683594 262.09375 338.664062 259.777344 339.445312 C 260.355469 339.203125 260.96875 338.957031 261.613281 338.703125 C 261.960938 338.585938 263 338.195312 264.726562 337.539062 C 265.078125 337.410156 266.105469 336.996094 267.808594 336.308594 C 269.507812 335.597656 270.527344 335.164062 270.863281 335.007812 C 271.207031 334.867188 272.21875 334.410156 273.894531 333.644531 C 274.546875 333.347656 275.148438 333.09375 275.699219 332.882812 L 275.585938 332.96875 C 273.917969 333.753906 272.917969 334.21875 272.578125 334.367188 L 270.546875 335.265625 L 269.527344 335.703125 L 268.597656 336.089844 L 268.613281 336.078125 M 364.980469 173.519531 L 365.121094 174.644531 C 365.863281 180.433594 366.242188 186.628906 366.257812 193.230469 C 365.476562 180.730469 364.398438 171.128906 363.027344 164.425781 C 362.5625 162.535156 362.058594 160.648438 361.519531 158.761719 C 363.628906 167.5 364.359375 174.585938 363.714844 180.023438 C 362.582031 166.230469 359.3125 152.167969 353.902344 137.839844 C 347.546875 121.597656 339.023438 107.113281 328.335938 94.390625 L 339.121094 110.652344 L 316.4375 84.878906 C 312.503906 81.046875 308.964844 77.871094 305.824219 75.347656 C 304.46875 74.238281 304.621094 74.417969 306.285156 75.890625 C 302.894531 73.097656 299.394531 70.457031 295.78125 67.964844 C 293.355469 66.296875 290.921875 64.71875 288.472656 63.230469 C 289.996094 64.25 290.5625 64.722656 290.160156 64.644531 C 280.71875 59.511719 274.511719 56.328125 271.539062 55.09375 C 259.804688 50.65625 251.25 47.839844 245.875 46.644531 C 212.875 39.636719 182.195312 41.773438 153.832031 53.050781 C 141.277344 57.683594 126.496094 66.238281 109.484375 78.714844 C 98.402344 88.320312 88.902344 99.292969 80.976562 111.632812 C 90.542969 95.003906 100.269531 82.941406 110.15625 75.445312 C 122.152344 65.226562 137.875 55.914062 157.316406 47.507812 C 199.953125 33.125 241.464844 36.175781 281.84375 56.667969 C 272.65625 51.691406 262.574219 47.617188 251.597656 44.449219 C 232.628906 39.15625 213.675781 37.386719 194.726562 39.144531 C 197.21875 38.445312 199.675781 37.972656 202.105469 37.722656 C 181.742188 39.496094 171.167969 41.078125 170.390625 42.464844 C 135.527344 53.945312 108.261719 72 88.59375 96.628906 C 57.480469 132.984375 47.011719 176.636719 57.1875 227.582031 C 56.304688 222.230469 55.703125 216.863281 55.386719 211.476562 C 59.378906 244.054688 72.257812 272.621094 94.019531 297.175781 C 111.777344 316.773438 133.121094 330.984375 158.054688 339.800781 C 185.195312 349.191406 213.042969 350.929688 241.601562 345.023438 L 229.183594 347.964844 L 230.296875 347.816406 C 254.929688 344.394531 277.710938 335.441406 298.636719 320.960938 C 340.582031 290.191406 362.871094 247.796875 365.503906 193.777344 C 365.515625 214.355469 361.332031 235.28125 352.953125 256.558594 C 347.949219 272.042969 339.261719 286.441406 326.886719 299.753906 C 313.085938 314.703125 299.132812 325.519531 285.03125 332.210938 L 291.183594 329.078125 L 299.742188 324.132812 L 299.378906 324.40625 C 289.328125 331.347656 278.621094 337.054688 267.261719 341.53125 C 247.476562 351.753906 222.351562 355.667969 191.894531 353.273438 C 203.898438 354.546875 216.390625 354.496094 229.378906 353.128906 C 226.148438 353.964844 221.390625 354.488281 215.105469 354.699219 L 219.949219 354.730469 C 192.582031 355.988281 172.410156 353.800781 159.433594 348.171875 L 147.617188 343.257812 L 146.660156 342.652344 L 158.828125 346.617188 C 152.683594 344.59375 148.695312 342.996094 146.855469 341.835938 C 138.875 337.976562 138.847656 337.6875 146.773438 340.972656 L 126.414062 330.75 C 119.183594 326.386719 112.34375 321.484375 105.894531 316.042969 C 102.964844 313.570312 100.128906 311 97.386719 308.328125 C 103.957031 313.945312 107.574219 316.726562 108.242188 316.675781 C 99.382812 309.40625 91.402344 301.277344 84.296875 292.285156 C 77.285156 283.707031 71.878906 275.578125 68.078125 267.898438 C 64.742188 262.472656 60.945312 252.886719 56.699219 239.140625 C 56.046875 236.953125 55.441406 234.75 54.886719 232.535156 L 56.664062 236.464844 L 54.34375 227.003906 L 51.972656 213.898438 C 52.109375 215.601562 52.0625 215.535156 51.828125 213.691406 C 49.78125 198.289062 50.214844 181.9375 53.121094 164.636719 C 51.730469 172.15625 50.871094 179.667969 50.542969 187.171875 L 50.464844 187.601562 C 50.523438 186.085938 50.605469 184.570312 50.707031 183.058594 C 51.503906 172.066406 53.203125 161.941406 55.808594 152.683594 C 58.25 135.011719 67.492188 115.433594 83.53125 93.953125 C 109.351562 61.78125 143.335938 42.121094 185.480469 34.972656 C 207.957031 31.886719 229.578125 33.128906 250.339844 38.707031 C 272.628906 46.046875 291.253906 55.527344 306.207031 67.148438 C 323.1875 80.039062 337.308594 96.40625 348.566406 116.25 C 354.8125 127.6875 359.472656 138.949219 362.546875 150.039062 C 365.0625 158.878906 366.804688 167.867188 367.769531 177.007812 C 368.664062 183.96875 368.472656 189.417969 367.191406 193.355469 C 367.089844 187.699219 366.351562 181.089844 364.980469 173.519531 M 294.234375 324.964844 L 295.054688 324.5 C 296.6875 323.570312 298.300781 322.597656 299.898438 321.585938 L 306.597656 316.351562 L 310.933594 312.773438 C 312.679688 311.273438 314.320312 309.8125 315.863281 308.390625 C 315.875 308.34375 316.804688 307.582031 318.660156 306.109375 C 320.164062 304.570312 322.15625 302.257812 324.640625 299.179688 C 315.378906 309.265625 305.242188 317.859375 294.234375 324.964844 M 55.632812 229.109375 L 55.792969 230.046875 C 56.222656 232.523438 56.714844 235.007812 57.273438 237.492188 C 57.714844 239.578125 58.132812 241.1875 58.527344 242.324219 C 59.609375 245.609375 60.472656 248.0625 61.117188 249.679688 C 61.160156 249.421875 61.242188 249.25 61.367188 249.167969 C 61.429688 249.128906 61.5 249.113281 61.582031 249.125 C 61.613281 249.101562 61.75 249.171875 61.992188 249.332031 L 62.0625 249.285156 C 60.886719 246.121094 60.019531 243.636719 59.457031 241.832031 C 59.335938 241.472656 59.003906 240.398438 58.457031 238.601562 L 56.539062 231.933594 C 56.097656 230.480469 55.792969 229.539062 55.632812 229.109375 M 254.335938 40.8125 L 253.242188 40.492188 C 243.679688 37.738281 233.941406 35.894531 224.035156 34.960938 C 222.121094 34.761719 219.457031 34.578125 216.042969 34.410156 C 212.972656 34.273438 209.925781 34.230469 206.902344 34.273438 C 204.996094 34.308594 203.851562 34.335938 203.464844 34.355469 C 203.308594 34.398438 203.335938 34.457031 203.542969 34.527344 L 203.085938 34.625 C 202.734375 34.644531 201.710938 34.738281 200.015625 34.90625 C 198.453125 35.25 197.664062 35.421875 197.648438 35.410156 C 202.117188 35.089844 206.632812 34.957031 211.195312 35.015625 C 216.132812 35.113281 220.308594 35.335938 223.71875 35.679688 C 227.5 36.027344 231.261719 36.515625 235.007812 37.132812 C 239.875 37.972656 243.96875 38.816406 247.285156 39.667969 L 248.175781 39.835938 C 249.707031 39.960938 250.847656 40.097656 251.601562 40.246094 C 252.65625 40.429688 253.566406 40.621094 254.335938 40.8125 M 260.96875 50.054688 L 260.132812 49.710938 C 249.675781 45.816406 238.011719 43.144531 225.144531 41.699219 C 222.230469 41.390625 219.316406 41.167969 216.398438 41.027344 C 213.820312 40.882812 210.535156 40.832031 206.542969 40.875 C 200.683594 40.972656 194.847656 41.402344 189.03125 42.171875 C 190.421875 42.0625 192.554688 41.9375 195.421875 41.796875 C 197.421875 41.476562 199.09375 41.285156 200.433594 41.222656 C 202.324219 41.097656 204.902344 41.015625 208.167969 40.976562 C 214.007812 40.941406 219.839844 41.242188 225.660156 41.878906 C 238.390625 43.351562 250.160156 46.078125 260.96875 50.054688 " fill-opacity="1" fill-rule="nonzero"/><path fill="#1b8c9f" d="M 68.035156 287.464844 L 68.675781 288.359375 C 70.214844 290.421875 70.402344 290.730469 69.246094 289.285156 C 69.675781 289.875 70.113281 290.46875 70.554688 291.054688 L 73.929688 295.402344 C 75.523438 297.417969 77.671875 299.925781 80.375 302.925781 C 85.105469 308.054688 89.566406 312.402344 93.761719 315.972656 C 103.566406 324.339844 113.5625 331.105469 123.75 336.265625 C 117.238281 333.355469 111.011719 330.019531 105.070312 326.257812 C 103.445312 325.234375 101.835938 324.175781 100.238281 323.085938 C 97.304688 320.847656 94.445312 318.503906 91.664062 316.050781 C 85.550781 310.652344 79.878906 304.820312 74.652344 298.550781 C 71.546875 294.847656 69.339844 291.152344 68.035156 287.464844 M 251.855469 340.253906 L 250.847656 340.710938 C 248.160156 341.914062 245.433594 343.042969 242.667969 344.09375 L 244.335938 343.347656 C 245.710938 342.804688 247.074219 342.242188 248.433594 341.664062 C 250.117188 340.929688 251.128906 340.484375 251.460938 340.324219 C 253.488281 339.402344 255.484375 338.445312 257.441406 337.445312 L 259.191406 336.640625 C 258.496094 337.03125 257.386719 337.605469 255.863281 338.355469 C 254.546875 339.011719 253.210938 339.644531 251.855469 340.253906 M 347.027344 168.375 L 347.15625 169.5 C 347.824219 175.113281 348.191406 181.488281 348.261719 188.625 C 347.375 174.710938 346.300781 164.664062 345.042969 158.480469 C 344.605469 156.585938 344.136719 154.691406 343.632812 152.800781 C 345.683594 162.050781 346.394531 169.398438 345.761719 174.847656 C 344.421875 159.660156 341.277344 145.066406 336.328125 131.0625 C 330.09375 113.800781 321.828125 98.488281 311.527344 85.125 C 314.167969 88.855469 317.703125 94.675781 322.128906 102.582031 L 307.265625 83.476562 C 304.742188 80.332031 302.105469 77.289062 299.355469 74.347656 C 295.574219 70.355469 292.171875 67.03125 289.140625 64.371094 C 287.859375 63.175781 288.046875 63.402344 289.703125 65.050781 C 285.601562 61.398438 281.929688 58.382812 278.683594 56 L 272.421875 51.5625 C 273.746094 52.589844 274.074219 52.941406 273.402344 52.621094 C 264.5 47.269531 258.101562 43.683594 254.199219 41.867188 C 242.664062 37.105469 234.210938 34.058594 228.835938 32.726562 C 195.289062 24.800781 164.0625 26.972656 135.152344 39.238281 C 122.253906 44.214844 106.9375 53.839844 89.203125 68.117188 C 77.953125 78.890625 68.585938 90.71875 61.101562 103.59375 C 70.179688 86.195312 79.742188 73.25 89.792969 64.761719 C 96.648438 58.570312 103.347656 53.375 109.898438 49.175781 L 127.46875 38.742188 C 128.558594 38.144531 129.660156 37.558594 130.773438 36.988281 L 137.785156 33.972656 L 137.269531 34.078125 C 181.738281 17.925781 224.46875 21.339844 265.457031 44.3125 C 255.390625 38.40625 244.609375 33.710938 233.109375 30.21875 C 214.375 24.601562 195.285156 22.765625 175.839844 24.699219 C 177.757812 24.058594 180.339844 23.546875 183.585938 23.164062 C 162.214844 25.214844 150.929688 27.117188 149.71875 28.875 C 115.269531 41.523438 88.644531 60.519531 69.839844 85.863281 C 38.511719 125.855469 27.972656 172.066406 38.226562 224.492188 C 37.34375 218.601562 36.773438 212.9375 36.507812 207.503906 C 40.1875 241.625 52.859375 271.960938 74.519531 298.515625 C 91.976562 319.449219 113.398438 334.8125 138.789062 344.605469 C 166.523438 354.953125 194.988281 356.828125 224.183594 350.222656 L 218.808594 351.71875 L 211.527344 353.402344 L 212.046875 353.339844 C 236.664062 349.628906 259.246094 340.261719 279.796875 325.238281 C 322.375 292.199219 344.921875 246.957031 347.441406 189.503906 C 347.578125 210.769531 343.351562 233.222656 334.753906 256.851562 C 331.054688 270.714844 322.191406 286.011719 308.167969 302.742188 C 295.492188 317.339844 282.289062 328.273438 268.550781 335.550781 C 273.273438 333.074219 278.175781 330.117188 283.261719 326.667969 C 282.417969 327.359375 280.902344 328.476562 278.722656 330.023438 C 268.109375 337.59375 255.378906 344.285156 240.53125 350.101562 C 221.976562 358.328125 199.5 361.230469 173.101562 358.816406 C 184.757812 360.242188 197.621094 360.171875 211.699219 358.597656 C 208.714844 359.472656 203.640625 360.046875 196.480469 360.3125 L 201.535156 360.347656 C 173.324219 361.632812 152.460938 359.066406 138.945312 352.644531 L 127.261719 347.335938 L 126.359375 346.71875 L 138.597656 351.179688 L 127.28125 346.285156 C 118.550781 341.6875 118.273438 341.273438 126.453125 345.03125 L 107.839844 334.964844 C 100.726562 330.414062 94.019531 325.339844 87.710938 319.738281 C 84.535156 316.960938 80.96875 313.496094 77.011719 309.335938 C 83.867188 315.699219 87.539062 318.820312 88.035156 318.695312 C 79.757812 311.296875 72.171875 302.960938 65.273438 293.683594 C 57.195312 282.703125 51.847656 274.132812 49.234375 267.972656 C 45.140625 260.359375 41.304688 250.007812 37.722656 236.914062 L 35.769531 229.179688 L 37.523438 233.425781 L 35.214844 222.988281 L 33.066406 209.863281 C 33.230469 212.050781 33.191406 212.03125 32.941406 209.804688 C 31.03125 193.417969 31.4375 176.578125 34.167969 159.289062 C 33 165.636719 32.160156 173.574219 31.644531 183.097656 L 32.511719 170.621094 C 33.367188 160.929688 36.355469 146.59375 41.472656 127.621094 C 45.660156 114.242188 53.28125 99.617188 64.339844 83.746094 C 90.828125 49.015625 124.847656 27.972656 166.398438 20.617188 C 188.515625 17.140625 210.511719 18.464844 232.382812 24.582031 C 255.488281 32.808594 274.152344 42.929688 288.375 54.949219 C 306.273438 69.738281 320.519531 87.449219 331.117188 108.082031 C 336.605469 118.609375 341.105469 130.328125 344.621094 143.234375 C 347.167969 152.828125 348.90625 162.574219 349.835938 172.460938 C 350.648438 179.125 350.425781 184.726562 349.167969 189.265625 C 349.148438 183.882812 348.4375 176.921875 347.027344 168.375 M 277.839844 327.710938 L 278.636719 327.210938 C 280.226562 326.203125 281.800781 325.164062 283.363281 324.09375 L 290.640625 317.886719 L 294.800781 314.109375 L 299.503906 309.523438 L 302.1875 307.121094 C 303.542969 305.617188 305.523438 303.121094 308.125 299.632812 C 298.921875 310.585938 288.828125 319.945312 277.839844 327.710938 M 36.605469 225.867188 L 36.75 226.804688 C 37.300781 230.226562 37.808594 233.027344 38.273438 235.207031 C 38.597656 236.753906 38.792969 237.679688 38.867188 237.988281 C 39.066406 238.699219 39.273438 239.417969 39.492188 240.148438 C 40.53125 243.582031 41.300781 245.929688 41.800781 247.1875 C 41.914062 246.820312 42.035156 246.652344 42.164062 246.6875 L 42.398438 246.734375 L 42.761719 246.921875 C 41.78125 244.089844 40.875 241.222656 40.035156 238.324219 C 39.925781 237.964844 39.625 236.878906 39.128906 235.074219 L 37.644531 229.410156 C 37.273438 228.027344 36.929688 226.847656 36.605469 225.867188 M 237.359375 27.085938 L 236.273438 26.738281 C 231.167969 25.125 225.996094 23.789062 220.75 22.722656 C 215.128906 21.617188 210.222656 20.871094 206.027344 20.476562 C 204.121094 20.261719 201.453125 20.0625 198.035156 19.871094 C 194.960938 19.722656 191.910156 19.667969 188.882812 19.703125 C 187.265625 19.71875 185.832031 19.761719 184.589844 19.832031 C 184.8125 19.890625 184.933594 19.949219 184.957031 20.019531 C 182.339844 20.261719 181.042969 20.390625 181.058594 20.410156 L 178.910156 20.898438 C 188.003906 20.183594 197.105469 20.300781 206.21875 21.246094 C 209.632812 21.574219 213.769531 22.179688 218.625 23.066406 C 222.003906 23.679688 226.058594 24.617188 230.785156 25.878906 C 233.105469 26.105469 235.296875 26.507812 237.359375 27.085938 M 244.027344 36.617188 L 243.195312 36.246094 C 231.835938 31.726562 219.902344 28.730469 207.394531 27.261719 C 195.019531 25.820312 182.640625 25.980469 170.257812 27.738281 C 172.363281 27.574219 174.328125 27.445312 176.148438 27.355469 C 177.675781 27.074219 179.671875 26.84375 182.140625 26.664062 C 183.996094 26.535156 186.558594 26.453125 189.828125 26.414062 C 196.75 26.421875 202.933594 26.785156 208.378906 27.503906 C 220.875 29.09375 232.757812 32.128906 244.027344 36.617188 " fill-opacity="1" fill-rule="nonzero"/><path fill="#1b8c9f" d="M 71.914062 281.351562 L 72.480469 282.296875 L 73.570312 284.089844 C 72.84375 283.058594 72.859375 283.132812 73.617188 284.3125 L 76.589844 288.949219 C 78.851562 292.300781 80.765625 294.992188 82.332031 297.023438 C 86.582031 302.558594 90.640625 307.289062 94.5 311.210938 C 102.910156 319.8125 111.785156 326.996094 121.125 332.761719 C 115.808594 329.910156 110.191406 326.28125 104.277344 321.867188 C 102.734375 320.699219 101.222656 319.511719 99.742188 318.296875 C 97.816406 316.578125 95.445312 314.257812 92.621094 311.332031 C 86.996094 305.425781 81.859375 299.117188 77.210938 292.410156 C 74.441406 288.328125 72.675781 284.640625 71.914062 281.351562 M 241.925781 336.976562 L 240.957031 337.503906 C 238.171875 339 235.71875 340.21875 233.605469 341.15625 C 234.160156 340.859375 234.75 340.550781 235.375 340.238281 C 237.019531 339.4375 238.003906 338.953125 238.328125 338.777344 C 239.964844 337.925781 240.945312 337.410156 241.269531 337.226562 C 241.59375 337.058594 242.550781 336.519531 244.144531 335.613281 C 245.730469 334.683594 246.683594 334.117188 246.996094 333.914062 L 248.679688 332.972656 C 246.621094 334.304688 244.371094 335.640625 241.925781 336.976562 M 324.867188 165.070312 L 324.976562 166.195312 C 325.621094 173.566406 325.902344 179.683594 325.824219 184.554688 C 324.992188 170.511719 324.117188 160.886719 323.199219 155.6875 C 322.8125 153.765625 322.398438 151.863281 321.957031 149.980469 C 323.628906 158.378906 324.136719 165.480469 323.476562 171.28125 C 322.242188 155.6875 319.617188 141.328125 315.609375 128.207031 C 310.972656 112.523438 304.175781 97.550781 295.207031 83.289062 L 303.792969 100.542969 C 292.390625 82.894531 285.695312 73.074219 283.714844 71.082031 C 280.261719 66.769531 277.167969 63.195312 274.429688 60.371094 C 275.71875 61.886719 276.070312 62.320312 275.488281 61.679688 C 271.726562 57.691406 268.332031 54.378906 265.296875 51.742188 C 263.652344 50.285156 261.976562 48.875 260.273438 47.503906 L 261.757812 49.105469 C 253.386719 43.011719 247.355469 38.941406 243.65625 36.898438 C 233.410156 31.742188 225.519531 28.324219 219.988281 26.636719 C 189.183594 17.746094 160.171875 19.992188 132.949219 33.378906 C 120.226562 39.296875 106.023438 49.890625 90.335938 65.15625 C 80.691406 76.191406 72.65625 88.324219 66.230469 101.554688 C 77.515625 71.40625 100.085938 47.046875 133.945312 28.472656 C 175.960938 10.484375 216.117188 14.332031 254.417969 40.027344 C 243.960938 32.816406 233.441406 27.410156 222.855469 23.808594 C 205.875 17.894531 188.246094 15.964844 169.96875 18.023438 C 172.4375 17.253906 174.898438 16.730469 177.339844 16.453125 C 167.835938 16.992188 158.148438 18.746094 148.285156 21.710938 C 117.160156 34.578125 93.140625 53.722656 76.226562 79.132812 C 61.246094 103.820312 52.296875 122.328125 49.378906 134.660156 C 43.0625 165.425781 42.175781 193.496094 46.714844 218.882812 C 46.117188 213.554688 45.730469 208.234375 45.5625 202.921875 C 49.003906 238.425781 60.335938 269.402344 79.558594 295.84375 C 94.84375 316.820312 113.945312 332.433594 136.863281 342.683594 C 162.394531 353.730469 188.894531 355.515625 216.359375 348.035156 C 212.34375 349.46875 208.203125 350.6875 203.9375 351.699219 C 225.746094 347.933594 245.890625 338.378906 264.367188 323.035156 C 302.269531 290.046875 322.507812 244.101562 325.085938 185.191406 C 325.347656 205.445312 321.59375 228.425781 313.824219 254.128906 C 311.507812 265.722656 303.832031 280.742188 290.800781 299.1875 C 279.832031 313.617188 268.847656 324.269531 257.851562 331.144531 C 261.933594 328.589844 266.421875 325.316406 271.320312 321.316406 L 263.679688 327.863281 C 255.261719 334.859375 243.707031 341.792969 229.019531 348.667969 C 209.429688 357.363281 188.703125 360.179688 166.84375 357.109375 C 178.90625 358.816406 191.429688 358.734375 204.417969 356.859375 C 200.898438 357.882812 196.113281 358.523438 190.058594 358.777344 L 194.746094 358.769531 C 168.601562 360.039062 149.488281 357.457031 137.398438 351.027344 L 123.058594 343.582031 C 122.5625 343.226562 122.550781 343.148438 123.023438 343.351562 L 131.238281 347.320312 L 134.226562 348.316406 C 128.335938 345.683594 124.875 343.910156 123.851562 342.992188 C 115.519531 337.75 115.226562 337.277344 122.972656 341.566406 L 108.507812 332.449219 C 102.300781 327.894531 96.492188 322.894531 91.078125 317.457031 C 86.859375 313.257812 82.6875 308.527344 78.558594 303.269531 C 84.355469 309.726562 87.589844 313.003906 88.269531 313.101562 C 76.425781 300.617188 65.902344 284.652344 56.699219 265.210938 C 51.933594 254.445312 48.484375 243.953125 46.351562 233.734375 L 44.15625 223.738281 L 45.703125 227.753906 L 43.894531 218.109375 L 42.054688 204.9375 C 42.175781 207.183594 42.128906 207.105469 41.914062 204.703125 C 40.402344 189.101562 40.726562 173.011719 42.886719 156.4375 C 41.910156 162.90625 41.234375 170.507812 40.851562 179.242188 L 41.558594 167.03125 C 41.894531 160.1875 44.355469 145.886719 48.9375 124.128906 C 52.886719 110.078125 59.820312 94.90625 69.738281 78.617188 C 94.792969 41.34375 127.234375 19.542969 167.070312 13.207031 C 186.199219 10.410156 205.621094 12.394531 225.335938 19.164062 C 245.5625 27.980469 261.878906 38.519531 274.285156 50.78125 C 289.46875 65.195312 301.941406 83.292969 311.707031 105.074219 C 316.914062 116.972656 320.882812 129.269531 323.621094 141.957031 C 325.878906 152.417969 327.300781 162.929688 327.894531 173.488281 C 328.128906 177.757812 327.761719 181.632812 326.789062 185.105469 C 326.832031 181.019531 326.195312 174.339844 324.867188 165.070312 M 265.824219 322.988281 L 266.578125 322.417969 C 269.054688 320.5 270.523438 319.320312 270.984375 318.886719 L 276.929688 312.792969 L 280.742188 308.65625 L 281.484375 307.816406 C 284.1875 304.558594 286.1875 302.289062 287.492188 301 C 287.582031 300.949219 288.308594 299.882812 289.671875 297.800781 C 290.355469 296.75 291.027344 295.691406 291.6875 294.625 L 292.160156 293.800781 C 284.171875 305.144531 275.390625 314.875 265.824219 322.988281 M 45.089844 220.375 L 45.199219 221.316406 C 45.574219 224.453125 46.023438 227.582031 46.546875 230.707031 C 46.640625 231.308594 46.761719 231.957031 46.914062 232.652344 L 47.457031 234.84375 C 47.828125 236.308594 48.21875 237.769531 48.625 239.230469 C 48.851562 240.066406 49.035156 240.6875 49.179688 241.089844 C 49.246094 240.839844 49.34375 240.6875 49.476562 240.621094 C 49.566406 240.523438 49.773438 240.605469 50.097656 240.863281 L 50.082031 240.578125 C 49.546875 238.769531 48.871094 236.226562 48.050781 232.949219 C 47.613281 231.125 47.355469 230.027344 47.277344 229.65625 C 46.699219 226.992188 46.277344 225.09375 46.015625 223.957031 C 45.683594 222.523438 45.375 221.332031 45.089844 220.375 M 228.828125 21.476562 L 227.753906 21.058594 C 218.390625 17.496094 208.738281 15.09375 198.789062 13.859375 C 193.453125 13.207031 188.097656 12.910156 182.726562 12.96875 C 181.1875 12.984375 179.664062 13.03125 178.152344 13.109375 C 178.390625 13.164062 178.527344 13.226562 178.558594 13.296875 C 176.019531 13.570312 174.757812 13.714844 174.773438 13.738281 L 173.058594 14.160156 L 172.996094 14.21875 C 177.570312 13.796875 182.132812 13.636719 186.6875 13.734375 C 187.835938 13.742188 189.742188 13.832031 192.402344 13.996094 C 194.691406 14.15625 196.96875 14.378906 199.234375 14.667969 C 202.652344 15.066406 206.78125 15.808594 211.617188 16.902344 C 215.359375 17.785156 219.011719 18.816406 222.570312 19.992188 C 224.96875 20.351562 227.054688 20.847656 228.828125 21.476562 M 234.542969 31.261719 L 233.742188 30.839844 C 228.703125 28.378906 223.355469 26.300781 217.707031 24.59375 C 211.085938 22.636719 205.0625 21.316406 199.636719 20.621094 C 193.875 19.832031 188.09375 19.480469 182.292969 19.570312 C 176.613281 19.632812 170.699219 20.195312 164.558594 21.253906 C 166.441406 21.03125 168.324219 20.859375 170.207031 20.734375 C 172.101562 20.390625 173.699219 20.160156 175 20.050781 C 176.898438 19.867188 179.464844 19.746094 182.703125 19.6875 C 188.496094 19.617188 194.269531 19.988281 200.027344 20.800781 C 205.449219 21.511719 211.460938 22.855469 218.0625 24.832031 C 223.542969 26.507812 229.035156 28.652344 234.542969 31.261719 " fill-opacity="1" fill-rule="nonzero"/><path fill="#1b8c9f" d="M 288.664062 325.960938 L 289.535156 325.285156 C 291.570312 323.625 291.832031 323.453125 290.320312 324.765625 C 290.894531 324.308594 291.46875 323.847656 292.035156 323.382812 L 296.242188 319.828125 C 298.195312 318.152344 300.617188 315.90625 303.511719 313.085938 C 308.222656 308.441406 312.644531 303.535156 316.769531 298.359375 C 324.402344 288.914062 331.199219 277.996094 337.164062 265.597656 C 330.867188 280.511719 324.210938 292.019531 317.199219 300.117188 C 311.328125 307.289062 305.488281 313.480469 299.683594 318.6875 C 296.277344 321.835938 292.605469 324.261719 288.664062 325.960938 M 341.054688 130.875 L 341.476562 131.894531 C 342.035156 133.253906 342.578125 134.628906 343.105469 136.023438 C 343.753906 137.753906 344.136719 138.796875 344.257812 139.144531 L 344.625 140.1875 L 344.585938 140.152344 C 344.34375 139.582031 344.097656 138.960938 343.847656 138.292969 C 343.207031 136.558594 342.816406 135.519531 342.679688 135.175781 C 342.546875 134.820312 342.140625 133.792969 341.449219 132.085938 C 340.742188 130.382812 340.3125 129.363281 340.160156 129.023438 C 339.570312 127.664062 338.964844 126.316406 338.34375 124.976562 L 337.59375 123.195312 C 338.414062 124.78125 339.566406 127.339844 341.054688 130.875 M 165.511719 27.03125 L 166.636719 26.890625 C 173.367188 26.0625 180.117188 25.640625 186.882812 25.621094 C 172.953125 26.476562 162.414062 27.671875 155.265625 29.207031 C 153.375 29.667969 151.484375 30.164062 149.597656 30.695312 C 159.089844 28.4375 166.695312 27.625 172.414062 28.25 C 157.871094 29.460938 143.066406 32.855469 128 38.441406 C 110.457031 45.105469 94.476562 54.429688 80.058594 66.417969 C 84.101562 63.320312 89.949219 59.414062 97.601562 54.695312 L 69.800781 79.011719 C 66.191406 82.664062 62.761719 86.472656 59.507812 90.445312 C 57.976562 92.285156 58.011719 92.3125 59.609375 90.527344 C 56.820312 93.929688 54.171875 97.4375 51.664062 101.050781 L 46.277344 109.339844 L 47.941406 107.214844 C 42.480469 117.148438 38.96875 123.964844 37.40625 127.660156 C 32.695312 139.988281 29.640625 149.222656 28.246094 155.359375 C 20.558594 190.105469 22.859375 223.304688 35.152344 254.964844 C 40.425781 269.023438 49.683594 284.964844 62.921875 302.792969 C 73.738281 315.152344 85.632812 325.457031 98.601562 333.710938 C 69.703125 319.183594 46.605469 291.515625 29.304688 250.707031 C 13.933594 204.785156 17.285156 160.046875 39.359375 116.5 C 33.757812 127.042969 29.332031 138.054688 26.078125 149.542969 C 20.417969 170.070312 18.53125 190.417969 20.40625 210.578125 C 19.773438 208.335938 19.285156 205.632812 18.945312 202.46875 C 20.757812 224.523438 22.75 236.886719 24.921875 239.554688 C 36.960938 275.578125 56.292969 304.265625 82.910156 325.621094 C 122.011719 358.789062 168.984375 369.949219 223.824219 359.105469 C 217.808594 360.109375 211.949219 360.789062 206.246094 361.148438 C 241.949219 356.648438 272.816406 342.78125 298.84375 319.554688 C 320.175781 300.28125 335.609375 277.082031 345.144531 249.960938 C 355.210938 220.496094 357.050781 190.550781 350.671875 160.125 C 351.855469 164.335938 352.886719 168.738281 353.773438 173.328125 L 353.625 172.214844 C 349.644531 144.980469 340.03125 120.480469 324.785156 98.714844 C 291.964844 53.5 246.171875 29.398438 187.402344 26.414062 C 209.367188 26.375 231.710938 30.820312 254.441406 39.75 C 271.871094 45.535156 287.707031 55.121094 301.953125 68.511719 C 318.066406 83.511719 329.675781 98.542969 336.769531 113.597656 C 333.773438 107.476562 330.761719 102.035156 327.734375 97.269531 L 330.152344 100.824219 C 337.914062 112.507812 344.5 125.847656 349.902344 140.84375 C 358.347656 159.679688 361.421875 183.964844 359.128906 213.703125 C 360.507812 201.359375 360.457031 187.859375 358.976562 173.199219 C 359.804688 176.390625 360.34375 181.546875 360.59375 188.671875 L 360.636719 183.75 C 361.945312 212.949219 359.53125 234.675781 353.402344 248.925781 L 348.121094 261.589844 L 347.597656 262.367188 C 350.703125 254.234375 352.125 249.929688 351.871094 249.453125 L 346.710938 262.363281 C 342.757812 270.472656 342.480469 270.480469 345.875 262.386719 L 335.269531 283.601562 C 330.550781 291.496094 325.234375 298.960938 319.320312 306.003906 C 307.765625 319.34375 308.039062 318.480469 320.152344 303.410156 C 311.894531 313.402344 303.269531 321.945312 294.273438 329.035156 C 284.042969 337.273438 275.378906 343.105469 268.285156 346.527344 C 260.632812 350.917969 250.59375 355.003906 238.15625 358.792969 L 228.953125 361.363281 L 233.179688 359.496094 L 223.253906 361.949219 C 220.570312 362.5625 215.839844 363.417969 209.0625 364.507812 C 210.710938 364.410156 210.753906 364.445312 209.195312 364.609375 C 192.117188 366.851562 174.449219 366.414062 156.179688 363.296875 C 164.492188 364.800781 172.707031 365.734375 180.832031 366.097656 L 176.675781 365.90625 C 165.273438 365.210938 154.058594 363.359375 143.03125 360.347656 C 124.558594 357.871094 103.457031 347.847656 79.726562 330.28125 C 45.160156 302.449219 24.039062 265.933594 16.359375 220.730469 C 9.964844 171.664062 21.441406 128.320312 50.800781 90.703125 C 65.410156 71.691406 83.195312 56.363281 104.152344 44.71875 C 115.554688 38.421875 127.507812 33.480469 140.015625 29.898438 C 149.957031 27.121094 159.300781 25.269531 168.050781 24.34375 C 175.851562 23.265625 182.203125 23.367188 187.105469 24.65625 C 180.207031 24.882812 173.007812 25.675781 165.511719 27.03125 M 328.90625 103.296875 L 328.4375 102.480469 C 326.375 98.960938 325.21875 97.09375 324.96875 96.875 C 321.160156 91.863281 317.976562 87.882812 315.425781 84.929688 C 313.921875 83.1875 312.457031 81.546875 311.039062 80.011719 L 308.03125 76.460938 C 305.660156 74.300781 303.304688 72.269531 300.957031 70.375 C 311.414062 79.835938 320.730469 90.808594 328.90625 103.296875 M 225.464844 360.636719 L 226.402344 360.472656 C 228.875 360.035156 231.351562 359.535156 233.839844 358.980469 C 236.839844 358.3125 238.757812 357.816406 239.585938 357.496094 C 244.089844 356.003906 246.746094 355.058594 247.566406 354.660156 C 246.945312 354.546875 246.875 354.230469 247.363281 353.703125 C 243.835938 354.996094 240.75 356.054688 238.109375 356.878906 C 236.316406 357.433594 235.238281 357.761719 234.878906 357.859375 L 228.222656 359.765625 C 226.796875 360.195312 225.878906 360.484375 225.464844 360.636719 M 22.550781 146.410156 L 22.234375 147.5 C 19.265625 157.789062 17.273438 168.257812 16.261719 178.910156 C 15.683594 184.992188 15.429688 191.074219 15.5 197.160156 C 15.515625 198.757812 15.554688 200.203125 15.621094 201.503906 C 15.675781 201.277344 15.734375 201.148438 15.796875 201.113281 L 16.15625 204.914062 L 16.636719 207.285156 C 16.324219 202.269531 16.191406 197.578125 16.246094 193.203125 C 16.347656 187.511719 16.617188 182.585938 17.054688 178.425781 C 17.367188 175.019531 17.925781 170.882812 18.734375 166.023438 C 19.605469 161.167969 20.464844 157.085938 21.320312 153.769531 L 21.453125 152.957031 C 21.558594 151.867188 21.628906 151.203125 21.671875 150.957031 C 21.738281 150.496094 21.808594 150.027344 21.890625 149.546875 C 22.042969 148.644531 22.265625 147.597656 22.550781 146.410156 M 32.023438 139.089844 L 31.679688 139.929688 C 27.535156 151.054688 24.667969 163.433594 23.078125 177.066406 C 21.632812 190.214844 21.765625 203.371094 23.472656 216.53125 L 23.484375 216.382812 C 23.332031 214.464844 23.214844 212.5625 23.132812 210.667969 L 22.683594 207.023438 C 22.609375 206.316406 22.546875 205.566406 22.492188 204.777344 C 22.3125 201.757812 22.21875 198.800781 22.210938 195.910156 C 22.222656 188.960938 22.542969 182.753906 23.179688 177.289062 C 24.652344 164.027344 27.597656 151.292969 32.023438 139.089844 " fill-opacity="1" fill-rule="nonzero"/><path fill="#1b8c9f" d="M 336.9375 118.785156 L 336.511719 117.769531 C 335.699219 115.90625 335.621094 115.664062 336.273438 117.042969 L 335.582031 115.4375 L 333.257812 110.457031 C 331.96875 107.828125 330.601562 105.234375 329.15625 102.683594 C 326.050781 97.285156 323.074219 92.675781 320.234375 88.851562 C 313.742188 79.949219 306.265625 71.96875 297.808594 64.921875 C 302.441406 68.273438 307.132812 72.253906 311.871094 76.867188 C 314.09375 78.675781 317.257812 82.371094 321.363281 87.960938 C 325.5625 93.613281 329.617188 100.222656 333.53125 107.789062 C 335.464844 111.550781 336.601562 115.21875 336.9375 118.785156 M 186.207031 40.871094 L 187.273438 40.5625 C 188.691406 40.15625 190.109375 39.777344 191.527344 39.421875 C 193.324219 38.988281 194.402344 38.734375 194.761719 38.664062 L 194.136719 38.851562 L 193.195312 39.121094 C 192.828125 39.199219 191.757812 39.464844 189.984375 39.917969 C 188.214844 40.394531 187.148438 40.6875 186.796875 40.800781 C 184.671875 41.417969 182.574219 42.085938 180.5 42.804688 L 179.601562 43.054688 L 179.253906 43.132812 C 179.601562 43 180.644531 42.640625 182.390625 42.054688 C 183.914062 41.550781 185.1875 41.15625 186.207031 40.871094 M 77.675781 181.753906 L 77.757812 180.628906 C 78.261719 174.300781 78.992188 168.664062 79.953125 163.71875 C 78.425781 177.066406 77.699219 186 77.773438 190.523438 L 78.070312 195.929688 C 77.886719 187.03125 78.574219 180.472656 80.128906 176.246094 C 78.710938 190.738281 78.941406 204.457031 80.824219 217.402344 C 83.070312 233.179688 87.332031 247.90625 93.617188 261.585938 C 91.578125 256.335938 89.722656 250.65625 88.042969 244.550781 L 90.855469 249.394531 C 95.117188 259.804688 99.054688 268.003906 102.675781 273.996094 C 104.898438 277.78125 107.285156 281.453125 109.847656 285.011719 L 109.113281 283.761719 C 111.632812 287.34375 114.316406 290.792969 117.164062 294.113281 C 118.59375 295.78125 120.054688 297.402344 121.550781 298.984375 L 120.574219 297.484375 C 127.582031 304.144531 132.496094 308.546875 135.3125 310.691406 C 145.042969 317.402344 152.046875 321.746094 156.324219 323.714844 C 182.980469 336.304688 210.351562 339.191406 238.441406 332.375 C 250.601562 329.671875 265.558594 323.011719 283.308594 312.398438 C 294.605469 304.1875 304.488281 294.691406 312.957031 283.90625 C 302.925781 298.289062 292.917969 308.71875 282.925781 315.1875 C 275.933594 320.003906 269.25 323.886719 262.882812 326.832031 C 249.15625 332.992188 240.378906 336.359375 236.5625 336.933594 C 195.75 345.613281 158.878906 335.570312 125.941406 306.800781 C 134.472656 314.59375 143.179688 320.84375 152.070312 325.554688 C 167.175781 333.726562 183.539062 338.492188 201.164062 339.847656 L 194.335938 340.082031 C 212.8125 341.382812 222.417969 341.445312 223.152344 340.269531 C 255.15625 333.933594 281.355469 320.59375 301.75 300.253906 C 319.492188 281.4375 330.796875 266.480469 335.65625 255.390625 C 346.558594 229.09375 351.882812 204.0625 351.628906 180.300781 L 350.136719 195.058594 C 352.617188 162.855469 346.761719 133.089844 332.570312 105.765625 C 320.640625 83.417969 304.566406 65.957031 284.339844 53.382812 C 262.371094 39.890625 238.285156 33.984375 212.085938 35.65625 C 215.527344 35.148438 219.464844 34.785156 223.894531 34.5625 C 201.28125 34.183594 179.753906 39.582031 159.308594 50.761719 C 118.902344 73.941406 92.738281 111.359375 80.8125 163.015625 C 84 144.261719 91.449219 124.082031 103.160156 102.472656 C 106.101562 96.941406 109.464844 91.515625 113.253906 86.199219 C 118.949219 79.070312 125.21875 72.488281 132.0625 66.453125 C 146.050781 54.53125 158.878906 46.601562 170.539062 42.65625 C 165.589844 44.449219 160.746094 46.53125 156.007812 48.894531 L 162.851562 45.230469 C 173.207031 40.011719 185.328125 35.820312 199.214844 32.65625 C 219.699219 28.234375 239.515625 29.144531 258.664062 35.386719 C 248.777344 32.152344 237.402344 30.175781 224.542969 29.453125 C 227.914062 29.097656 232.421875 29.328125 238.070312 30.144531 L 233.53125 29.3125 C 258.625 32.59375 276.339844 38.167969 286.683594 46.03125 L 297.84375 54.285156 C 298.296875 54.734375 298.171875 54.714844 297.464844 54.226562 L 290.847656 49.773438 L 287.9375 48.300781 C 292.828125 51.414062 295.511719 53.28125 295.988281 53.90625 L 302.527344 59.707031 C 298.601562 56.863281 297.113281 55.835938 298.058594 56.632812 L 309.605469 66.328125 C 314.917969 71.359375 320.214844 77.421875 325.503906 84.511719 C 328.832031 89.074219 331.628906 93.335938 333.894531 97.296875 C 328.78125 89.902344 326.171875 86.476562 326.070312 87.023438 C 335.859375 100.484375 343.742188 117.230469 349.710938 137.253906 C 352.296875 146.355469 353.902344 156.554688 354.527344 167.851562 L 354.941406 175.816406 L 354.0625 172.074219 C 354.214844 175.089844 354.289062 178.113281 354.285156 181.152344 L 353.960938 193.347656 C 354.167969 191.714844 354.195312 191.890625 354.042969 193.875 C 352.839844 209.128906 349.855469 223.832031 345.089844 237.992188 C 347.207031 232.003906 349.128906 225.199219 350.863281 217.570312 L 348.199219 228.421875 C 348.449219 230.210938 343.628906 242.898438 333.738281 266.492188 C 327.910156 278.035156 318.957031 290.261719 306.882812 303.175781 C 277.667969 331.898438 243.464844 345.898438 204.269531 345.175781 C 185.800781 344.542969 167.695312 339.59375 149.945312 330.320312 C 131.761719 318.851562 117.667969 306.488281 107.667969 293.226562 C 94.9375 276.617188 85.910156 258.21875 80.585938 238.027344 C 77.660156 227.3125 75.835938 215.648438 75.109375 203.039062 C 74.601562 193.085938 74.925781 183.222656 76.082031 173.449219 C 76.6875 169.015625 77.699219 165.496094 79.125 162.882812 C 78.3125 167.476562 77.828125 173.769531 77.675781 181.753906 M 161.441406 48.644531 L 160.582031 49.027344 L 156.320312 51.046875 L 155.515625 51.535156 C 150.761719 54.542969 147.121094 56.964844 144.585938 58.800781 L 139.402344 62.648438 L 137.15625 64.136719 C 135.421875 65.675781 133.375 67.675781 131.015625 70.144531 C 140.527344 61.453125 150.671875 54.285156 161.441406 48.644531 M 353.476562 178.886719 L 353.523438 177.9375 C 353.542969 177.617188 353.578125 176.671875 353.636719 175.09375 C 353.65625 174.464844 353.671875 173.832031 353.683594 173.199219 C 353.710938 171.9375 353.722656 170.667969 353.71875 169.394531 L 353.714844 168.441406 L 353.6875 167.457031 C 353.628906 166.703125 353.566406 165.953125 353.5 165.199219 C 353.359375 163.691406 353.203125 162.183594 353.027344 160.679688 L 352.890625 159.554688 L 352.777344 159.152344 C 352.625 159.382812 352.523438 159.488281 352.480469 159.472656 C 352.375 159.582031 352.171875 159.492188 351.878906 159.199219 L 351.824219 159.390625 C 352.109375 161.625 352.347656 163.871094 352.539062 166.121094 C 352.636719 167.242188 352.722656 168.363281 352.796875 169.488281 L 352.867188 170.617188 L 353.066406 174.171875 L 353.140625 175.316406 C 353.242188 176.824219 353.355469 178.015625 353.476562 178.886719 M 147.144531 327.683594 L 148.144531 328.253906 C 156.199219 332.777344 164.648438 336.378906 173.492188 339.050781 C 178.636719 340.601562 183.855469 341.8125 189.152344 342.683594 L 192.574219 343.199219 L 192.398438 342.96875 C 194.941406 343.15625 196.167969 343.226562 196.078125 343.183594 C 196.246094 343.160156 196.839844 343.121094 197.859375 343.074219 C 189.945312 342.34375 181.878906 340.761719 173.664062 338.324219 C 170.011719 337.21875 166.414062 335.953125 162.875 334.515625 C 159.300781 333.046875 155.882812 331.496094 152.625 329.859375 C 150.984375 329.40625 149.15625 328.683594 147.144531 327.683594 M 143.414062 317.472656 L 144.140625 318.011719 C 152.738281 323.898438 162.8125 328.699219 174.363281 332.417969 C 184.796875 335.675781 195.519531 337.429688 206.53125 337.675781 C 183.574219 336.878906 162.535156 330.148438 143.414062 317.472656 " fill-opacity="1" fill-rule="nonzero"/><path fill="#1b8c9f" d="M 252.292969 66.304688 L 251.363281 65.714844 L 249.519531 64.5625 C 250.726562 65.214844 250.714844 65.175781 249.480469 64.445312 L 244.738281 61.648438 C 241.21875 59.679688 238.296875 58.144531 235.976562 57.042969 C 229.683594 54.035156 223.925781 51.65625 218.707031 49.910156 C 207.589844 46.09375 196.128906 43.625 184.335938 42.496094 C 191.347656 42.757812 198.328125 43.527344 205.273438 44.804688 C 208.398438 45.390625 210.3125 45.792969 211.023438 46.011719 C 213.515625 46.6875 216.6875 47.695312 220.535156 49.027344 C 228.246094 51.761719 235.65625 55.054688 242.761719 58.910156 C 247.019531 61.3125 250.195312 63.777344 252.292969 66.304688 M 67.832031 86.421875 L 68.582031 85.605469 C 70.675781 83.359375 72.660156 81.359375 74.523438 79.597656 L 73.171875 81.03125 L 70.824219 83.386719 L 68.546875 85.785156 L 66.3125 88.25 C 66.292969 88.253906 65.339844 89.355469 63.457031 91.546875 L 62.820312 92.226562 L 62.679688 92.339844 L 64.816406 89.800781 C 65.746094 88.710938 66.75 87.585938 67.832031 86.421875 M 47.285156 276.726562 L 46.734375 275.738281 C 43.9375 270.703125 41.222656 265.042969 38.59375 258.761719 C 44.753906 271.304688 49.324219 279.808594 52.3125 284.273438 L 55.917969 289.203125 C 51 282.21875 47.714844 275.941406 46.058594 270.375 C 53.386719 284.296875 61.640625 296.339844 70.820312 306.503906 C 82.472656 319.503906 95.421875 330.21875 109.660156 338.644531 L 93.921875 326.851562 C 111.773438 337.394531 122.074219 343.125 124.816406 344.042969 C 129.808594 346.332031 134.207031 348.136719 138.015625 349.460938 L 138.859375 349.753906 C 137.011719 348.992188 136.515625 348.769531 137.371094 349.09375 C 141.5 350.589844 145.679688 351.898438 149.917969 353.027344 L 157.378906 354.804688 L 155.507812 354.117188 L 177.007812 356.871094 C 189.527344 356.972656 198.480469 356.605469 203.871094 355.769531 C 236.230469 350.789062 263.25 337.285156 284.9375 315.253906 C 294.34375 306.242188 304.34375 292.011719 314.941406 272.554688 C 320.78125 259.5 324.765625 245.152344 326.890625 229.515625 C 325.214844 249.621094 321.484375 265.066406 315.703125 275.855469 C 312.398438 283.078125 308.3125 290.292969 303.441406 297.492188 C 294.65625 309.953125 288.542969 317.695312 285.101562 320.722656 C 252.199219 351.625 212.6875 364.339844 166.5625 358.863281 C 177.167969 360.539062 188.609375 360.828125 200.886719 359.730469 C 219.515625 357.921875 237.234375 352.558594 254.039062 343.640625 C 252 345.261719 249.90625 346.652344 247.753906 347.820312 C 266.011719 338.042969 275.160156 332.347656 275.191406 330.730469 C 301.539062 306.375 318.382812 279.234375 325.722656 249.3125 C 338.914062 201.996094 331.113281 156.304688 302.320312 112.242188 C 304.832031 116.40625 307.410156 121.25 310.058594 126.777344 C 293.644531 96.8125 270.785156 73.929688 241.46875 58.128906 C 218.046875 45.730469 193.121094 39.847656 166.683594 40.476562 C 137.542969 41.726562 111.613281 50.574219 88.886719 67.019531 C 92.304688 64.21875 95.71875 61.65625 99.128906 59.335938 C 78.632812 71.429688 61.710938 88.535156 48.359375 110.65625 C 23.027344 156.269531 19.941406 205.351562 39.097656 257.898438 C 31.097656 238.90625 26.464844 217.210938 25.199219 192.816406 C 23.101562 179.660156 25.238281 162.460938 31.605469 141.222656 C 37.859375 122.460938 45.550781 107.636719 54.679688 96.757812 C 51.597656 100.480469 48.253906 105.089844 44.644531 110.578125 L 47.566406 105.675781 C 53.6875 95.476562 62.574219 84.636719 74.21875 73.160156 C 87.515625 58.863281 106.683594 47.832031 131.71875 40.066406 C 120.09375 43.3125 108.511719 48.175781 96.96875 54.652344 C 99.148438 52.816406 103.417969 50.429688 109.777344 47.496094 L 105.28125 49.347656 C 111.804688 45.824219 122.738281 41.601562 138.078125 36.679688 C 145.960938 34.765625 154.757812 33.558594 164.46875 33.0625 L 177.257812 33.605469 L 178.160156 33.84375 C 170.570312 33.730469 166.335938 33.886719 165.460938 34.308594 L 177.375 34.558594 C 187.195312 35.554688 187.617188 35.84375 178.640625 35.429688 L 199.011719 37.683594 C 206.199219 38.972656 213.960938 41.058594 222.300781 43.945312 C 226.292969 45.316406 230.902344 47.191406 236.132812 49.570312 C 227.691406 46.363281 223.289062 44.917969 222.921875 45.242188 C 241.167969 51.765625 258.6875 62.035156 275.484375 76.046875 C 282.496094 81.875 289.761719 89.695312 297.28125 99.515625 C 299.160156 101.90625 300.976562 104.34375 302.726562 106.824219 L 299.636719 103.765625 L 305.175781 111.71875 L 312.1875 123.027344 C 311.640625 121.8125 311.707031 121.851562 312.382812 123.140625 C 319.945312 136.515625 325.894531 151.882812 330.226562 169.238281 C 328.789062 162.714844 326.589844 155.332031 323.636719 147.089844 L 327.4375 158.308594 C 330.117188 166.464844 332.847656 180.515625 335.628906 200.46875 C 336.996094 213.300781 335.695312 229.378906 331.726562 248.699219 C 321.628906 289.296875 299.089844 321.011719 264.105469 343.84375 C 245.652344 355.167969 225.515625 362.109375 203.703125 364.667969 C 179.847656 365.738281 159.445312 363.503906 142.496094 357.972656 C 121.066406 351.273438 101.808594 340.660156 84.726562 326.128906 C 75.625 318.492188 67 309.367188 58.847656 298.753906 C 52.847656 290.839844 47.550781 282.480469 42.949219 273.675781 C 39.730469 267.746094 37.949219 262.78125 37.597656 258.769531 C 39.15625 262.738281 42.386719 268.722656 47.285156 276.726562 M 49.265625 107.484375 L 48.730469 108.253906 C 47.652344 109.800781 46.609375 111.375 45.601562 112.972656 L 44.371094 115.558594 L 41.816406 120.570312 C 40.683594 122.933594 39.890625 124.632812 39.445312 125.667969 L 36.511719 132.632812 L 35.351562 135.007812 L 34.980469 136.046875 C 34.34375 138.160156 33.621094 140.890625 32.8125 144.246094 C 36.660156 131.386719 42.144531 119.132812 49.265625 107.484375 M 303.257812 110.28125 L 302.769531 109.464844 C 299.207031 103.640625 296.660156 99.855469 295.128906 98.105469 C 293.695312 96.332031 292.234375 94.597656 290.746094 92.898438 C 290.867188 93.558594 290.582031 93.753906 289.890625 93.484375 C 292.066406 95.996094 293.746094 98.003906 294.921875 99.5 C 295.609375 100.304688 297.699219 103.042969 301.195312 107.714844 C 302.105469 108.894531 302.792969 109.753906 303.257812 110.28125 M 197.898438 364.257812 L 199.039062 364.167969 C 208.980469 363.363281 218.734375 361.554688 228.304688 358.746094 C 233.09375 357.382812 238.480469 355.441406 244.464844 352.925781 L 247.609375 351.527344 L 248.039062 351.28125 C 247.777344 351.328125 247.722656 351.277344 247.878906 351.140625 C 249.90625 350.175781 251.519531 349.214844 252.71875 348.261719 C 245.191406 352.113281 236.933594 355.382812 227.941406 358.074219 C 224.277344 359.148438 220.589844 360.070312 216.875 360.84375 C 213.53125 361.574219 209.40625 362.25 204.496094 362.871094 C 202.199219 363.546875 199.996094 364.011719 197.898438 364.257812 M 188.386719 357.925781 L 189.292969 357.957031 C 200.4375 357.980469 212.25 356.296875 224.722656 352.910156 C 236.996094 349.386719 248.054688 344.640625 257.898438 338.671875 C 256.199219 339.558594 254.496094 340.40625 252.789062 341.210938 C 251.136719 342.238281 249.726562 343.042969 248.554688 343.628906 C 246.84375 344.503906 244.496094 345.585938 241.511719 346.878906 C 235.132812 349.542969 229.292969 351.582031 223.992188 352.988281 C 213.015625 356.078125 201.144531 357.722656 188.386719 357.925781 " fill-opacity="1" fill-rule="nonzero"/><path fill="#1b8c9f" d="M 77.808594 57.464844 L 76.984375 58.191406 C 75.058594 59.960938 74.800781 60.15625 76.203125 58.78125 C 75.65625 59.273438 75.113281 59.769531 74.574219 60.265625 L 70.589844 64.066406 C 68.746094 65.859375 66.46875 68.25 63.753906 71.242188 C 59.335938 76.164062 55.230469 81.339844 51.4375 86.761719 C 44.328125 96.875 38.332031 107.992188 33.449219 120.121094 C 36.058594 112.578125 38.886719 105.789062 41.9375 99.753906 C 43.308594 96.488281 46.21875 91.691406 50.664062 85.367188 C 55.113281 78.964844 60.539062 72.410156 66.945312 65.707031 C 70.210938 62.21875 73.832031 59.472656 77.808594 57.464844 M 37.664062 253.191406 L 37.183594 252.195312 C 36.542969 250.871094 35.917969 249.53125 35.308594 248.175781 C 34.558594 246.484375 34.113281 245.46875 33.976562 245.128906 L 33.546875 244.109375 L 33.671875 244.332031 L 34.089844 245.199219 L 35.882812 249.203125 C 36.03125 249.546875 36.503906 250.546875 37.296875 252.207031 C 38.757812 255.191406 39.9375 257.492188 40.832031 259.109375 L 41.65625 260.808594 C 40.40625 258.613281 39.074219 256.074219 37.664062 253.191406 M 217.167969 345.324219 L 216.050781 345.53125 C 209.328125 346.769531 202.667969 347.585938 196.078125 347.980469 C 209.105469 346.414062 219.316406 344.65625 226.710938 342.699219 L 232.769531 340.699219 C 223.804688 343.480469 216.257812 344.757812 210.125 344.53125 C 224.570312 342.464844 239.140625 338.175781 253.835938 331.667969 C 269.960938 324.496094 285.039062 314.425781 299.070312 301.457031 C 294.425781 305.363281 288.917969 309.527344 282.550781 313.949219 L 308.207031 288.675781 C 311.601562 284.828125 314.808594 280.824219 317.828125 276.671875 C 319.558594 274.328125 319.535156 274.289062 317.757812 276.550781 C 320.34375 272.992188 322.777344 269.335938 325.066406 265.582031 L 329.953125 256.992188 L 328.46875 259.128906 C 333.3125 248.890625 336.398438 241.878906 337.730469 238.089844 C 341.367188 226.539062 343.769531 217.488281 344.941406 210.9375 C 350.632812 175.785156 346.335938 142.800781 332.050781 111.980469 C 326.242188 99.003906 316.433594 84.199219 302.628906 67.558594 C 291.480469 55.988281 278.832031 46.261719 264.675781 38.375 C 294.589844 51.382812 319.121094 77.296875 338.269531 116.117188 C 356.265625 159.984375 355.664062 204.394531 336.464844 249.347656 C 341.414062 238.488281 345.148438 227.21875 347.671875 215.546875 C 351.921875 195.714844 352.542969 175.765625 349.527344 155.707031 C 350.109375 156.90625 350.753906 159.390625 351.449219 163.152344 C 348.496094 142.300781 345.855469 130.410156 343.519531 127.484375 C 329.09375 92.015625 308.367188 64.789062 281.332031 45.8125 C 241.355469 15.269531 194.144531 6.964844 139.707031 20.902344 C 146.078125 19.457031 151.832031 18.433594 156.972656 17.835938 C 122.402344 24.175781 92.707031 39.777344 67.878906 64.632812 C 48.332031 84.636719 34.640625 108.0625 26.808594 134.914062 C 18.363281 164.890625 18.234375 194.875 26.421875 224.871094 L 22.605469 212.207031 C 28.066406 239.1875 39.058594 263.09375 55.582031 283.925781 C 90.410156 326.472656 136.964844 347.585938 195.242188 347.261719 C 174.507812 348.710938 151.9375 345.53125 127.523438 337.722656 C 110.605469 333.203125 94.527344 324.613281 79.289062 311.945312 C 63.074219 298.519531 50.972656 284.605469 42.988281 270.203125 C 45.882812 275.355469 49.050781 280.355469 52.484375 285.203125 C 52.5625 285.371094 51.667969 284.222656 49.804688 281.75 C 41.386719 270.464844 34.085938 257.5625 27.894531 243.050781 C 18.722656 225.222656 14.371094 201.792969 14.832031 172.765625 C 14.191406 184.742188 15.042969 197.824219 17.386719 212.011719 C 17.425781 212.585938 17.382812 212.671875 17.253906 212.269531 L 15.96875 206.164062 C 15.507812 203.105469 15.128906 200.046875 14.835938 196.996094 L 15.136719 202.464844 C 13.957031 195.167969 13.457031 182.570312 13.636719 164.671875 C 14.464844 155.441406 16.042969 146.339844 18.367188 137.371094 L 22.882812 124.4375 L 23.332031 123.726562 C 20.636719 132.351562 19.472656 136.671875 19.839844 136.683594 C 21.621094 130.175781 23.003906 126.011719 23.992188 124.191406 C 27.789062 114.949219 28.125 114.769531 24.992188 123.652344 C 30.753906 109.046875 33.808594 101.894531 34.15625 102.195312 C 38.382812 94.027344 43.238281 86.25 48.726562 78.867188 L 56.570312 69.082031 C 51.46875 75.730469 48.703125 79.769531 48.273438 81.199219 C 55.433594 71.308594 63.566406 62.292969 72.671875 54.152344 C 81.230469 46.242188 89.574219 39.945312 97.703125 35.261719 C 103.542969 31.234375 113.542969 26.5625 127.699219 21.25 C 129.84375 20.46875 132.003906 19.734375 134.179688 19.039062 L 130.273438 21.101562 L 140.957031 17.796875 L 153.871094 14.664062 C 154.574219 14.539062 154.167969 14.578125 152.65625 14.78125 C 153.402344 14.632812 154.152344 14.488281 154.902344 14.351562 C 170.773438 11.28125 187.988281 10.734375 206.539062 12.707031 C 198.78125 11.714844 190.691406 11.277344 182.269531 11.390625 L 186.71875 11.316406 C 198.511719 11.449219 209.445312 12.609375 219.515625 14.792969 C 238.183594 16.179688 259.839844 24.953125 284.484375 41.117188 C 319.921875 66.554688 342.746094 101.191406 352.957031 145.027344 C 362.105469 193.992188 353.304688 237.597656 326.554688 275.839844 C 312.753906 295.886719 296.183594 311.992188 276.847656 324.152344 C 266.859375 330.589844 255.578125 336.109375 243.003906 340.710938 C 234.734375 343.738281 225.527344 346.1875 215.382812 348.054688 C 207.523438 349.691406 201.097656 349.96875 196.113281 348.894531 C 201.335938 348.574219 208.355469 347.382812 217.167969 345.324219 M 51.277344 279.710938 L 51.792969 280.5 C 52.832031 282.066406 53.898438 283.621094 54.992188 285.160156 L 61.253906 292.3125 L 65.082031 296.429688 C 66.425781 297.839844 68.230469 299.644531 70.503906 301.847656 L 72.941406 304.484375 C 74.472656 305.828125 76.992188 307.777344 80.511719 310.332031 C 69.257812 301.121094 59.515625 290.917969 51.277344 279.710938 M 138.132812 19.425781 L 137.207031 19.648438 C 134.765625 20.230469 132.320312 20.878906 129.871094 21.585938 C 128.660156 21.933594 127.449219 22.296875 126.242188 22.675781 C 125.613281 22.882812 124.933594 23.132812 124.203125 23.429688 C 122.425781 24.105469 119.984375 25.128906 116.875 26.492188 L 116.703125 26.640625 C 117.0625 26.726562 117.226562 26.832031 117.199219 26.960938 C 117.230469 27.066406 117.148438 27.273438 116.960938 27.589844 C 119.699219 26.359375 122.476562 25.203125 125.289062 24.117188 C 126.265625 23.703125 129.511719 22.539062 135.019531 20.617188 C 136.390625 20.121094 137.425781 19.726562 138.132812 19.425781 M 351.277344 218.941406 L 351.53125 217.832031 C 353.875 207.382812 355.222656 196.8125 355.570312 186.113281 C 355.769531 180 355.640625 173.914062 355.183594 167.847656 C 355.03125 165.949219 354.9375 164.808594 354.894531 164.425781 C 354.839844 164.207031 354.789062 164.21875 354.734375 164.46875 L 354.628906 164.242188 C 354.234375 161.464844 354.027344 160.175781 354.015625 160.375 L 353.472656 158.511719 C 353.765625 160.761719 354.019531 163.023438 354.226562 165.300781 C 354.414062 167.195312 354.589844 169.835938 354.753906 173.222656 C 354.953125 177.777344 354.96875 182.332031 354.796875 186.886719 C 354.683594 189.53125 354.582031 191.429688 354.488281 192.574219 C 354.328125 194.839844 354.121094 197.105469 353.867188 199.371094 C 353.292969 204.269531 352.675781 208.398438 352.019531 211.753906 L 351.960938 212.507812 C 351.953125 212.9375 351.933594 213.382812 351.90625 213.835938 C 351.878906 214.289062 351.84375 214.753906 351.796875 215.230469 C 351.75 215.9375 351.578125 217.171875 351.277344 218.941406 M 342.289062 226.714844 L 342.582031 225.855469 C 344.160156 220.859375 345.550781 214.886719 346.757812 207.9375 C 347.863281 201.417969 348.574219 194.859375 348.882812 188.265625 C 349.195312 181.675781 349.105469 175.09375 348.621094 168.523438 C 348.089844 161.683594 347.25 155.40625 346.101562 149.6875 C 346.328125 151.292969 346.601562 153.484375 346.910156 156.261719 C 347.34375 158.234375 347.632812 159.878906 347.78125 161.191406 C 348.144531 164.199219 348.417969 167.144531 348.601562 170.027344 C 348.789062 172.925781 348.898438 175.847656 348.933594 178.796875 C 348.96875 182.089844 348.902344 185.378906 348.742188 188.667969 C 348.414062 195.257812 347.691406 201.808594 346.566406 208.324219 C 345.367188 215.09375 343.941406 221.226562 342.289062 226.714844 " fill-opacity="1" fill-rule="nonzero"/><g fill="#ffffff" fill-opacity="1"><g transform="translate(29.921441, 198.653279)"><g><path d="M 84.589844 -31.945312 L 84.589844 0 L 109.785156 0 L 109.785156 -31.945312 C 109.785156 -37.195312 113.6875 -41.09375 118.484375 -41.09375 L 154.480469 -41.09375 C 159.28125 -41.09375 163.328125 -37.195312 163.328125 -31.945312 L 163.328125 0 L 188.375 0 L 188.375 -31.945312 C 188.375 -50.09375 174.878906 -63.890625 154.480469 -63.890625 L 118.484375 -63.890625 C 110.085938 -63.890625 102.738281 -61.492188 97.1875 -57.441406 C 91.636719 -61.492188 84.289062 -63.890625 75.890625 -63.890625 L 39.894531 -63.890625 C 19.496094 -63.890625 6 -50.09375 6 -31.945312 L 6 0 L 31.046875 0 L 31.046875 -31.945312 C 31.046875 -37.195312 35.09375 -41.09375 39.894531 -41.09375 L 75.890625 -41.09375 C 80.691406 -41.09375 84.589844 -37.195312 84.589844 -31.945312 Z M 84.589844 -31.945312 "/></g></g></g><g fill="#ffffff" fill-opacity="1"><g transform="translate(187.499992, 232.499992)"><g><path d="M 6 -31.949219 L 6 0 L 31.050781 0 L 31.050781 -31.949219 C 31.050781 -37.199219 35.101562 -41.101562 39.898438 -41.101562 L 108.898438 -41.101562 C 113.699219 -41.101562 117.75 -37.199219 117.75 -31.949219 L 117.75 0 L 142.800781 0 L 142.800781 -31.949219 C 142.800781 -50.101562 129.300781 -63.898438 108.898438 -63.898438 L 39.898438 -63.898438 C 19.5 -63.898438 6 -50.101562 6 -31.949219 Z M 6 -31.949219 "/></g></g></g></svg>