<svg xmlns="http://www.w3.org/2000/svg" xmlns:xlink="http://www.w3.org/1999/xlink" width="500" zoomAndPan="magnify" viewBox="0 0 375 374.999991" height="500" preserveAspectRatio="xMidYMid meet" version="1.0"><defs><g/></defs><path fill="#4f4a41" d="M 358.832031 192.839844 L 357.351562 214.828125 C 350.347656 259.121094 329.855469 294.550781 295.871094 321.105469 C 261.65625 347.644531 221.359375 358.402344 174.992188 353.386719 C 130.734375 346.378906 95.34375 325.863281 68.808594 291.851562 C 60.308594 280.855469 53.304688 268.875 47.800781 255.910156 L 40.863281 235.914062 C 37.050781 222.15625 35.125 207.796875 35.082031 192.839844 C 36.238281 146.941406 52.042969 108.75 82.492188 78.269531 C 112.945312 47.792969 151.097656 31.972656 196.957031 30.816406 C 242.8125 31.972656 280.96875 47.792969 311.417969 78.269531 C 341.867188 108.75 357.671875 146.941406 358.832031 192.839844 " fill-opacity="1" fill-rule="nonzero"/><path fill="#4f4a41" d="M 87.871094 287.238281 L 88.542969 288.105469 L 89.875 289.773438 C 88.988281 288.800781 89 288.855469 89.910156 289.941406 C 91.0625 291.363281 92.238281 292.761719 93.441406 294.144531 C 96.105469 297.164062 98.347656 299.578125 100.167969 301.382812 C 104.296875 305.542969 108.652344 309.457031 113.230469 313.117188 C 122.089844 320.308594 132.324219 326.667969 143.929688 332.199219 C 137.585938 329.65625 131.320312 326.621094 125.140625 323.09375 C 123.480469 322.148438 121.820312 321.152344 120.167969 320.109375 C 118.035156 318.640625 115.375 316.648438 112.191406 314.125 C 105.835938 309.027344 99.921875 303.464844 94.449219 297.441406 C 91.222656 293.785156 89.027344 290.382812 87.871094 287.238281 M 268.089844 335.75 L 267.070312 336.171875 C 264.179688 337.351562 261.582031 338.332031 259.273438 339.113281 C 259.851562 338.871094 260.460938 338.621094 261.105469 338.371094 C 261.449219 338.253906 262.488281 337.863281 264.210938 337.207031 C 264.5625 337.078125 265.589844 336.667969 267.285156 335.976562 C 268.984375 335.265625 270 334.835938 270.335938 334.679688 C 270.679688 334.539062 271.6875 334.082031 273.363281 333.316406 C 274.015625 333.019531 274.613281 332.765625 275.164062 332.558594 L 275.046875 332.640625 C 273.386719 333.425781 272.386719 333.890625 272.046875 334.039062 L 270.019531 334.9375 L 269.003906 335.375 L 268.074219 335.757812 L 268.089844 335.75 M 364.269531 173.347656 L 364.410156 174.472656 C 365.148438 180.257812 365.527344 186.445312 365.546875 193.039062 C 364.765625 180.554688 363.6875 170.960938 362.320312 164.261719 C 361.855469 162.375 361.355469 160.488281 360.816406 158.605469 C 362.917969 167.335938 363.648438 174.417969 363.007812 179.847656 C 361.878906 166.066406 358.613281 152.019531 353.214844 137.703125 C 346.867188 121.476562 338.363281 107.011719 327.699219 94.296875 L 338.457031 110.542969 L 315.820312 84.796875 C 311.894531 80.96875 308.363281 77.796875 305.230469 75.273438 C 303.875 74.164062 304.027344 74.34375 305.6875 75.816406 C 302.304688 73.027344 298.8125 70.386719 295.203125 67.898438 C 292.785156 66.230469 290.355469 64.652344 287.910156 63.167969 C 289.433594 64.1875 289.996094 64.660156 289.597656 64.582031 C 280.175781 59.453125 273.980469 56.273438 271.011719 55.039062 C 259.300781 50.605469 250.761719 47.792969 245.394531 46.597656 C 212.460938 39.597656 181.84375 41.734375 153.535156 53 C 141.003906 57.628906 126.25 66.175781 109.269531 78.636719 C 98.210938 88.234375 88.730469 99.195312 80.820312 111.523438 C 90.367188 94.910156 100.074219 82.859375 109.941406 75.371094 C 121.917969 65.164062 137.605469 55.859375 157.011719 47.460938 C 199.566406 33.089844 240.992188 36.140625 281.292969 56.613281 C 272.125 51.640625 262.0625 47.570312 251.105469 44.40625 C 232.179688 39.117188 213.257812 37.351562 194.347656 39.105469 C 196.832031 38.40625 199.289062 37.933594 201.710938 37.6875 C 181.386719 39.457031 170.835938 41.039062 170.058594 42.421875 C 135.261719 53.894531 108.050781 71.929688 88.421875 96.53125 C 57.371094 132.855469 46.921875 176.464844 57.078125 227.359375 C 56.195312 222.011719 55.597656 216.648438 55.28125 211.269531 C 59.265625 243.816406 72.117188 272.355469 93.839844 296.882812 C 111.558594 316.464844 132.863281 330.660156 157.75 339.46875 C 184.832031 348.847656 212.628906 350.585938 241.132812 344.683594 L 228.738281 347.621094 L 229.847656 347.472656 C 254.433594 344.054688 277.167969 335.113281 298.054688 320.644531 C 339.917969 289.90625 362.164062 247.554688 364.792969 193.585938 C 364.804688 214.144531 360.628906 235.050781 352.265625 256.308594 C 347.273438 271.773438 338.601562 286.160156 326.25 299.460938 C 312.476562 314.394531 298.550781 325.203125 284.476562 331.886719 L 290.613281 328.757812 L 299.15625 323.816406 L 298.796875 324.085938 C 288.761719 331.019531 278.078125 336.722656 266.742188 341.195312 C 246.992188 351.410156 221.921875 355.320312 191.523438 352.925781 C 203.5 354.199219 215.972656 354.148438 228.929688 352.78125 C 225.707031 353.617188 220.957031 354.140625 214.6875 354.347656 L 219.523438 354.382812 C 192.207031 355.636719 172.074219 353.453125 159.125 347.828125 L 147.332031 342.917969 L 146.375 342.316406 L 158.519531 346.277344 C 152.386719 344.253906 148.40625 342.660156 146.570312 341.5 C 138.605469 337.644531 138.578125 337.355469 146.488281 340.636719 L 126.167969 330.425781 C 118.953125 326.066406 112.125 321.171875 105.6875 315.734375 C 102.765625 313.265625 99.933594 310.695312 97.195312 308.023438 C 103.753906 313.636719 107.367188 316.417969 108.03125 316.367188 C 99.191406 309.105469 91.226562 300.980469 84.136719 292 C 77.132812 283.429688 71.738281 275.308594 67.949219 267.636719 C 64.617188 262.214844 60.828125 252.636719 56.589844 238.90625 C 55.9375 236.71875 55.335938 234.519531 54.777344 232.304688 L 56.554688 236.234375 L 54.242188 226.78125 L 51.875 213.6875 C 52.011719 215.390625 51.960938 215.320312 51.730469 213.480469 C 49.6875 198.09375 50.117188 181.757812 53.019531 164.472656 C 51.632812 171.984375 50.773438 179.492188 50.445312 186.988281 L 50.367188 187.417969 C 50.425781 185.902344 50.507812 184.390625 50.609375 182.878906 C 51.402344 171.898438 53.101562 161.785156 55.699219 152.53125 C 58.140625 134.878906 67.363281 115.320312 83.371094 93.859375 C 109.140625 61.722656 143.054688 42.082031 185.121094 34.9375 C 207.550781 31.851562 229.128906 33.097656 249.851562 38.667969 C 272.101562 46.003906 290.683594 55.472656 305.609375 67.082031 C 322.558594 79.960938 336.648438 96.308594 347.886719 116.132812 C 354.121094 127.5625 358.773438 138.8125 361.839844 149.890625 C 364.351562 158.722656 366.089844 167.703125 367.054688 176.832031 C 367.945312 183.789062 367.753906 189.234375 366.476562 193.164062 C 366.375 187.515625 365.640625 180.910156 364.269531 173.347656 M 293.664062 324.648438 L 294.480469 324.183594 C 296.109375 323.25 297.722656 322.28125 299.3125 321.269531 L 306 316.042969 L 310.328125 312.464844 C 312.070312 310.964844 313.710938 309.507812 315.246094 308.089844 C 315.257812 308.039062 316.1875 307.28125 318.039062 305.8125 C 319.539062 304.269531 321.53125 301.960938 324.007812 298.886719 C 314.761719 308.960938 304.648438 317.550781 293.664062 324.648438 M 55.523438 228.886719 L 55.683594 229.820312 C 56.113281 232.296875 56.605469 234.777344 57.164062 237.261719 C 57.605469 239.339844 58.023438 240.949219 58.417969 242.085938 C 59.492188 245.367188 60.355469 247.816406 61 249.4375 C 61.042969 249.175781 61.125 249.007812 61.246094 248.925781 C 61.308594 248.882812 61.382812 248.871094 61.460938 248.882812 C 61.492188 248.859375 61.628906 248.925781 61.871094 249.089844 L 61.941406 249.042969 C 60.769531 245.878906 59.902344 243.398438 59.34375 241.59375 C 59.222656 241.238281 58.890625 240.160156 58.34375 238.367188 L 56.429688 231.707031 C 55.988281 230.253906 55.6875 229.3125 55.523438 228.886719 M 253.84375 40.769531 L 252.75 40.453125 C 243.203125 37.703125 233.488281 35.859375 223.601562 34.925781 C 221.691406 34.726562 219.03125 34.542969 215.625 34.375 C 212.558594 34.242188 209.515625 34.195312 206.5 34.238281 C 204.597656 34.273438 203.457031 34.300781 203.070312 34.320312 C 202.914062 34.367188 202.941406 34.421875 203.144531 34.496094 L 202.691406 34.589844 C 202.339844 34.613281 201.316406 34.707031 199.628906 34.871094 C 198.066406 35.214844 197.277344 35.386719 197.261719 35.375 C 201.722656 35.054688 206.230469 34.925781 210.785156 34.980469 C 215.710938 35.078125 219.878906 35.300781 223.285156 35.644531 C 227.058594 35.992188 230.8125 36.476562 234.550781 37.097656 C 239.410156 37.933594 243.492188 38.777344 246.804688 39.628906 L 247.691406 39.796875 C 249.222656 39.921875 250.359375 40.058594 251.113281 40.207031 C 252.164062 40.390625 253.074219 40.578125 253.84375 40.769531 M 260.460938 50.007812 L 259.625 49.664062 C 249.1875 45.769531 237.550781 43.101562 224.707031 41.65625 C 221.796875 41.351562 218.886719 41.128906 215.976562 40.988281 C 213.402344 40.84375 210.125 40.792969 206.140625 40.832031 C 200.292969 40.929688 194.46875 41.363281 188.664062 42.132812 C 190.054688 42.023438 192.179688 41.898438 195.042969 41.757812 C 197.039062 41.4375 198.707031 41.246094 200.042969 41.183594 C 201.929688 41.054688 204.503906 40.976562 207.761719 40.9375 C 213.59375 40.902344 219.410156 41.203125 225.21875 41.835938 C 237.929688 43.308594 249.675781 46.03125 260.460938 50.007812 " fill-opacity="1" fill-rule="nonzero"/><path fill="#4f4a41" d="M 67.90625 287.179688 L 68.542969 288.078125 C 70.078125 290.136719 70.265625 290.445312 69.109375 289 C 69.542969 289.59375 69.976562 290.183594 70.417969 290.769531 L 73.789062 295.113281 C 75.375 297.125 77.519531 299.632812 80.21875 302.628906 C 84.941406 307.75 89.394531 312.09375 93.578125 315.664062 C 103.367188 324.023438 113.34375 330.78125 123.511719 335.9375 C 117.011719 333.027344 110.796875 329.695312 104.867188 325.9375 C 103.246094 324.914062 101.636719 323.859375 100.042969 322.769531 C 97.117188 320.535156 94.265625 318.191406 91.488281 315.742188 C 85.382812 310.347656 79.722656 304.519531 74.507812 298.257812 C 71.40625 294.558594 69.207031 290.867188 67.90625 287.179688 M 251.367188 339.917969 L 250.359375 340.375 C 247.679688 341.582031 244.957031 342.707031 242.195312 343.757812 L 243.859375 343.011719 C 245.230469 342.46875 246.59375 341.90625 247.949219 341.328125 C 249.628906 340.597656 250.640625 340.152344 250.972656 339.992188 C 252.996094 339.070312 254.984375 338.109375 256.941406 337.113281 L 258.6875 336.308594 C 257.992188 336.703125 256.886719 337.273438 255.367188 338.023438 C 254.050781 338.679688 252.71875 339.3125 251.367188 339.917969 M 346.351562 168.210938 L 346.480469 169.332031 C 347.144531 174.941406 347.515625 181.308594 347.582031 188.4375 C 346.695312 174.542969 345.625 164.503906 344.371094 158.324219 C 343.933594 156.433594 343.464844 154.542969 342.964844 152.648438 C 345.011719 161.890625 345.71875 169.234375 345.085938 174.675781 C 343.75 159.503906 340.613281 144.921875 335.671875 130.933594 C 329.449219 113.6875 321.199219 98.390625 310.921875 85.042969 C 313.554688 88.769531 317.082031 94.582031 321.5 102.484375 L 306.667969 83.394531 C 304.148438 80.253906 301.515625 77.214844 298.769531 74.273438 C 295 70.289062 291.601562 66.964844 288.578125 64.308594 C 287.296875 63.117188 287.484375 63.339844 289.136719 64.984375 C 285.046875 61.339844 281.378906 58.324219 278.140625 55.945312 L 271.890625 51.511719 C 273.214844 52.539062 273.539062 52.890625 272.871094 52.570312 C 263.984375 47.222656 257.597656 43.640625 253.707031 41.824219 C 242.195312 37.070312 233.753906 34.023438 228.390625 32.691406 C 194.910156 24.777344 163.742188 26.945312 134.890625 39.199219 C 122.019531 44.167969 106.730469 53.785156 89.03125 68.050781 C 77.800781 78.8125 68.453125 90.628906 60.984375 103.492188 C 70.042969 86.109375 79.589844 73.179688 89.617188 64.699219 C 96.460938 58.511719 103.148438 53.324219 109.683594 49.128906 L 127.222656 38.707031 C 128.308594 38.105469 129.40625 37.523438 130.519531 36.953125 L 137.515625 33.941406 L 137.003906 34.042969 C 181.386719 17.910156 224.03125 21.316406 264.941406 44.269531 C 254.894531 38.371094 244.132812 33.675781 232.652344 30.1875 C 213.960938 24.578125 194.90625 22.742188 175.496094 24.675781 C 177.414062 24.035156 179.988281 23.523438 183.226562 23.144531 C 161.902344 25.191406 150.636719 27.09375 149.429688 28.847656 C 115.046875 41.480469 88.472656 60.460938 69.707031 85.78125 C 38.4375 125.730469 27.917969 171.894531 38.152344 224.269531 C 37.273438 218.386719 36.703125 212.730469 36.441406 207.300781 C 40.113281 241.386719 52.757812 271.695312 74.375 298.222656 C 91.796875 319.136719 113.179688 334.484375 138.519531 344.265625 C 166.199219 354.605469 194.609375 356.476562 223.746094 349.878906 L 218.382812 351.375 L 211.117188 353.054688 L 211.636719 352.996094 C 236.203125 349.289062 258.742188 339.929688 279.25 324.917969 C 321.746094 291.914062 344.25 246.714844 346.765625 189.316406 C 346.902344 210.566406 342.679688 232.992188 334.105469 256.601562 C 330.410156 270.449219 321.566406 285.730469 307.566406 302.445312 C 294.917969 317.027344 281.738281 327.953125 268.027344 335.222656 C 272.742188 332.75 277.636719 329.792969 282.710938 326.347656 C 281.867188 327.039062 280.355469 328.15625 278.179688 329.699219 C 267.585938 337.261719 254.882812 343.949219 240.0625 349.757812 C 221.542969 357.976562 199.109375 360.875 172.765625 358.460938 C 184.398438 359.890625 197.238281 359.816406 211.289062 358.246094 C 208.308594 359.121094 203.242188 359.691406 196.097656 359.960938 L 201.140625 359.996094 C 172.988281 361.277344 152.167969 358.710938 138.671875 352.296875 L 127.015625 346.996094 L 126.113281 346.378906 L 138.328125 350.835938 L 127.035156 345.945312 C 118.320312 341.355469 118.042969 340.9375 126.207031 344.691406 L 107.628906 334.636719 C 100.53125 330.089844 93.835938 325.019531 87.539062 319.421875 C 84.371094 316.652344 80.8125 313.1875 76.863281 309.03125 C 83.703125 315.390625 87.371094 318.507812 87.863281 318.382812 C 79.601562 310.992188 72.03125 302.664062 65.148438 293.394531 C 57.085938 282.425781 51.746094 273.863281 49.136719 267.710938 C 45.054688 260.105469 41.222656 249.761719 37.652344 236.679688 L 35.703125 228.953125 L 37.449219 233.195312 L 35.148438 222.769531 L 33.003906 209.660156 C 33.167969 211.839844 33.125 211.820312 32.878906 209.597656 C 30.972656 193.226562 31.378906 176.40625 34.101562 159.132812 C 32.9375 165.476562 32.097656 173.402344 31.582031 182.917969 L 32.449219 170.453125 C 33.304688 160.769531 36.285156 146.449219 41.394531 127.496094 C 45.574219 114.128906 53.179688 99.519531 64.214844 83.664062 C 90.652344 48.964844 124.605469 27.945312 166.074219 20.597656 C 188.148438 17.125 210.101562 18.445312 231.929688 24.558594 C 254.992188 32.773438 273.621094 42.886719 287.8125 54.894531 C 305.675781 69.667969 319.894531 87.363281 330.46875 107.976562 C 335.949219 118.492188 340.441406 130.199219 343.949219 143.09375 C 346.492188 152.679688 348.226562 162.414062 349.15625 172.292969 C 349.964844 178.949219 349.742188 184.546875 348.484375 189.078125 C 348.46875 183.703125 347.757812 176.746094 346.351562 168.210938 M 277.300781 327.390625 L 278.09375 326.890625 C 279.679688 325.882812 281.253906 324.84375 282.8125 323.773438 L 290.074219 317.574219 L 294.226562 313.800781 L 298.921875 309.222656 L 301.597656 306.820312 C 302.953125 305.316406 304.929688 302.824219 307.523438 299.339844 C 298.339844 310.28125 288.265625 319.632812 277.300781 327.390625 M 36.539062 225.644531 L 36.679688 226.582031 C 37.230469 230 37.734375 232.796875 38.199219 234.976562 C 38.523438 236.519531 38.71875 237.445312 38.792969 237.753906 C 38.988281 238.464844 39.199219 239.183594 39.417969 239.914062 C 40.457031 243.34375 41.222656 245.6875 41.71875 246.945312 C 41.835938 246.578125 41.957031 246.410156 42.082031 246.445312 L 42.316406 246.492188 L 42.679688 246.679688 C 41.703125 243.851562 40.796875 240.984375 39.960938 238.089844 C 39.847656 237.730469 39.546875 236.648438 39.054688 234.84375 L 37.574219 229.183594 C 37.203125 227.804688 36.859375 226.625 36.539062 225.644531 M 236.898438 27.058594 L 235.8125 26.710938 C 230.71875 25.101562 225.554688 23.765625 220.320312 22.699219 C 214.710938 21.597656 209.8125 20.851562 205.628906 20.457031 C 203.722656 20.242188 201.0625 20.042969 197.652344 19.851562 C 194.582031 19.703125 191.535156 19.648438 188.515625 19.683594 C 186.898438 19.699219 185.472656 19.742188 184.230469 19.8125 C 184.453125 19.871094 184.574219 19.929688 184.597656 20 C 181.988281 20.242188 180.691406 20.371094 180.707031 20.386719 L 178.5625 20.878906 C 187.636719 20.164062 196.722656 20.28125 205.816406 21.226562 C 209.226562 21.550781 213.351562 22.15625 218.199219 23.042969 C 221.574219 23.65625 225.617188 24.59375 230.339844 25.855469 C 232.652344 26.082031 234.839844 26.480469 236.898438 27.058594 M 243.550781 36.578125 L 242.722656 36.210938 C 231.386719 31.695312 219.476562 28.703125 206.992188 27.234375 C 194.640625 25.792969 182.285156 25.953125 169.925781 27.710938 C 172.027344 27.546875 173.988281 27.417969 175.808594 27.328125 C 177.328125 27.046875 179.324219 26.820312 181.789062 26.636719 C 183.636719 26.507812 186.195312 26.425781 189.457031 26.386719 C 196.367188 26.394531 202.539062 26.757812 207.972656 27.476562 C 220.445312 29.066406 232.308594 32.097656 243.550781 36.578125 " fill-opacity="1" fill-rule="nonzero"/><path fill="#4f4a41" d="M 71.777344 281.074219 L 72.339844 282.019531 L 73.425781 283.8125 C 72.703125 282.78125 72.71875 282.855469 73.472656 284.035156 L 76.445312 288.664062 C 78.699219 292.015625 80.609375 294.703125 82.171875 296.730469 C 86.414062 302.261719 90.464844 306.988281 94.316406 310.90625 C 102.710938 319.5 111.570312 326.675781 120.890625 332.433594 C 115.582031 329.585938 109.980469 325.960938 104.074219 321.550781 C 102.535156 320.386719 101.027344 319.195312 99.550781 317.984375 C 97.628906 316.265625 95.257812 313.949219 92.441406 311.027344 C 86.828125 305.125 81.699219 298.824219 77.058594 292.125 C 74.296875 288.046875 72.535156 284.363281 71.777344 281.074219 M 241.457031 336.644531 L 240.488281 337.171875 C 237.707031 338.667969 235.261719 339.882812 233.152344 340.824219 C 233.703125 340.523438 234.292969 340.21875 234.917969 339.90625 C 236.558594 339.105469 237.539062 338.617188 237.867188 338.445312 C 239.5 337.597656 240.476562 337.078125 240.800781 336.894531 C 241.121094 336.726562 242.078125 336.191406 243.667969 335.28125 C 245.253906 334.351562 246.203125 333.789062 246.515625 333.585938 L 248.195312 332.648438 C 246.144531 333.976562 243.894531 335.308594 241.457031 336.644531 M 324.234375 164.910156 L 324.34375 166.03125 C 324.984375 173.394531 325.265625 179.507812 325.1875 184.375 C 324.355469 170.34375 323.484375 160.730469 322.570312 155.535156 C 322.183594 153.613281 321.769531 151.714844 321.328125 149.832031 C 323 158.222656 323.503906 165.316406 322.847656 171.113281 C 321.613281 155.535156 318.996094 141.191406 314.992188 128.082031 C 310.367188 112.410156 303.582031 97.453125 294.632812 83.207031 L 303.203125 100.445312 C 291.820312 82.8125 285.140625 73 283.160156 71.011719 C 279.71875 66.703125 276.628906 63.136719 273.894531 60.3125 C 275.179688 61.824219 275.535156 62.261719 274.953125 61.621094 C 271.199219 57.632812 267.808594 54.324219 264.78125 51.691406 C 263.136719 50.234375 261.464844 48.824219 259.769531 47.460938 L 261.246094 49.058594 C 252.894531 42.96875 246.871094 38.902344 243.183594 36.859375 C 232.957031 31.710938 225.082031 28.296875 219.558594 26.613281 C 188.816406 17.730469 159.859375 19.972656 132.691406 33.34375 C 119.996094 39.257812 105.816406 49.839844 90.160156 65.09375 C 80.535156 76.113281 72.515625 88.234375 66.101562 101.457031 C 77.367188 71.335938 99.894531 47 133.6875 28.445312 C 175.621094 10.472656 215.699219 14.320312 253.921875 39.984375 C 243.488281 32.78125 232.988281 27.382812 222.421875 23.785156 C 205.476562 17.875 187.882812 15.949219 169.636719 18.003906 C 172.101562 17.234375 174.558594 16.714844 176.996094 16.4375 C 167.507812 16.976562 157.84375 18.726562 148 21.6875 C 116.929688 34.546875 92.957031 53.667969 76.082031 79.054688 C 61.128906 103.71875 52.195312 122.210938 49.285156 134.527344 C 42.980469 165.261719 42.09375 193.308594 46.625 218.667969 C 46.027344 213.34375 45.644531 208.027344 45.476562 202.722656 C 48.910156 238.191406 60.222656 269.136719 79.40625 295.554688 C 94.660156 316.507812 113.726562 332.105469 136.597656 342.347656 C 162.078125 353.382812 188.527344 355.167969 215.941406 347.695312 C 211.929688 349.125 207.796875 350.34375 203.539062 351.355469 C 225.308594 347.589844 245.414062 338.046875 263.851562 322.71875 C 301.679688 289.761719 321.882812 243.859375 324.453125 185.007812 C 324.714844 205.242188 320.96875 228.199219 313.210938 253.878906 C 310.898438 265.464844 303.242188 280.46875 290.234375 298.890625 C 279.285156 313.308594 268.324219 323.953125 257.351562 330.820312 C 261.421875 328.269531 265.902344 324.996094 270.792969 321.003906 L 263.167969 327.542969 C 254.761719 334.53125 243.230469 341.457031 228.574219 348.324219 C 209.019531 357.011719 188.335938 359.824219 166.519531 356.757812 C 178.558594 358.464844 191.058594 358.382812 204.023438 356.511719 C 200.507812 357.53125 195.730469 358.171875 189.691406 358.425781 L 194.367188 358.417969 C 168.273438 359.6875 149.199219 357.109375 137.132812 350.683594 L 122.820312 343.242188 C 122.328125 342.890625 122.3125 342.8125 122.785156 343.011719 L 130.984375 346.980469 L 133.96875 347.976562 C 128.085938 345.34375 124.632812 343.570312 123.609375 342.65625 C 115.296875 337.417969 115.003906 336.945312 122.734375 341.230469 L 108.296875 332.121094 C 102.101562 327.570312 96.304688 322.578125 90.902344 317.144531 C 86.691406 312.949219 82.527344 308.226562 78.40625 302.972656 C 84.191406 309.421875 87.421875 312.699219 88.097656 312.792969 C 76.28125 300.320312 65.777344 284.371094 56.589844 264.949219 C 51.832031 254.195312 48.390625 243.710938 46.261719 233.507812 L 44.074219 223.515625 L 45.617188 227.53125 L 43.8125 217.894531 L 41.972656 204.738281 C 42.097656 206.980469 42.046875 206.902344 41.832031 204.5 C 40.324219 188.914062 40.648438 172.84375 42.800781 156.285156 C 41.828125 162.746094 41.152344 170.339844 40.773438 179.066406 L 41.480469 166.867188 C 41.816406 160.03125 44.269531 145.746094 48.84375 124.007812 C 52.785156 109.96875 59.703125 94.8125 69.605469 78.539062 C 94.609375 41.304688 126.988281 19.523438 166.746094 13.195312 C 185.835938 10.398438 205.222656 12.382812 224.898438 19.148438 C 245.082031 27.953125 261.367188 38.480469 273.753906 50.730469 C 288.902344 65.132812 301.355469 83.210938 311.101562 104.972656 C 316.296875 116.859375 320.257812 129.140625 322.992188 141.816406 C 325.242188 152.265625 326.664062 162.769531 327.257812 173.320312 C 327.488281 177.585938 327.121094 181.453125 326.152344 184.925781 C 326.195312 180.84375 325.558594 174.171875 324.234375 164.910156 M 265.304688 322.671875 L 266.058594 322.101562 C 268.53125 320.183594 270 319.007812 270.457031 318.574219 L 276.390625 312.484375 L 280.195312 308.355469 L 280.9375 307.511719 C 283.632812 304.257812 285.632812 301.992188 286.929688 300.707031 C 287.023438 300.652344 287.75 299.589844 289.109375 297.511719 C 289.789062 296.460938 290.460938 295.402344 291.121094 294.335938 L 291.589844 293.511719 C 283.617188 304.847656 274.855469 314.566406 265.304688 322.671875 M 45.003906 220.160156 L 45.113281 221.101562 C 45.488281 224.234375 45.9375 227.359375 46.460938 230.480469 C 46.550781 231.082031 46.671875 231.730469 46.824219 232.421875 L 47.367188 234.613281 C 47.738281 236.078125 48.125 237.535156 48.53125 238.996094 C 48.757812 239.832031 48.941406 240.453125 49.082031 240.851562 C 49.152344 240.605469 49.25 240.449219 49.382812 240.386719 C 49.472656 240.285156 49.679688 240.367188 50 240.628906 L 49.984375 240.34375 C 49.453125 238.535156 48.777344 235.996094 47.960938 232.722656 C 47.523438 230.898438 47.265625 229.800781 47.1875 229.429688 C 46.609375 226.769531 46.1875 224.875 45.925781 223.738281 C 45.59375 222.308594 45.289062 221.113281 45.003906 220.160156 M 228.382812 21.453125 L 227.308594 21.039062 C 217.964844 17.476562 208.332031 15.078125 198.402344 13.847656 C 193.078125 13.195312 187.734375 12.894531 182.371094 12.957031 C 180.835938 12.972656 179.3125 13.019531 177.804688 13.09375 C 178.042969 13.148438 178.179688 13.210938 178.210938 13.28125 C 175.679688 13.554688 174.417969 13.703125 174.433594 13.722656 L 172.722656 14.148438 L 172.660156 14.207031 C 177.222656 13.78125 181.777344 13.621094 186.324219 13.722656 C 187.46875 13.730469 189.371094 13.816406 192.03125 13.984375 C 194.3125 14.140625 196.585938 14.367188 198.847656 14.652344 C 202.257812 15.050781 206.378906 15.792969 211.207031 16.886719 C 214.941406 17.769531 218.585938 18.796875 222.136719 19.972656 C 224.53125 20.332031 226.613281 20.824219 228.382812 21.453125 M 234.085938 31.234375 L 233.285156 30.808594 C 228.257812 28.351562 222.921875 26.273438 217.285156 24.570312 C 210.675781 22.617188 204.664062 21.292969 199.25 20.601562 C 193.496094 19.8125 187.726562 19.460938 181.9375 19.550781 C 176.269531 19.613281 170.367188 20.175781 164.238281 21.230469 C 166.117188 21.011719 168 20.839844 169.875 20.714844 C 171.765625 20.367188 173.359375 20.140625 174.660156 20.03125 C 176.554688 19.847656 179.117188 19.726562 182.347656 19.667969 C 188.128906 19.597656 193.890625 19.96875 199.636719 20.78125 C 205.050781 21.492188 211.050781 22.832031 217.636719 24.804688 C 223.109375 26.484375 228.589844 28.625 234.085938 31.234375 " fill-opacity="1" fill-rule="nonzero"/><path fill="#4f4a41" d="M 288.101562 325.640625 L 288.96875 324.964844 C 291.003906 323.308594 291.265625 323.136719 289.753906 324.445312 C 290.328125 323.988281 290.898438 323.527344 291.46875 323.0625 L 295.664062 319.515625 C 297.613281 317.839844 300.03125 315.59375 302.917969 312.777344 C 307.621094 308.140625 312.035156 303.234375 316.152344 298.066406 C 323.769531 288.632812 330.554688 277.722656 336.507812 265.335938 C 330.222656 280.238281 323.578125 291.734375 316.582031 299.820312 C 310.71875 306.988281 304.894531 313.171875 299.097656 318.375 C 295.703125 321.519531 292.035156 323.941406 288.101562 325.640625 M 340.386719 130.746094 L 340.8125 131.765625 C 341.367188 133.125 341.910156 134.496094 342.4375 135.886719 C 343.085938 137.621094 343.46875 138.660156 343.585938 139.007812 L 343.953125 140.046875 L 343.914062 140.015625 C 343.671875 139.445312 343.425781 138.824219 343.175781 138.15625 C 342.539062 136.425781 342.148438 135.386719 342.011719 135.042969 C 341.882812 134.6875 341.472656 133.660156 340.785156 131.957031 C 340.078125 130.257812 339.652344 129.238281 339.5 128.898438 C 338.910156 127.539062 338.304688 126.191406 337.6875 124.855469 L 336.9375 123.074219 C 337.753906 124.660156 338.902344 127.214844 340.386719 130.746094 M 165.191406 27.003906 L 166.3125 26.863281 C 173.03125 26.035156 179.765625 25.613281 186.519531 25.597656 C 172.617188 26.449219 162.097656 27.644531 154.964844 29.175781 C 153.078125 29.640625 151.191406 30.136719 149.304688 30.667969 C 158.78125 28.410156 166.371094 27.597656 172.078125 28.222656 C 157.566406 29.429688 142.789062 32.824219 127.75 38.402344 C 110.242188 45.0625 94.292969 54.378906 79.90625 66.351562 C 83.9375 63.257812 89.777344 59.355469 97.414062 54.640625 L 69.667969 78.933594 C 66.066406 82.582031 62.640625 86.390625 59.390625 90.359375 C 57.867188 92.195312 57.902344 92.21875 59.492188 90.4375 C 56.710938 93.835938 54.070312 97.339844 51.566406 100.949219 L 46.1875 109.230469 L 47.847656 107.109375 C 42.398438 117.035156 38.894531 123.84375 37.335938 127.535156 C 32.632812 139.851562 29.585938 149.074219 28.195312 155.207031 C 20.519531 189.917969 22.816406 223.085938 35.085938 254.714844 C 40.347656 268.757812 49.585938 284.683594 62.796875 302.496094 C 73.59375 314.84375 85.464844 325.136719 98.410156 333.386719 C 69.570312 318.871094 46.515625 291.230469 29.246094 250.460938 C 13.910156 204.582031 17.253906 159.890625 39.285156 116.386719 C 33.695312 126.917969 29.273438 137.921875 26.027344 149.394531 C 20.382812 169.902344 18.496094 190.230469 20.367188 210.371094 C 19.734375 208.132812 19.25 205.429688 18.910156 202.269531 C 20.71875 224.304688 22.707031 236.65625 24.875 239.320312 C 36.890625 275.308594 56.183594 303.96875 82.75 325.304688 C 121.777344 358.4375 168.65625 369.589844 223.386719 358.753906 C 217.382812 359.753906 211.535156 360.433594 205.84375 360.792969 C 241.480469 356.296875 272.285156 342.445312 298.261719 319.242188 C 319.550781 299.984375 334.957031 276.808594 344.472656 249.714844 C 354.515625 220.277344 356.355469 190.363281 349.988281 159.96875 C 351.167969 164.175781 352.199219 168.570312 353.082031 173.15625 L 352.933594 172.046875 C 348.960938 144.839844 339.367188 120.363281 324.152344 98.617188 C 291.394531 53.449219 245.691406 29.371094 187.039062 26.386719 C 208.960938 26.347656 231.261719 30.789062 253.945312 39.710938 C 271.34375 45.488281 287.148438 55.066406 301.363281 68.441406 C 317.449219 83.429688 329.03125 98.445312 336.113281 113.484375 C 333.121094 107.371094 330.117188 101.933594 327.097656 97.175781 L 329.511719 100.726562 C 337.257812 112.398438 343.828125 125.722656 349.222656 140.707031 C 357.652344 159.523438 360.71875 183.785156 358.429688 213.492188 C 359.804688 201.164062 359.753906 187.675781 358.273438 173.03125 C 359.101562 176.21875 359.640625 181.371094 359.890625 188.488281 L 359.933594 183.570312 C 361.238281 212.742188 358.832031 234.445312 352.710938 248.679688 L 347.441406 261.332031 L 346.917969 262.109375 C 350.019531 253.988281 351.441406 249.6875 351.1875 249.210938 L 346.035156 262.105469 C 342.089844 270.207031 341.8125 270.214844 345.203125 262.132812 L 334.617188 283.324219 C 329.90625 291.207031 324.601562 298.667969 318.699219 305.703125 C 307.164062 319.03125 307.441406 318.167969 319.527344 303.113281 C 311.285156 313.097656 302.679688 321.628906 293.699219 328.710938 C 283.488281 336.941406 274.839844 342.769531 267.761719 346.1875 C 260.128906 350.570312 250.105469 354.65625 237.695312 358.4375 L 228.507812 361.007812 L 232.726562 359.144531 L 222.820312 361.59375 C 220.140625 362.207031 215.421875 363.058594 208.65625 364.152344 C 210.300781 364.054688 210.34375 364.085938 208.789062 364.253906 C 191.746094 366.492188 174.109375 366.054688 155.878906 362.9375 C 164.171875 364.441406 172.371094 365.375 180.480469 365.738281 L 176.332031 365.546875 C 164.953125 364.851562 153.761719 363 142.753906 359.992188 C 124.316406 357.519531 103.257812 347.507812 79.570312 329.957031 C 45.074219 302.152344 23.992188 265.671875 16.328125 220.515625 C 9.945312 171.496094 21.402344 128.195312 50.703125 90.613281 C 65.285156 71.621094 83.035156 56.308594 103.953125 44.675781 C 115.328125 38.386719 127.261719 33.449219 139.742188 29.867188 C 149.664062 27.09375 158.992188 25.242188 167.726562 24.316406 C 175.507812 23.242188 181.847656 23.347656 186.742188 24.628906 C 179.855469 24.859375 172.671875 25.652344 165.191406 27.003906 M 328.265625 103.195312 L 327.796875 102.378906 C 325.738281 98.863281 324.582031 96.996094 324.335938 96.78125 C 320.53125 91.773438 317.359375 87.796875 314.8125 84.847656 C 313.308594 83.105469 311.847656 81.46875 310.433594 79.933594 L 307.433594 76.386719 C 305.066406 74.226562 302.710938 72.199219 300.371094 70.308594 C 310.808594 79.757812 320.105469 90.71875 328.265625 103.195312 M 225.027344 360.285156 L 225.960938 360.121094 C 228.429688 359.683594 230.902344 359.183594 233.382812 358.625 C 236.378906 357.960938 238.292969 357.464844 239.121094 357.144531 C 243.613281 355.652344 246.269531 354.710938 247.082031 354.3125 C 246.464844 354.199219 246.394531 353.882812 246.882812 353.355469 C 243.359375 354.648438 240.28125 355.707031 237.644531 356.527344 C 235.855469 357.082031 234.78125 357.410156 234.421875 357.507812 L 227.777344 359.410156 C 226.355469 359.839844 225.441406 360.132812 225.027344 360.285156 M 22.507812 146.265625 L 22.191406 147.355469 C 19.230469 157.632812 17.242188 168.09375 16.230469 178.734375 C 15.652344 184.808594 15.402344 190.886719 15.472656 196.96875 C 15.488281 198.5625 15.527344 200.007812 15.59375 201.304688 C 15.644531 201.082031 15.703125 200.949219 15.769531 200.914062 L 16.125 204.714844 L 16.609375 207.082031 C 16.292969 202.070312 16.164062 197.382812 16.214844 193.011719 C 16.316406 187.328125 16.585938 182.40625 17.023438 178.25 C 17.332031 174.847656 17.890625 170.714844 18.703125 165.859375 C 19.566406 161.011719 20.425781 156.929688 21.277344 153.621094 L 21.414062 152.804688 C 21.515625 151.71875 21.589844 151.054688 21.632812 150.808594 C 21.695312 150.351562 21.769531 149.882812 21.851562 149.402344 C 22.003906 148.496094 22.222656 147.453125 22.507812 146.265625 M 31.960938 138.953125 L 31.621094 139.792969 C 27.484375 150.90625 24.621094 163.273438 23.035156 176.894531 C 21.59375 190.03125 21.722656 203.171875 23.429688 216.316406 L 23.4375 216.167969 C 23.289062 214.257812 23.171875 212.355469 23.089844 210.460938 L 22.640625 206.820312 C 22.566406 206.113281 22.503906 205.367188 22.449219 204.574219 C 22.273438 201.558594 22.179688 198.605469 22.167969 195.71875 C 22.179688 188.777344 22.5 182.574219 23.136719 177.113281 C 24.605469 163.863281 27.546875 151.144531 31.960938 138.953125 " fill-opacity="1" fill-rule="nonzero"/><path fill="#4f4a41" d="M 336.28125 118.667969 L 335.855469 117.65625 C 335.042969 115.789062 334.964844 115.550781 335.621094 116.929688 L 334.929688 115.324219 L 332.609375 110.351562 C 331.320312 107.722656 329.957031 105.132812 328.515625 102.582031 C 325.414062 97.1875 322.445312 92.582031 319.609375 88.765625 C 313.128906 79.871094 305.667969 71.898438 297.226562 64.855469 C 301.851562 68.203125 306.53125 72.183594 311.265625 76.792969 C 313.480469 78.597656 316.636719 82.292969 320.734375 87.875 C 324.925781 93.523438 328.976562 100.125 332.878906 107.683594 C 334.8125 111.441406 335.945312 115.105469 336.28125 118.667969 M 185.84375 40.832031 L 186.90625 40.523438 C 188.324219 40.117188 189.738281 39.738281 191.15625 39.386719 C 192.945312 38.949219 194.023438 38.699219 194.382812 38.625 L 193.757812 38.8125 L 192.820312 39.082031 C 192.453125 39.160156 191.382812 39.425781 189.617188 39.878906 C 187.847656 40.355469 186.785156 40.648438 186.433594 40.761719 C 184.316406 41.378906 182.21875 42.046875 180.148438 42.761719 L 179.253906 43.015625 L 178.902344 43.09375 C 179.25 42.960938 180.296875 42.597656 182.035156 42.011719 C 183.554688 41.511719 184.824219 41.117188 185.84375 40.832031 M 77.523438 181.578125 L 77.605469 180.453125 C 78.109375 174.128906 78.839844 168.5 79.796875 163.558594 C 78.273438 176.890625 77.550781 185.816406 77.621094 190.335938 L 77.917969 195.734375 C 77.738281 186.847656 78.421875 180.292969 79.972656 176.074219 C 78.558594 190.550781 78.789062 204.257812 80.667969 217.1875 C 82.90625 232.949219 87.164062 247.664062 93.433594 261.332031 C 91.402344 256.085938 89.546875 250.410156 87.875 244.308594 L 90.679688 249.148438 C 94.933594 259.550781 98.863281 267.742188 102.476562 273.726562 C 104.695312 277.507812 107.078125 281.175781 109.632812 284.730469 L 108.902344 283.484375 C 111.417969 287.0625 114.09375 290.507812 116.9375 293.824219 C 118.363281 295.488281 119.820312 297.109375 121.316406 298.6875 L 120.339844 297.191406 C 127.335938 303.84375 132.238281 308.242188 135.050781 310.386719 C 144.761719 317.09375 151.75 321.429688 156.019531 323.398438 C 182.625 335.976562 209.941406 338.859375 237.976562 332.046875 C 250.113281 329.347656 265.042969 322.695312 282.757812 312.089844 C 294.03125 303.890625 303.894531 294.402344 312.347656 283.625 C 302.335938 297.996094 292.347656 308.414062 282.375 314.875 C 275.394531 319.691406 268.726562 323.570312 262.371094 326.511719 C 248.671875 332.664062 239.914062 336.027344 236.101562 336.601562 C 195.371094 345.273438 158.570312 335.238281 125.699219 306.5 C 134.210938 314.285156 142.902344 320.53125 151.773438 325.234375 C 166.847656 333.398438 183.183594 338.160156 200.773438 339.515625 L 193.957031 339.75 C 212.398438 341.046875 221.984375 341.109375 222.71875 339.9375 C 254.660156 333.605469 280.804688 320.277344 301.164062 299.957031 C 318.871094 281.160156 330.152344 266.21875 335.003906 255.136719 C 345.882812 228.867188 351.199219 203.863281 350.945312 180.121094 L 349.457031 194.867188 C 351.929688 162.695312 346.085938 132.960938 331.925781 105.664062 C 320.015625 83.335938 303.972656 65.894531 283.789062 53.328125 C 261.859375 39.851562 237.820312 33.949219 211.675781 35.621094 C 215.109375 35.113281 219.039062 34.75 223.460938 34.527344 C 200.890625 34.148438 179.402344 39.542969 159 50.710938 C 118.671875 73.871094 92.558594 111.25 80.65625 162.855469 C 83.835938 144.121094 91.273438 123.957031 102.960938 102.375 C 105.894531 96.84375 109.25 91.425781 113.03125 86.113281 C 118.71875 78.992188 124.976562 72.417969 131.808594 66.386719 C 145.769531 54.480469 158.570312 46.554688 170.207031 42.613281 C 165.269531 44.40625 160.433594 46.484375 155.703125 48.847656 L 162.535156 45.183594 C 172.871094 39.972656 184.96875 35.785156 198.828125 32.625 C 219.273438 28.203125 239.050781 29.113281 258.160156 35.355469 C 248.292969 32.121094 236.941406 30.144531 224.105469 29.421875 C 227.46875 29.070312 231.96875 29.300781 237.605469 30.117188 L 233.078125 29.285156 C 258.121094 32.5625 275.804688 38.128906 286.125 45.988281 L 297.265625 54.230469 C 297.71875 54.679688 297.589844 54.660156 296.886719 54.171875 L 290.28125 49.722656 L 287.375 48.253906 C 292.257812 51.363281 294.933594 53.230469 295.410156 53.855469 L 301.9375 59.648438 C 298.019531 56.804688 296.53125 55.78125 297.480469 56.578125 L 309 66.261719 C 314.304688 71.289062 319.59375 77.34375 324.871094 84.429688 C 328.191406 88.988281 330.980469 93.246094 333.246094 97.203125 C 328.140625 89.8125 325.535156 86.390625 325.433594 86.9375 C 335.207031 100.386719 343.070312 117.113281 349.03125 137.121094 C 351.609375 146.210938 353.210938 156.402344 353.835938 167.6875 L 354.25 175.644531 L 353.371094 171.90625 C 353.523438 174.917969 353.597656 177.941406 353.59375 180.976562 L 353.273438 193.160156 C 353.476562 191.527344 353.503906 191.703125 353.351562 193.683594 C 352.152344 208.921875 349.171875 223.613281 344.417969 237.757812 C 346.53125 231.777344 348.449219 224.976562 350.179688 217.355469 L 347.519531 228.195312 C 347.769531 229.984375 342.957031 242.660156 333.085938 266.230469 C 327.269531 277.761719 318.335938 289.976562 306.285156 302.875 C 277.128906 331.574219 242.992188 345.558594 203.871094 344.839844 C 185.4375 344.207031 167.367188 339.257812 149.65625 329.996094 C 131.503906 318.539062 117.441406 306.1875 107.457031 292.941406 C 94.753906 276.347656 85.746094 257.964844 80.429688 237.792969 C 77.511719 227.085938 75.6875 215.4375 74.964844 202.839844 C 74.460938 192.894531 74.78125 183.042969 75.933594 173.28125 C 76.539062 168.851562 77.550781 165.332031 78.972656 162.722656 C 78.160156 167.3125 77.675781 173.597656 77.523438 181.578125 M 161.128906 48.59375 L 160.269531 48.980469 L 156.015625 50.996094 L 155.210938 51.484375 C 150.46875 54.488281 146.835938 56.910156 144.304688 58.746094 L 139.128906 62.585938 L 136.890625 64.074219 C 135.160156 65.609375 133.117188 67.609375 130.761719 70.074219 C 140.253906 61.390625 150.378906 54.230469 161.128906 48.59375 M 352.785156 178.710938 L 352.832031 177.761719 C 352.851562 177.445312 352.890625 176.496094 352.945312 174.921875 C 352.964844 174.292969 352.980469 173.660156 352.996094 173.03125 C 353.019531 171.765625 353.03125 170.5 353.03125 169.226562 L 353.023438 168.277344 L 353 167.292969 C 352.941406 166.542969 352.878906 165.789062 352.808594 165.035156 C 352.671875 163.53125 352.515625 162.023438 352.335938 160.519531 L 352.203125 159.398438 L 352.089844 158.996094 C 351.9375 159.226562 351.839844 159.332031 351.796875 159.316406 C 351.6875 159.425781 351.484375 159.332031 351.191406 159.042969 L 351.140625 159.234375 C 351.421875 161.46875 351.660156 163.707031 351.855469 165.957031 C 351.949219 167.078125 352.035156 168.199219 352.109375 169.324219 L 352.179688 170.449219 L 352.378906 174 L 352.453125 175.144531 C 352.554688 176.648438 352.667969 177.839844 352.785156 178.710938 M 146.859375 327.363281 L 147.855469 327.929688 C 155.894531 332.453125 164.328125 336.046875 173.15625 338.71875 C 178.289062 340.265625 183.5 341.476562 188.785156 342.347656 L 192.199219 342.863281 L 192.023438 342.632812 C 194.5625 342.816406 195.785156 342.890625 195.695312 342.847656 C 195.863281 342.820312 196.457031 342.785156 197.476562 342.738281 C 189.574219 342.007812 181.527344 340.425781 173.328125 337.992188 C 169.679688 336.890625 166.089844 335.621094 162.558594 334.1875 C 158.988281 332.71875 155.578125 331.167969 152.328125 329.535156 C 150.691406 329.085938 148.867188 328.359375 146.859375 327.363281 M 143.132812 317.164062 L 143.859375 317.699219 C 152.445312 323.578125 162.496094 328.375 174.023438 332.09375 C 184.4375 335.347656 195.136719 337.097656 206.128906 337.34375 C 183.214844 336.550781 162.21875 329.824219 143.132812 317.164062 " fill-opacity="1" fill-rule="nonzero"/><path fill="#4f4a41" d="M 251.800781 66.238281 L 250.875 65.648438 L 249.03125 64.5 C 250.238281 65.152344 250.226562 65.113281 248.992188 64.378906 L 244.261719 61.585938 C 240.75 59.621094 237.832031 58.089844 235.515625 56.984375 C 229.238281 53.980469 223.492188 51.605469 218.28125 49.863281 C 207.183594 46.050781 195.75 43.582031 183.976562 42.453125 C 190.976562 42.71875 197.941406 43.484375 204.875 44.757812 C 207.992188 45.347656 209.90625 45.75 210.609375 45.964844 C 213.101562 46.640625 216.265625 47.648438 220.109375 48.980469 C 227.804688 51.710938 235.199219 55.003906 242.289062 58.851562 C 246.539062 61.253906 249.707031 63.714844 251.800781 66.238281 M 67.699219 86.335938 L 68.449219 85.523438 C 70.542969 83.277344 72.519531 81.277344 74.382812 79.519531 L 73.027344 80.953125 L 70.6875 83.304688 L 68.414062 85.703125 L 66.183594 88.164062 C 66.164062 88.167969 65.214844 89.265625 63.332031 91.457031 L 62.699219 92.136719 L 62.558594 92.25 L 64.691406 89.714844 C 65.617188 88.625 66.621094 87.5 67.699219 86.335938 M 47.191406 276.457031 L 46.644531 275.46875 C 43.851562 270.4375 41.144531 264.785156 38.519531 258.507812 C 44.667969 271.035156 49.230469 279.53125 52.210938 283.992188 L 55.808594 288.917969 C 50.902344 281.941406 47.621094 275.671875 45.972656 270.109375 C 53.285156 284.019531 61.523438 296.050781 70.683594 306.203125 C 82.316406 319.191406 95.234375 329.894531 109.445312 338.3125 L 93.742188 326.53125 C 111.558594 337.066406 121.835938 342.789062 124.574219 343.707031 C 129.554688 345.992188 133.949219 347.796875 137.746094 349.117188 L 138.589844 349.410156 C 136.746094 348.648438 136.25 348.429688 137.105469 348.75 C 141.222656 350.246094 145.398438 351.554688 149.628906 352.679688 L 157.074219 354.457031 L 155.207031 353.769531 L 176.664062 356.519531 C 189.15625 356.621094 198.09375 356.257812 203.472656 355.417969 C 235.769531 350.445312 262.738281 336.953125 284.382812 314.945312 C 293.769531 305.945312 303.753906 291.726562 314.328125 272.289062 C 320.15625 259.246094 324.132812 244.910156 326.253906 229.289062 C 324.582031 249.375 320.859375 264.804688 315.089844 275.585938 C 311.792969 282.800781 307.710938 290.007812 302.851562 297.203125 C 294.085938 309.648438 287.984375 317.386719 284.546875 320.410156 C 251.710938 351.28125 212.273438 363.980469 166.238281 358.511719 C 176.824219 360.1875 188.242188 360.476562 200.496094 359.378906 C 219.085938 357.570312 236.769531 352.210938 253.542969 343.304688 C 251.511719 344.921875 249.417969 346.3125 247.269531 347.476562 C 265.496094 337.710938 274.625 332.019531 274.65625 330.40625 C 300.953125 306.074219 317.761719 278.960938 325.085938 249.066406 C 338.253906 201.796875 330.46875 156.152344 301.730469 112.128906 C 304.238281 116.292969 306.8125 121.132812 309.453125 126.652344 C 293.074219 96.714844 270.257812 73.855469 241 58.070312 C 217.625 45.6875 192.746094 39.808594 166.359375 40.4375 C 137.277344 41.6875 111.394531 50.523438 88.710938 66.953125 C 92.125 64.15625 95.53125 61.597656 98.9375 59.277344 C 78.480469 71.359375 61.589844 88.449219 48.265625 110.546875 C 22.984375 156.113281 19.902344 205.148438 39.023438 257.648438 C 31.039062 238.671875 26.414062 216.996094 25.152344 192.625 C 23.058594 179.484375 25.191406 162.304688 31.546875 141.082031 C 37.785156 122.339844 45.460938 107.53125 54.574219 96.664062 C 51.496094 100.382812 48.160156 104.984375 44.5625 110.46875 L 47.476562 105.574219 C 53.585938 95.382812 62.453125 84.554688 74.074219 73.089844 C 87.347656 58.804688 106.476562 47.785156 131.464844 40.027344 C 119.859375 43.269531 108.300781 48.128906 96.78125 54.601562 C 98.957031 52.761719 103.214844 50.378906 109.5625 47.453125 L 105.078125 49.296875 C 111.589844 45.777344 122.5 41.558594 137.8125 36.644531 C 145.679688 34.730469 154.457031 33.527344 164.148438 33.027344 L 176.914062 33.574219 L 177.8125 33.808594 C 170.238281 33.699219 166.011719 33.851562 165.140625 34.273438 L 177.03125 34.523438 C 186.832031 35.519531 187.25 35.808594 178.292969 35.394531 L 198.625 37.648438 C 205.796875 38.933594 213.546875 41.019531 221.867188 43.902344 C 225.851562 45.273438 230.453125 47.148438 235.671875 49.523438 C 227.25 46.316406 222.851562 44.875 222.488281 45.199219 C 240.699219 51.714844 258.183594 61.972656 274.949219 75.972656 C 281.945312 81.792969 289.199219 89.609375 296.703125 99.417969 C 298.578125 101.804688 300.390625 104.242188 302.136719 106.71875 L 299.054688 103.664062 L 304.582031 111.605469 L 311.578125 122.90625 C 311.035156 121.691406 311.101562 121.730469 311.777344 123.019531 C 319.320312 136.382812 325.257812 151.734375 329.585938 169.070312 C 328.148438 162.554688 325.953125 155.179688 323.007812 146.945312 L 326.800781 158.152344 C 329.472656 166.300781 332.199219 180.339844 334.976562 200.273438 C 336.339844 213.09375 335.042969 229.152344 331.078125 248.453125 C 321.003906 289.011719 298.507812 320.695312 263.589844 343.503906 C 245.171875 354.820312 225.078125 361.753906 203.304688 364.308594 C 179.5 365.378906 159.136719 363.148438 142.21875 357.621094 C 120.832031 350.929688 101.609375 340.324219 84.5625 325.808594 C 75.480469 318.179688 66.871094 309.0625 58.734375 298.460938 C 52.746094 290.554688 47.457031 282.203125 42.867188 273.40625 C 39.65625 267.484375 37.875 262.523438 37.527344 258.515625 C 39.082031 262.480469 42.304688 268.457031 47.191406 276.457031 M 49.171875 107.378906 L 48.636719 108.148438 C 47.5625 109.691406 46.523438 111.265625 45.515625 112.863281 L 44.289062 115.445312 L 41.738281 120.453125 C 40.605469 122.8125 39.816406 124.511719 39.371094 125.546875 L 36.441406 132.503906 L 35.285156 134.875 L 34.910156 135.914062 C 34.277344 138.023438 33.558594 140.753906 32.75 144.105469 C 36.589844 131.257812 42.0625 119.015625 49.171875 107.378906 M 302.667969 110.171875 L 302.179688 109.359375 C 298.625 103.539062 296.085938 99.757812 294.554688 98.007812 C 293.125 96.238281 291.667969 94.503906 290.179688 92.804688 C 290.300781 93.464844 290.015625 93.660156 289.324219 93.390625 C 291.496094 95.902344 293.171875 97.90625 294.347656 99.402344 C 295.03125 100.207031 297.121094 102.941406 300.609375 107.609375 C 301.519531 108.789062 302.203125 109.644531 302.667969 110.171875 M 197.511719 363.898438 L 198.648438 363.8125 C 208.574219 363.007812 218.308594 361.199219 227.863281 358.394531 C 232.640625 357.03125 238.015625 355.09375 243.988281 352.578125 L 247.128906 351.183594 L 247.558594 350.9375 C 247.296875 350.980469 247.242188 350.933594 247.394531 350.796875 C 249.417969 349.832031 251.03125 348.871094 252.226562 347.921875 C 244.714844 351.765625 236.472656 355.035156 227.496094 357.722656 C 223.839844 358.796875 220.160156 359.71875 216.453125 360.492188 C 213.113281 361.21875 208.996094 361.894531 204.097656 362.515625 C 201.804688 363.191406 199.609375 363.652344 197.511719 363.898438 M 188.023438 357.574219 L 188.925781 357.605469 C 200.046875 357.628906 211.835938 355.949219 224.285156 352.566406 C 236.535156 349.042969 247.574219 344.300781 257.394531 338.335938 C 255.699219 339.226562 254 340.074219 252.296875 340.875 C 250.648438 341.902344 249.238281 342.707031 248.070312 343.292969 C 246.363281 344.167969 244.023438 345.25 241.042969 346.539062 C 234.675781 349.203125 228.847656 351.234375 223.558594 352.640625 C 212.601562 355.726562 200.753906 357.375 188.023438 357.574219 " fill-opacity="1" fill-rule="nonzero"/><path fill="#4f4a41" d="M 77.660156 57.40625 L 76.835938 58.136719 C 74.914062 59.902344 74.65625 60.097656 76.054688 58.726562 C 75.507812 59.214844 74.96875 59.710938 74.429688 60.207031 L 70.453125 64.003906 C 68.613281 65.792969 66.339844 68.183594 63.628906 71.171875 C 59.21875 76.089844 55.125 81.257812 51.339844 86.675781 C 44.242188 96.777344 38.257812 107.886719 33.386719 120.003906 C 35.988281 112.464844 38.8125 105.683594 41.855469 99.65625 C 43.226562 96.390625 46.128906 91.601562 50.566406 85.28125 C 55.003906 78.886719 60.421875 72.339844 66.816406 65.644531 C 70.074219 62.15625 73.6875 59.414062 77.660156 57.40625 M 37.59375 252.941406 L 37.109375 251.949219 C 36.472656 250.625 35.851562 249.289062 35.242188 247.929688 C 34.492188 246.242188 34.046875 245.226562 33.910156 244.886719 L 33.480469 243.871094 L 33.609375 244.089844 L 34.027344 244.960938 L 35.8125 248.957031 C 35.964844 249.300781 36.433594 250.304688 37.222656 251.960938 C 38.683594 254.941406 39.859375 257.242188 40.753906 258.855469 L 41.574219 260.554688 C 40.328125 258.359375 39 255.824219 37.59375 252.941406 M 216.742188 344.984375 L 215.632812 345.195312 C 208.921875 346.425781 202.273438 347.242188 195.699219 347.640625 C 208.699219 346.074219 218.890625 344.316406 226.269531 342.363281 L 232.316406 340.367188 C 223.371094 343.144531 215.835938 344.421875 209.714844 344.191406 C 224.132812 342.128906 238.675781 337.84375 253.339844 331.34375 C 269.4375 324.179688 284.484375 314.117188 298.488281 301.160156 C 293.851562 305.0625 288.355469 309.222656 282 313.640625 L 307.605469 288.394531 C 310.996094 284.546875 314.195312 280.550781 317.210938 276.398438 C 318.9375 274.058594 318.914062 274.019531 317.136719 276.28125 C 319.71875 272.726562 322.148438 269.074219 324.433594 265.324219 L 329.3125 256.738281 L 327.828125 258.875 C 332.660156 248.644531 335.742188 241.640625 337.070312 237.855469 C 340.703125 226.316406 343.101562 217.273438 344.269531 210.730469 C 349.949219 175.613281 345.664062 142.660156 331.40625 111.871094 C 325.605469 98.910156 315.820312 84.117188 302.039062 67.492188 C 290.914062 55.933594 278.289062 46.214844 264.160156 38.339844 C 294.015625 51.332031 318.5 77.222656 337.613281 116.003906 C 355.570312 159.828125 354.96875 204.195312 335.808594 249.101562 C 340.75 238.253906 344.476562 226.996094 346.996094 215.335938 C 351.238281 195.523438 351.855469 175.59375 348.847656 155.554688 C 349.429688 156.753906 350.070312 159.234375 350.765625 162.992188 C 347.816406 142.160156 345.179688 130.285156 342.851562 127.359375 C 328.453125 91.925781 307.765625 64.726562 280.785156 45.765625 C 240.886719 15.253906 193.769531 6.960938 139.433594 20.882812 C 145.792969 19.4375 151.539062 18.414062 156.667969 17.820312 C 122.167969 24.152344 92.527344 39.738281 67.75 64.570312 C 48.238281 84.554688 34.574219 107.957031 26.757812 134.785156 C 18.328125 164.726562 18.199219 194.683594 26.375 224.652344 L 22.5625 212 C 28.011719 238.953125 38.984375 262.835938 55.476562 283.648438 C 90.234375 326.152344 136.695312 347.242188 194.859375 346.917969 C 174.167969 348.371094 151.640625 345.195312 127.277344 337.390625 C 110.390625 332.875 94.34375 324.292969 79.136719 311.640625 C 62.953125 298.226562 50.875 284.328125 42.90625 269.9375 C 45.796875 275.085938 48.953125 280.082031 52.382812 284.921875 C 52.460938 285.089844 51.566406 283.941406 49.710938 281.472656 C 41.308594 270.199219 34.019531 257.3125 27.84375 242.8125 C 18.6875 225 14.34375 201.59375 14.804688 172.597656 C 14.164062 184.558594 15.015625 197.628906 17.351562 211.804688 C 17.394531 212.378906 17.351562 212.464844 17.222656 212.0625 L 15.9375 205.964844 C 15.476562 202.90625 15.101562 199.851562 14.808594 196.800781 L 15.105469 202.265625 C 13.929688 194.972656 13.433594 182.390625 13.613281 164.511719 C 14.441406 155.289062 16.015625 146.195312 18.335938 137.238281 L 22.839844 124.316406 L 23.289062 123.601562 C 20.597656 132.222656 19.4375 136.539062 19.804688 136.550781 C 21.582031 130.046875 22.960938 125.886719 23.945312 124.070312 C 27.738281 114.835938 28.070312 114.65625 24.945312 123.53125 C 30.695312 108.941406 33.742188 101.792969 34.089844 102.09375 C 38.308594 93.933594 43.15625 86.164062 48.632812 78.789062 L 56.460938 69.015625 C 51.371094 75.65625 48.609375 79.691406 48.179688 81.117188 C 55.328125 71.238281 63.445312 62.230469 72.53125 54.101562 C 81.074219 46.195312 89.402344 39.902344 97.515625 35.226562 C 103.34375 31.203125 113.324219 26.539062 127.453125 21.226562 C 129.59375 20.449219 131.746094 19.714844 133.917969 19.023438 L 130.019531 21.082031 L 140.679688 17.777344 L 153.570312 14.648438 C 154.273438 14.523438 153.867188 14.5625 152.359375 14.765625 C 153.105469 14.617188 153.851562 14.472656 154.601562 14.335938 C 170.441406 11.269531 187.621094 10.722656 206.136719 12.695312 C 198.394531 11.703125 190.320312 11.265625 181.914062 11.382812 L 186.355469 11.304688 C 198.128906 11.4375 209.039062 12.597656 219.089844 14.78125 C 237.722656 16.164062 259.335938 24.929688 283.929688 41.078125 C 319.300781 66.488281 342.078125 101.09375 352.269531 144.886719 C 361.398438 193.804688 352.617188 237.363281 325.917969 275.570312 C 312.144531 295.597656 295.605469 311.683594 276.308594 323.835938 C 266.339844 330.265625 255.078125 335.78125 242.53125 340.375 C 234.277344 343.402344 225.085938 345.847656 214.960938 347.714844 C 207.117188 349.347656 200.707031 349.625 195.730469 348.550781 C 200.945312 348.230469 207.949219 347.042969 216.742188 344.984375 M 51.179688 279.4375 L 51.695312 280.222656 C 52.730469 281.789062 53.792969 283.339844 54.886719 284.878906 L 61.136719 292.027344 L 64.957031 296.140625 C 66.296875 297.546875 68.101562 299.347656 70.367188 301.550781 L 72.800781 304.1875 C 74.328125 305.527344 76.84375 307.472656 80.355469 310.027344 C 69.125 300.828125 59.402344 290.628906 51.179688 279.4375 M 137.863281 19.410156 L 136.941406 19.628906 C 134.503906 20.210938 132.0625 20.859375 129.621094 21.5625 C 128.410156 21.914062 127.203125 22.277344 125.996094 22.652344 C 125.371094 22.859375 124.691406 23.109375 123.960938 23.40625 C 122.1875 24.082031 119.75 25.101562 116.648438 26.46875 L 116.476562 26.617188 C 116.832031 26.699219 117 26.808594 116.96875 26.933594 C 117 27.039062 116.921875 27.246094 116.734375 27.5625 C 119.46875 26.332031 122.238281 25.175781 125.046875 24.09375 C 126.019531 23.679688 129.257812 22.515625 134.757812 20.597656 C 136.125 20.101562 137.160156 19.707031 137.863281 19.410156 M 350.59375 218.726562 L 350.84375 217.617188 C 353.183594 207.179688 354.527344 196.617188 354.878906 185.929688 C 355.074219 179.824219 354.949219 173.742188 354.492188 167.683594 C 354.339844 165.789062 354.242188 164.648438 354.199219 164.265625 C 354.148438 164.042969 354.097656 164.058594 354.042969 164.308594 L 353.9375 164.082031 C 353.542969 161.304688 353.339844 160.015625 353.328125 160.21875 L 352.78125 158.359375 C 353.078125 160.601562 353.328125 162.863281 353.535156 165.140625 C 353.722656 167.03125 353.898438 169.671875 354.0625 173.050781 C 354.261719 177.601562 354.277344 182.152344 354.105469 186.703125 C 353.996094 189.347656 353.890625 191.242188 353.800781 192.386719 C 353.636719 194.648438 353.433594 196.910156 353.179688 199.175781 C 352.605469 204.070312 351.988281 208.195312 351.332031 211.546875 L 351.277344 212.300781 C 351.265625 212.730469 351.25 213.171875 351.222656 213.625 C 351.195312 214.078125 351.160156 214.542969 351.113281 215.019531 C 351.066406 215.722656 350.890625 216.960938 350.59375 218.726562 M 341.621094 226.492188 L 341.914062 225.632812 C 343.488281 220.644531 344.878906 214.675781 346.082031 207.734375 C 347.1875 201.21875 347.894531 194.667969 348.203125 188.082031 C 348.515625 181.5 348.425781 174.921875 347.941406 168.359375 C 347.410156 161.527344 346.574219 155.253906 345.425781 149.542969 C 345.65625 151.144531 345.925781 153.335938 346.234375 156.109375 C 346.664062 158.078125 346.957031 159.71875 347.105469 161.03125 C 347.46875 164.035156 347.738281 166.980469 347.921875 169.863281 C 348.109375 172.757812 348.21875 175.675781 348.253906 178.621094 C 348.289062 181.910156 348.222656 185.199219 348.0625 188.484375 C 347.734375 195.066406 347.011719 201.613281 345.894531 208.117188 C 344.691406 214.882812 343.269531 221.007812 341.621094 226.492188 " fill-opacity="1" fill-rule="nonzero"/><g fill="#88bdbc" fill-opacity="1"><g transform="translate(29.921441, 198.653279)"><g><path d="M 84.589844 -31.945312 L 84.589844 0 L 109.785156 0 L 109.785156 -31.945312 C 109.785156 -37.195312 113.6875 -41.09375 118.484375 -41.09375 L 154.480469 -41.09375 C 159.28125 -41.09375 163.328125 -37.195312 163.328125 -31.945312 L 163.328125 0 L 188.375 0 L 188.375 -31.945312 C 188.375 -50.09375 174.878906 -63.890625 154.480469 -63.890625 L 118.484375 -63.890625 C 110.085938 -63.890625 102.738281 -61.492188 97.1875 -57.441406 C 91.636719 -61.492188 84.289062 -63.890625 75.890625 -63.890625 L 39.894531 -63.890625 C 19.496094 -63.890625 6 -50.09375 6 -31.945312 L 6 0 L 31.046875 0 L 31.046875 -31.945312 C 31.046875 -37.195312 35.09375 -41.09375 39.894531 -41.09375 L 75.890625 -41.09375 C 80.691406 -41.09375 84.589844 -37.195312 84.589844 -31.945312 Z M 84.589844 -31.945312 "/></g></g></g><g fill="#88bdbc" fill-opacity="1"><g transform="translate(187.499992, 232.499985)"><g><path d="M 6 -31.949219 L 6 0 L 31.050781 0 L 31.050781 -31.949219 C 31.050781 -37.199219 35.101562 -41.101562 39.898438 -41.101562 L 108.898438 -41.101562 C 113.699219 -41.101562 117.75 -37.199219 117.75 -31.949219 L 117.75 0 L 142.800781 0 L 142.800781 -31.949219 C 142.800781 -50.101562 129.300781 -63.898438 108.898438 -63.898438 L 39.898438 -63.898438 C 19.5 -63.898438 6 -50.101562 6 -31.949219 Z M 6 -31.949219 "/></g></g></g></svg>